<svg width="132" height="132" viewBox="0 0 132 132" fill="none" xmlns="http://www.w3.org/2000/svg">
<path d="M132 66C132 102.45 102.45 132 66 132C29.5533 132 0 102.45 0 66C0 29.5533 29.5533 0 66 0C102.45 0 132 29.5533 132 66Z" fill="#DA2F47"/>
<path d="M93.4449 109.556C93.2799 108.9 89.1622 93.5 65.9999 93.5C42.8339 93.5 38.7199 108.9 38.5549 109.556C38.3532 110.352 38.7125 111.177 39.4239 111.588C40.1389 111.987 41.0335 111.877 41.6239 111.305C41.6935 111.236 48.7885 104.5 65.9999 104.5C83.2112 104.5 90.3099 111.236 90.3759 111.302C90.7279 111.65 91.1972 111.833 91.6665 111.833C91.9745 111.833 92.2862 111.756 92.5685 111.599C93.2872 111.188 93.6465 110.356 93.4449 109.556V109.556ZM57.5922 56.0743C45.6572 44.1393 26.4769 44 25.6665 44C23.6425 44 22.0035 45.639 22.0035 47.6593C21.9999 49.6833 23.6389 51.326 25.6629 51.3333C25.7692 51.3333 32.7212 51.4177 40.2672 54.0357C38.0929 56.3823 36.6665 60.027 36.6665 64.1667C36.6665 71.258 40.7695 77 45.8332 77C50.8969 77 54.9999 71.258 54.9999 64.1667C54.9999 63.5287 54.9302 62.92 54.8642 62.3077C54.9119 62.3077 54.9559 62.3333 54.9999 62.3333C55.9385 62.3333 56.8772 61.974 57.5922 61.259C59.0259 59.8253 59.0259 57.508 57.5922 56.0743V56.0743ZM106.333 44C105.523 44 86.3462 44.1393 74.4075 56.0743C72.9739 57.508 72.9739 59.8253 74.4075 61.259C75.1225 61.974 76.0612 62.3333 76.9999 62.3333C77.0475 62.3333 77.0879 62.3077 77.1319 62.3077C77.0732 62.92 76.9999 63.5287 76.9999 64.1667C76.9999 71.258 81.1029 77 86.1665 77C91.2302 77 95.3332 71.258 95.3332 64.1667C95.3332 60.027 93.9069 56.3823 91.7325 54.0357C99.2785 51.4177 106.231 51.3333 106.341 51.3333C108.361 51.326 110 49.6833 109.996 47.6593C109.993 45.639 108.357 44 106.333 44V44Z" fill="#292F33"/>
<path d="M109.043 121H22.957C18.3956 121 14.6666 117.271 14.6666 112.71V91.6668C14.6666 87.1055 18.3956 83.3765 22.957 83.3765H109.043C113.604 83.3765 117.333 87.1055 117.333 91.6668V112.71C117.333 117.271 113.604 121 109.043 121Z" fill="#292F33"/>
<path d="M28.7503 99.8402H25.7509C24.5996 99.8402 24.0753 99.0005 24.0753 98.1645C24.0753 97.3285 24.5996 96.4925 25.7509 96.4925H29.2343L30.0006 90.8825C30.1729 89.6285 30.6973 89.2105 31.7423 89.2105C32.5783 89.2105 33.3483 89.7641 33.3483 90.6038C33.3483 91.1281 33.3483 90.8825 33.2786 91.4435L32.5819 96.4961H35.9296L36.6959 90.8862C36.8683 89.6322 37.3926 89.2141 38.4376 89.2141C39.2736 89.2141 40.0436 89.7678 40.0436 90.6075C40.0436 91.1318 40.0436 90.8862 39.9739 91.4472L39.2736 96.4998H42.2729C43.4243 96.4998 43.9449 97.3395 43.9449 98.1718C43.9449 99.0078 43.4206 99.8475 42.2729 99.8475H38.7859L38.2286 103.818H41.2279C42.3793 103.818 42.8999 104.658 42.8999 105.494C42.8999 106.33 42.3756 107.166 41.2279 107.166H37.7409L36.9746 112.776C36.7986 114.034 36.2743 114.448 35.2293 114.448C34.3933 114.448 33.6233 113.894 33.6233 113.055C33.6233 112.53 33.6233 112.776 33.6929 112.215L34.3933 107.162H31.0493L30.2829 112.772C30.1069 114.03 29.5863 114.444 28.5376 114.444C27.7016 114.444 26.9316 113.891 26.9316 113.051C26.9316 112.527 26.9316 112.772 27.0013 112.211L27.6979 107.159H24.7059C23.5583 107.159 23.0339 106.319 23.0339 105.487C23.0339 104.647 23.5583 103.811 24.7059 103.811H28.1929L28.7503 99.8402V99.8402ZM31.5736 103.811H34.8846L35.4419 99.8402H32.1309L31.5736 103.811ZM48.4989 94.6445C48.4989 91.6122 50.7649 88.9978 53.8669 88.9978C56.9689 88.9978 59.2349 91.6122 59.2349 94.6445C59.2349 97.6768 56.9689 100.258 53.8669 100.258C50.7613 100.262 48.4989 97.6805 48.4989 94.6445ZM55.6783 94.6445C55.6783 93.5298 55.0146 92.5545 53.8669 92.5545C52.7156 92.5545 52.0519 93.5335 52.0519 94.6445C52.0519 95.7628 52.7156 96.7052 53.8669 96.7052C55.0146 96.7052 55.6783 95.7628 55.6783 94.6445ZM64.1483 89.9072C64.6029 89.0382 64.9513 88.7925 65.7543 88.7925C66.8359 88.7925 67.8113 89.6615 67.8113 90.7431C67.8113 91.0218 67.8113 91.2675 67.5326 91.7882L55.8213 113.711C55.2969 114.441 55.0879 114.859 54.2519 114.859C53.3463 114.859 52.2646 113.99 52.2646 112.945C52.2646 112.42 52.4736 111.936 52.6129 111.654L64.1483 89.9072ZM60.7676 109.043C60.7676 106.011 63.0336 103.397 66.1356 103.397C69.2376 103.397 71.5036 106.011 71.5036 109.043C71.5036 112.072 69.2376 114.653 66.1356 114.653C63.0299 114.657 60.7676 112.072 60.7676 109.043ZM67.9469 109.043C67.9469 107.925 67.2833 106.953 66.1319 106.953C64.9806 106.953 64.3169 107.929 64.3169 109.043C64.3169 110.158 64.9806 111.1 66.1319 111.1C67.2833 111.1 67.9469 110.158 67.9469 109.043ZM77.0623 111.936C77.0623 110.437 78.2833 109.216 79.7793 109.216C81.2789 109.216 82.4999 110.437 82.4999 111.936C82.4999 113.432 81.2789 114.653 79.7793 114.653C78.2833 114.657 77.0623 113.436 77.0623 111.936ZM77.2713 91.3702C77.2713 89.9072 78.3493 89.0015 79.7793 89.0015C81.1763 89.0015 82.2909 89.9438 82.2909 91.3702V104.79C82.2909 106.22 81.1763 107.159 79.7793 107.159C78.3493 107.159 77.2713 106.253 77.2713 104.79V91.3702ZM106.891 114.862C106.205 114.862 105.776 114.668 105.31 114.144L102.656 111.247L102.392 111.489C99.8176 113.854 97.5956 114.859 94.9703 114.859C90.9039 114.859 86.7973 112.541 86.7973 107.364C86.7973 103.305 89.9763 100.878 91.8719 99.7925L92.3009 99.5468L91.9526 99.1875C90.3943 97.5558 89.7563 96.2065 89.7563 94.5345C89.7563 90.5855 93.3606 88.7888 96.7083 88.7888C99.5096 88.7888 103.455 90.4498 103.455 94.1348C103.455 97.6218 100.217 99.6385 99.2273 100.174L98.8056 100.401L103.063 105.318L104.691 103.353C105.596 102.264 106.124 101.805 107.059 101.805C107.811 101.805 108.614 102.48 108.614 103.723C108.614 104.654 107.69 105.868 106.784 106.931L105.695 108.16L108.284 111.232C108.764 111.804 108.962 112.109 108.962 112.802C108.966 113.883 107.976 114.862 106.891 114.862V114.862ZM94.2516 102.124C92.6823 103.177 91.0836 104.563 91.0836 106.858C91.0836 109.263 92.6493 110.814 95.0766 110.814C97.1006 110.814 98.4096 109.927 99.7516 108.592L100.012 108.339L94.5119 101.948L94.2516 102.124V102.124ZM96.7119 92.1842C95.6853 92.1842 94.2553 93.0238 94.2553 94.3915C94.2553 95.6675 94.8823 96.4448 96.2133 97.7978L96.4003 97.9885L96.6313 97.8675C98.4536 96.9142 99.3776 95.8398 99.3776 94.6812C99.3813 92.9652 97.9989 92.1842 96.7119 92.1842V92.1842Z" fill="white"/>
</svg>
