<svg width="132" height="129" viewBox="0 0 132 129" fill="none" xmlns="http://www.w3.org/2000/svg">
<path d="M52.4823 113.233C52.4823 121.514 49.517 128.228 41.2361 128.228H14.9949C-8.24928e-05 128.228 -8.24928e-05 75.7461 14.9949 75.7461H41.2361C49.517 75.7461 52.4823 82.4601 52.4823 90.7411V113.233Z" fill="#553788"/>
<path d="M123.708 120.731H119.96V83.2436H123.708C125.781 83.2436 127.457 81.5679 127.457 79.4948C127.457 77.4218 125.781 75.7461 123.708 75.7461H33.7387C18.7437 75.7461 18.7437 128.228 33.7387 128.228H123.708C125.781 128.228 127.457 126.553 127.457 124.48C127.457 122.407 125.781 120.731 123.708 120.731Z" fill="#9266CC"/>
<path d="M124.353 120.732H37.4874C29.9899 120.732 29.9899 83.2441 37.4874 83.2441H124.353C128.492 83.2441 128.492 120.732 124.353 120.732Z" fill="#CCD6DD"/>
<path d="M39.3617 90.7416H126.895C126.389 86.3369 125.545 83.2441 124.353 83.2441H37.4873C31.2981 83.2441 30.2222 108.766 34.2521 117.688C32.7826 106.595 34.4846 90.7416 39.3617 90.7416Z" fill="#99AAB5"/>
<path d="M41.2361 27.0127C41.2361 35.2936 34.5221 42.0076 26.2412 42.0076H11.2462C-3.74874 42.0076 -3.74874 0.771484 11.2462 0.771484H26.2412C34.5221 0.771484 41.2361 7.48548 41.2361 15.7664V27.0127Z" fill="#226699"/>
<path d="M112.462 34.5101H108.713V8.26896H112.462C114.535 8.26896 116.211 6.59328 116.211 4.52022C116.211 2.44717 114.535 0.771484 112.462 0.771484H22.4923C7.49735 0.771484 7.49735 42.0076 22.4923 42.0076H112.462C114.535 42.0076 116.211 40.3319 116.211 38.2589C116.211 36.1858 114.535 34.5101 112.462 34.5101Z" fill="#55ACEE"/>
<path d="M113.107 34.5102H26.2413C18.7438 34.5102 18.7438 8.26904 26.2413 8.26904H113.107C117.246 8.26904 117.246 34.5102 113.107 34.5102Z" fill="#CCD6DD"/>
<path d="M26.2413 15.7665H115.93C115.503 11.5492 114.565 8.26904 113.107 8.26904H26.2413C21.769 8.26904 19.9846 17.5997 20.8506 25.1384C21.4354 20.0476 23.216 15.7665 26.2413 15.7665Z" fill="#99AAB5"/>
<path d="M71.226 60.7515C71.226 69.0325 64.512 75.7465 56.2311 75.7465H18.7437C3.7487 75.7465 3.7487 42.0078 18.7437 42.0078H56.2311C64.512 42.0078 71.226 48.7218 71.226 57.0028V60.7515Z" fill="#F4900C"/>
<path d="M127.457 68.249H123.708V49.5053H127.457C129.53 49.5053 131.206 47.8296 131.206 45.7566C131.206 43.6835 129.53 42.0078 127.457 42.0078H52.4823C37.4873 42.0078 37.4873 75.7465 52.4823 75.7465H127.457C129.53 75.7465 131.206 74.0708 131.206 71.9977C131.206 69.9247 129.53 68.249 127.457 68.249Z" fill="#FFAC33"/>
<path d="M128.102 68.2491H56.2311C48.7337 68.2491 48.7337 49.5054 56.2311 49.5054H128.102C132.241 49.5054 132.241 68.2491 128.102 68.2491Z" fill="#CCD6DD"/>
<path d="M56.2312 57.0029H131.146C130.902 53.0217 129.894 49.5054 128.102 49.5054H56.2312C51.4553 49.5054 49.7347 57.1041 51.0467 62.626C51.789 59.4808 53.5096 57.0029 56.2312 57.0029Z" fill="#99AAB5"/>
</svg>
