<svg width="36" height="36" viewBox="0 0 36 36" fill="none" xmlns="http://www.w3.org/2000/svg">
<path d="M32.75 36H4C1.791 36 0 34.209 0 32V4C0 1.791 1.791 0 4 0H19.042C19.042 0 23.891 0.569 23.584 2C23.233 3.634 21.129 8.896 21.042 9.708C20.869 11.328 25.777 14.101 25.542 16C24.809 21.934 22.042 24.25 23.037 27.305C23.163 27.691 26.716 28.023 27.625 28.5C33 31.318 32.958 36 32.75 36Z" fill="#66757F"/>
<path d="M30 36H4C1.791 36 0 34.209 0 32V4C0 1.791 1.791 0 4 0H11.167C11.167 0 20.122 0.862 20.009 2.062C19.836 3.913 16.37 9.779 17.499 10.874C18.628 11.969 21.931 14.668 22.07 16.416C22.249 18.66 17.786 24.715 20.152 29.72C20.908 31.318 25.213 30.677 26.481 31.572C29.644 33.807 30.304 36 30 36Z" fill="#99AAB5"/>
<path d="M29.7591 29.818C29.7591 29.818 30.1631 30.096 31.2751 30.484C31.7181 30.638 31.2311 32.324 30.9701 32.564C30.7091 32.804 28.7821 33.191 27.0421 32.662C25.4491 32.178 26.6371 31.724 27.7861 31.469C28.9371 31.215 29.7591 29.818 29.7591 29.818V29.818Z" fill="#292F33"/>
<path d="M28.313 14.316C27.205 14.787 25.993 15.298 25.44 15.133C25.025 15.009 24.205 14.751 23.554 14.753C22.903 14.755 22.794 15.096 23.229 15.774C23.664 16.453 24.553 16.813 25.261 16.597C25.969 16.381 27.537 16.307 28.494 16.28C29.45 16.255 30.186 13.521 28.313 14.316Z" fill="#9B6A49"/>
<path d="M27.8499 14.614C28.3339 14.356 29.1829 14.223 29.1829 14.223L30.1119 11.951L32.5939 13.587C32.5939 13.587 30.9439 15.521 30.5439 15.942C30.1439 16.364 28.7509 16.359 27.6459 16.313C26.8129 16.279 27.3089 14.902 27.8499 14.614V14.614ZM29.8219 26.172C29.8219 26.172 27.0829 24.3 26.8849 25.096C26.6869 25.892 29.1369 28.004 29.7309 29.984C29.9709 30.783 31.4109 31.647 31.4279 30.063C31.4579 27.328 29.8219 26.172 29.8219 26.172V26.172Z" fill="#9B6A49"/>
<path d="M27.1621 25.501C27.1621 25.501 28.0421 27.253 28.9281 27.068C29.8141 26.883 32.1471 24.063 32.8481 22.993C33.5491 21.923 33.2671 19.322 31.6801 20.577C30.0941 21.83 27.1621 25.501 27.1621 25.501Z" fill="#9B6A49"/>
<path d="M34.2249 21.936L27.8569 22.751L31.0319 25.643L34.2249 21.936Z" fill="#2A6797"/>
<path d="M27.622 22.132C27.622 22.132 25.253 24.289 25.039 25.152C24.824 26.014 25.042 28.816 24.397 31.402C23.752 33.988 25.476 34.418 25.691 33.556C25.906 32.694 28.343 29.534 27.547 27.639C27.163 26.723 29.778 24.501 29.778 24.501L27.622 22.132V22.132Z" fill="#AF7E57"/>
<path d="M29.807 19.266C28.516 20.106 27.863 21.332 26.074 23.318L28.469 25.872C28.469 25.872 34.501 23.586 35.422 20.514C36.216 17.865 33.931 16.371 33.931 16.371C33.931 16.371 31.041 18.463 29.807 19.266V19.266Z" fill="#357BAA"/>
<path d="M32.932 7.59301L32.687 9.92201L30.012 9.49301L30.022 7.47101L32.932 7.59301Z" fill="#AF7E57"/>
<path d="M33.4341 7.66997C32.4811 8.91297 31.0001 8.80797 29.5961 8.56397C28.2581 8.33097 28.5031 5.89297 29.1561 4.48097C29.8141 3.05897 31.9851 2.98297 33.1151 3.84997C34.2461 4.71697 34.3881 6.42697 33.4341 7.66997Z" fill="#AF7E57"/>
<path d="M25.146 7.83299C24.204 6.60699 22.821 5.37299 22.645 4.58599C22.431 3.62899 22.481 2.63199 21.146 1.83399C20.304 1.33099 20.868 2.71599 20.992 4.55099C21.063 5.60599 22.656 8.65399 23.625 9.64499C24.248 10.282 27.213 11.163 28.195 13.283C28.361 13.641 28.8 14.313 29.312 15.124C30.162 16.467 30.653 17.593 29.97 19.157C32.954 19.312 35.288 18.044 35.288 18.044C34.405 15.731 35.076 13.715 34.348 11.894C33.198 9.01499 31.919 8.90499 29.998 9.29599C29.998 9.29599 29.596 8.56299 27.856 8.74999C27.017 8.41899 26.221 8.13599 25.146 7.83299V7.83299Z" fill="#AF7E57"/>
<path d="M29.779 19.141C32.763 19.296 35.404 18.317 35.404 18.317C35.174 16.352 35.076 13.715 34.348 11.894C34.187 11.49 34.018 11.158 33.844 10.873C33.833 11.129 33.695 11.321 33.247 11.229C32.277 11.029 31.662 9.95502 30.706 9.33102C30.477 9.32102 30.241 9.31202 29.998 9.29602C30.758 9.89302 31.075 11.461 30.637 12.588C30.194 13.728 29.305 13.982 28.335 13.622C28.372 13.701 28.712 14.541 29.057 15.431C29.534 16.661 29.751 18.122 29.779 19.141V19.141Z" fill="#4289C1"/>
<path d="M24.3 31.985C24.3 31.985 24.671 32.992 25.92 32.854C26.197 32.823 25.841 34.018 25.53 34.315C25.219 34.612 22.125 36.034 20.571 35.17C19.018 34.306 20.226 33.962 21.435 33.617C22.643 33.272 24.3 31.985 24.3 31.985V31.985Z" fill="#292F33"/>
<path d="M30.9381 2.81198C32.9301 2.60598 34.2301 3.80098 34.3871 4.91398C34.6261 6.60398 33.2371 7.88098 32.9321 8.54098C32.6241 9.20798 30.5451 8.20298 30.4381 6.56198C30.4011 5.99998 30.1691 5.37098 30.2381 4.91798C30.3001 4.50798 29.5061 4.47598 29.1881 4.33198C28.7421 4.13098 29.5551 2.95598 30.9381 2.81198V2.81198Z" fill="#60352A"/>
<path d="M6.33304 2.41699H11.041C11.833 2.41699 8.83304 5.57299 7.74904 5.57299C6.66504 5.57299 4.91704 2.41699 6.33304 2.41699ZM10.667 8.62499H15.125C15.875 8.62499 12.667 11.574 11.667 11.574C10.667 11.574 9.37504 8.62499 10.667 8.62499ZM8.87504 17.743H18C19.292 17.743 12.458 22.841 11.333 22.841C10.208 22.841 6.41704 17.743 8.87504 17.743ZM3.16704 29.052H11.238C13.126 29.052 7.95704 33.583 6.12504 33.583C4.29304 33.583 1.33304 29.052 3.16704 29.052V29.052Z" fill="#66757F"/>
<path d="M29.7791 18.5C29.7891 18.454 30.9371 18.625 32.5931 18.375C33.8901 18.179 35.4041 17.835 35.4041 17.835L35.4991 18.484C35.4991 18.484 33.5821 18.979 32.4301 19.113C31.2781 19.247 29.8071 19.265 29.8071 19.265C29.8071 19.265 29.6961 18.91 29.7791 18.5V18.5Z" fill="#2A6797"/>
<path d="M30.312 5.60402C30.573 5.29502 31.25 5.39602 31.229 5.87502C31.208 6.35402 31.041 6.81302 30.479 6.77102C29.917 6.72902 30.083 5.87502 30.312 5.60402Z" fill="#AF7E57"/>
</svg>
