<svg width="130" height="130" viewBox="0 0 130 130" fill="none" xmlns="http://www.w3.org/2000/svg">
<path d="M54.1666 97.5V119.167C54.1666 119.167 54.1666 130 65 130C75.8333 130 75.8333 119.167 75.8333 119.167V97.5H54.1666Z" fill="#DD2E44"/>
<path d="M54.1666 119.167L54.1702 119.3C57.9294 119.174 61.4502 118.311 63.6747 114.656C63.8104 114.425 64.0042 114.233 64.237 114.1C64.4698 113.966 64.7335 113.896 65.0018 113.896C65.2701 113.896 65.5337 113.966 65.7665 114.1C65.9993 114.233 66.1932 114.425 66.3288 114.656C68.5533 118.307 72.0741 119.174 75.8333 119.3V97.5H54.1666V119.167Z" fill="#BE1931"/>
<path d="M115.39 78.0685C115.39 100.732 97.3342 100.732 97.3342 100.732H32.3342C32.3342 100.732 14.2787 100.732 14.2787 78.0685C14.2787 53.7874 32.3342 10.8333 64.8342 10.8333C97.3342 10.8333 115.39 57.3985 115.39 78.0685Z" fill="#D99E82"/>
<path d="M65 72.2222C39.7222 72.2222 28.8889 84.9586 28.8889 95.3152C28.8889 100.583 30.9814 105.634 34.7061 109.359C38.4308 113.084 43.4825 115.176 48.75 115.176C54.5459 115.176 59.735 112.779 63.3714 105.184C63.5135 104.872 63.7425 104.608 64.031 104.422C64.3194 104.236 64.6552 104.138 64.9982 104.138C65.3412 104.138 65.677 104.236 65.9655 104.422C66.2539 104.608 66.4829 104.872 66.625 105.184C70.2614 112.779 75.4542 115.176 81.2464 115.176C86.5139 115.176 91.5656 113.084 95.2903 109.359C99.015 105.634 101.108 100.583 101.108 95.3152C101.111 84.9586 90.2778 72.2222 65 72.2222Z" fill="#F4C7B5"/>
<path d="M54.1666 82.6763C50.5555 86.2874 61.3888 97.1207 64.9999 97.1207C68.6111 97.1207 79.4444 86.2874 75.8333 82.6763C72.2222 79.0652 57.7777 79.0652 54.1666 82.6763ZM46.9444 68.611C42.9722 68.611 39.7222 65.361 39.7222 61.3888V54.1666C39.7222 50.1943 42.9722 46.9443 46.9444 46.9443C50.9166 46.9443 54.1666 50.1943 54.1666 54.1666V61.3888C54.1666 65.361 50.9166 68.611 46.9444 68.611ZM83.0555 68.611C79.0833 68.611 75.8333 65.361 75.8333 61.3888V54.1666C75.8333 50.1943 79.0833 46.9443 83.0555 46.9443C87.0277 46.9443 90.2777 50.1943 90.2777 54.1666V61.3888C90.2777 65.361 87.0277 68.611 83.0555 68.611Z" fill="#292F33"/>
<path d="M54.1665 13.0282C50.3423 7.94013 42.1812 3.18068 10.2121 15.166C-4.75237 20.7776 2.55652 64.2915 14.2096 67.1118C18.2035 67.1118 30.1924 67.1118 30.1924 35.1462C30.1924 34.3518 30.1851 33.6187 30.1743 32.8893C37.3749 22.7421 45.1387 17.5385 54.1665 13.0282ZM119.788 15.166C87.8185 3.18068 79.6574 7.94013 75.8332 13.0282C84.861 17.5421 92.6248 22.7457 99.8254 32.8929C99.8146 33.6187 99.8074 34.3518 99.8074 35.1499C99.8074 67.1154 111.793 67.1154 115.79 67.1154C127.443 64.2915 134.752 20.7776 119.788 15.166V15.166Z" fill="#662113"/>
<path d="M84.8611 93.8889C85.8583 93.8889 86.6667 93.0806 86.6667 92.0834C86.6667 91.0862 85.8583 90.2778 84.8611 90.2778C83.8639 90.2778 83.0555 91.0862 83.0555 92.0834C83.0555 93.0806 83.8639 93.8889 84.8611 93.8889Z" fill="#D99E82"/>
<path d="M41.5277 93.8889C42.5249 93.8889 43.3333 93.0806 43.3333 92.0834C43.3333 91.0862 42.5249 90.2778 41.5277 90.2778C40.5305 90.2778 39.7222 91.0862 39.7222 92.0834C39.7222 93.0806 40.5305 93.8889 41.5277 93.8889Z" fill="#D99E82"/>
<path d="M92.0834 101.111C93.0806 101.111 93.8889 100.303 93.8889 99.3056C93.8889 98.3084 93.0806 97.5 92.0834 97.5C91.0862 97.5 90.2778 98.3084 90.2778 99.3056C90.2778 100.303 91.0862 101.111 92.0834 101.111Z" fill="#D99E82"/>
<path d="M37.9166 101.111C38.9138 101.111 39.7222 100.303 39.7222 99.3056C39.7222 98.3084 38.9138 97.5 37.9166 97.5C36.9195 97.5 36.1111 98.3084 36.1111 99.3056C36.1111 100.303 36.9195 101.111 37.9166 101.111Z" fill="#D99E82"/>
<path d="M83.0556 104.722C85.0499 104.722 86.6667 103.105 86.6667 101.111C86.6667 99.1168 85.0499 97.5 83.0556 97.5C81.0612 97.5 79.4445 99.1168 79.4445 101.111C79.4445 103.105 81.0612 104.722 83.0556 104.722Z" fill="#D99E82"/>
<path d="M46.9445 104.722C48.9388 104.722 50.5556 103.105 50.5556 101.111C50.5556 99.1168 48.9388 97.5 46.9445 97.5C44.9501 97.5 43.3334 99.1168 43.3334 101.111C43.3334 103.105 44.9501 104.722 46.9445 104.722Z" fill="#D99E82"/>
<path d="M35.6889 26.1151C34.7536 23.6848 33.3994 21.0704 31.4422 19.1132C31.1069 18.7779 30.7089 18.5119 30.2708 18.3305C29.8328 18.1491 29.3633 18.0557 28.8891 18.0557C28.415 18.0557 27.9455 18.1491 27.5074 18.3305C27.0694 18.5119 26.6713 18.7779 26.3361 19.1132C26.0008 19.4484 25.7349 19.8465 25.5534 20.2845C25.372 20.7226 25.2786 21.1921 25.2786 21.6662C25.2786 22.1404 25.372 22.6099 25.5534 23.0479C25.7349 23.486 26.0008 23.884 26.3361 24.2193C28.3944 26.2776 30.1855 31.2032 30.1927 32.691C30.7164 31.2321 33.2225 28.5382 35.6889 26.1151ZM94.2502 26.1151C95.1855 23.6885 96.5397 21.0704 98.4969 19.1132C98.8322 18.7779 99.2302 18.5119 99.6683 18.3305C100.106 18.1491 100.576 18.0557 101.05 18.0557C101.524 18.0557 101.994 18.1491 102.432 18.3305C102.87 18.5119 103.268 18.7779 103.603 19.1132C103.938 19.4484 104.204 19.8465 104.386 20.2845C104.567 20.7226 104.661 21.1921 104.661 21.6662C104.661 22.1404 104.567 22.6099 104.386 23.0479C104.204 23.486 103.938 23.884 103.603 24.2193C101.545 26.2776 99.7536 31.2032 99.7463 32.691C99.2227 31.2321 96.7166 28.5382 94.2502 26.1151Z" fill="#380F09"/>
</svg>
