<svg width="263" height="263" viewBox="0 0 263 263" fill="none" xmlns="http://www.w3.org/2000/svg">
<path d="M263 131.5C263 204.125 204.125 263 131.5 263C58.8828 263 0 204.125 0 131.5C0 58.8828 58.8828 0 131.5 0C204.125 0 263 58.8828 263 131.5Z" fill="#FFCC4D"/>
<path d="M207.894 130.017C207.456 129.031 196.943 105.931 175.334 105.931C153.731 105.931 143.211 129.031 142.773 130.017C142.101 131.529 142.539 133.297 143.832 134.335C145.111 135.372 146.944 135.408 148.288 134.437C148.376 134.371 157.508 127.847 175.334 127.847C193.057 127.847 202.174 134.283 202.379 134.43C203.022 134.912 203.796 135.153 204.556 135.153C205.359 135.153 206.17 134.882 206.835 134.356C208.128 133.319 208.574 131.537 207.894 130.017V130.017ZM120.228 130.017C119.789 129.031 109.277 105.931 87.6669 105.931C66.0644 105.931 55.5444 129.031 55.1061 130.017C54.434 131.529 54.8723 133.297 56.1581 134.335C57.4439 135.372 59.2775 135.408 60.6145 134.437C60.7094 134.371 69.8341 127.847 87.6669 127.847C105.39 127.847 114.508 134.283 114.712 134.43C115.355 134.912 116.129 135.153 116.889 135.153C117.693 135.153 118.504 134.882 119.168 134.356C120.469 133.319 120.9 131.537 120.228 130.017V130.017ZM131.5 160.722C105.032 160.722 87.4697 157.639 65.7503 153.417C60.7898 152.46 51.1392 153.417 51.1392 168.028C51.1392 197.25 84.7082 233.778 131.5 233.778C178.285 233.778 211.861 197.25 211.861 168.028C211.861 153.417 202.211 152.452 197.25 153.417C175.531 157.639 157.968 160.722 131.5 160.722Z" fill="#664500"/>
<path d="M65.75 168.028C65.75 168.028 87.6667 175.333 131.5 175.333C175.333 175.333 197.25 168.028 197.25 168.028C197.25 168.028 182.639 197.25 131.5 197.25C80.3611 197.25 65.75 168.028 65.75 168.028Z" fill="white"/>
<path d="M255.695 80.3611C255.695 100.539 239.345 116.889 219.167 116.889C198.989 116.889 182.639 100.539 182.639 80.3611C182.639 60.1832 211.861 7.30554 219.167 7.30554C226.472 7.30554 255.695 60.1832 255.695 80.3611Z" fill="#5DADEC"/>
</svg>
