<svg width="47" height="47" viewBox="0 0 47 47" fill="none" xmlns="http://www.w3.org/2000/svg">
<path d="M45.5434 21.8099L25.3773 1.64484C24.2167 0.48346 22.3331 0.48346 21.171 1.64484L16.9834 5.83243L22.2955 11.1446C23.53 10.7275 24.9456 11.0073 25.9296 11.9913C26.9183 12.9817 27.1962 14.4093 26.7689 15.6477L31.8884 20.7674C33.127 20.3407 34.5561 20.6167 35.5454 21.6076C36.9279 22.9897 36.9279 25.2296 35.5454 26.6125C34.1624 27.9956 31.9225 27.9956 30.5388 26.6125C29.4989 25.5715 29.242 24.0442 29.7684 22.763L24.9941 17.9887L24.9936 30.5528C25.3397 30.7239 25.6558 30.9499 25.9296 31.2221C27.3122 32.6042 27.3122 34.8443 25.9296 36.2283C24.5467 37.6107 22.3056 37.6107 20.9247 36.2283C19.5421 34.8443 19.5421 32.6043 20.9247 31.2223C21.256 30.8908 21.6498 30.6283 22.0832 30.4499V17.7688C21.6491 17.5916 21.2552 17.3289 20.9247 16.9964C19.8772 15.9503 19.6253 14.4133 20.162 13.1271L14.9255 7.88996L1.09794 21.7166C-0.063978 22.8791 -0.063978 24.7628 1.09794 25.9244L21.2644 46.0898C22.4254 47.2514 24.3087 47.2514 25.4711 46.0898L45.5433 26.018C46.7048 24.8561 46.7048 22.9713 45.5433 21.8099" fill="#DE4C36"/>
</svg>
