<svg width="73" height="69" viewBox="0 0 73 69" fill="none" xmlns="http://www.w3.org/2000/svg">
<path d="M36.4715 5.14112C18.8417 5.13438 4.5625 18.6244 4.5625 35.2747C4.5625 48.4413 13.495 59.6336 25.935 63.744C27.6103 64.1415 27.3536 63.0162 27.3536 62.2481V57.0259C17.6797 58.0973 17.2876 52.0463 16.6389 51.0356C15.3271 48.9197 12.2261 48.3807 13.1528 47.3699C15.3557 46.2985 17.6013 47.6395 20.2033 51.2714C22.0854 53.9061 25.7567 53.4613 27.6174 53.0233C28.0237 51.4398 28.8935 50.0248 30.0911 48.9265C20.0679 47.2284 15.8903 41.447 15.8903 34.5739C15.8903 31.2385 17.0523 28.1726 19.3336 25.6996C17.8793 21.623 19.469 18.1325 19.6829 17.6137C23.8248 17.2633 28.1307 20.4168 28.4657 20.6661C30.8183 20.0664 33.5059 19.7497 36.5143 19.7497C39.5369 19.7497 42.2316 20.0799 44.6056 20.6863C45.4111 20.1068 49.4033 17.3981 53.2529 17.7282C53.4597 18.2471 55.0138 21.6566 53.645 25.6794C55.9548 28.1591 57.1311 31.252 57.1311 34.5941C57.1311 41.4807 52.925 47.2689 42.8732 48.9399C43.7342 49.7402 44.4178 50.6947 44.8842 51.7475C45.3505 52.8003 45.5902 53.9304 45.5894 55.0718V62.6524C45.6464 63.2588 45.5894 63.8585 46.6587 63.8585C59.284 59.8358 68.3733 48.5626 68.3733 35.2815C68.3733 18.6244 54.087 5.14112 36.4715 5.14112Z" fill="#EEEEEE"/>
</svg>
