<svg width="37" height="41" viewBox="0 0 37 41" fill="none" xmlns="http://www.w3.org/2000/svg">
<path d="M35.2993 6.61704C33.1831 3.26486 25.7764 2.14746 18.3697 2.14746C10.9631 2.14746 2.49832 3.26486 1.44023 5.49965C-0.577559 9.7614 0.382133 27.8476 0.382133 28.965C0.382133 30.0824 5.67261 30.0824 5.67261 30.0824V15.5562L6.7307 13.3214V39.0215C6.7307 39.0215 9.90498 40.1389 18.3697 40.1389C26.8345 40.1389 30.0088 39.0215 30.0088 39.0215V13.3214L31.0669 15.5562V30.0824C31.0669 30.0824 36.3573 30.0824 36.3573 28.965C36.3573 27.8476 37.8016 10.5816 35.2993 6.61704Z" fill="#E1E8ED"/>
<path d="M6.73064 30.0824H5.67255V15.5564C5.67255 14.439 6.73064 13.3217 6.73064 13.3217V30.0824ZM31.0668 30.0824H30.0087V13.3217C30.0087 13.3217 31.0668 14.439 31.0668 15.5564V30.0824Z" fill="#99AAB5"/>
<path d="M11.7895 2.14749L18.4354 14.8234L24.7184 2.14749L18.2545 0.750732L11.7895 2.14749Z" fill="#66757F"/>
<path d="M12.0212 0.61119C12.0212 0.61119 14.4019 0 18.3697 0C22.3376 0 24.7183 0.61119 24.7183 0.61119V3.26489C24.7183 3.26489 22.9989 2.14754 18.3697 2.14754C13.7406 2.14754 12.0212 3.26489 12.0212 3.26489V0.61119Z" fill="#CCD6DD"/>
<path d="M6.73065 39.0217C6.73065 39.0217 25.5097 3.64594 25.5097 2.55201C25.5097 1.43461 24.7183 0.611084 24.7183 0.611084L6.73065 35.6695V39.0217Z" fill="#99AAB5"/>
<path d="M18.1772 16.3633C18.1772 16.3633 11.0964 3.64598 11.0964 2.55203C11.0964 1.43462 12.0212 0.611084 12.0212 0.611084L19.175 14.6603L18.1772 16.3633Z" fill="#99AAB5"/>
<path d="M6.73065 24.4955C6.73065 24.4955 12.0211 26.7303 18.3697 26.7303C24.7183 26.7303 30.0088 24.4955 30.0088 24.4955V27.8478C30.0088 27.8478 25.7764 30.0826 18.3697 30.0826C10.963 30.0826 6.73065 27.8478 6.73065 27.8478V24.4955Z" fill="#292F33"/>
<path d="M21.544 26.7306C21.544 26.7306 19.4278 25.6132 18.3698 25.6132C17.3117 25.6132 15.1955 26.7306 15.1955 26.7306C15.1955 26.7306 14.1374 26.7306 14.1374 27.848C14.1374 28.9654 15.1955 30.0828 15.1955 30.0828C15.1955 30.0828 17.3117 31.2002 18.3698 31.2002C19.4278 31.2002 21.544 30.0828 21.544 30.0828C21.544 30.0828 22.6021 28.9654 22.6021 27.848C22.6021 26.7306 21.544 26.7306 21.544 26.7306Z" fill="#292F33"/>
<path d="M12.0212 36.7871L15.1955 37.9045C15.1955 37.9045 16.2536 32.3175 18.3697 30.0827L16.2536 26.7305C16.2536 26.7305 13.0793 31.2001 12.0212 36.7871ZM24.7183 36.7871L21.544 37.9045C21.544 37.9045 20.4859 32.3175 18.3697 30.0827L20.4859 26.7305C20.4859 26.7305 23.6602 31.2001 24.7183 36.7871Z" fill="#292F33"/>
</svg>
