<svg width="56" height="52" viewBox="0 0 56 52" fill="none" xmlns="http://www.w3.org/2000/svg">
<path d="M47.0556 43.9352V29.3703C47.0556 26.8827 46.1049 24.7561 44.2037 22.9907C42.3025 21.2253 40.0123 20.3426 37.3333 20.3426C36.037 20.3426 34.7407 20.6836 33.4444 21.3657C32.1481 22.0478 31.1543 22.9105 30.463 23.9537V20.824H22.1667V43.9352H30.463V30.3333C30.463 29.2901 30.8519 28.3873 31.6296 27.625C32.4074 26.8626 33.3796 26.4815 34.5463 26.4815C35.713 26.4815 36.7068 26.8626 37.5278 27.625C38.3488 28.3873 38.7593 29.2901 38.7593 30.3333V43.9352H47.0556ZM12.4444 16.4907C13.8272 16.4907 15.0154 16.0494 16.0093 15.1666C17.0031 14.2839 17.5 13.2006 17.5 11.9166C17.5 10.6327 17.0031 9.52929 16.0093 8.60645C15.0154 7.68362 13.8272 7.2222 12.4444 7.2222C11.0617 7.2222 9.87346 7.68362 8.87963 8.60645C7.8858 9.52929 7.38889 10.6327 7.38889 11.9166C7.38889 13.2006 7.8858 14.2839 8.87963 15.1666C9.87346 16.0494 11.0617 16.4907 12.4444 16.4907ZM16.5926 43.9352V20.824H8.2963V43.9352H16.5926ZM49.7778 0.361084C51.3333 0.361084 52.6512 0.862627 53.7315 1.86571C54.8117 2.8688 55.3519 4.05244 55.3519 5.41664V46.5833C55.3519 47.9475 54.8117 49.1311 53.7315 50.1342C52.6512 51.1373 51.3333 51.6389 49.7778 51.6389H5.57407C4.01852 51.6389 2.70062 51.1373 1.62037 50.1342C0.540123 49.1311 0 47.9475 0 46.5833V5.41664C0 4.05244 0.540123 2.8688 1.62037 1.86571C2.70062 0.862627 4.01852 0.361084 5.57407 0.361084H49.7778Z" fill="#EEEEEE"/>
</svg>
