<svg width="67" height="67" viewBox="0 0 67 67" fill="none" xmlns="http://www.w3.org/2000/svg">
<g clip-path="url(#clip0)">
<path fill-rule="evenodd" clip-rule="evenodd" d="M7.32811 8.375C5.38458 8.375 3.52064 9.14707 2.14635 10.5214C0.772058 11.8956 -9.97639e-06 13.7596 -9.97639e-06 15.7031L-9.97633e-06 18.7851C-0.000688406 18.8228 -0.000688406 18.8605 -9.97639e-06 18.8982L-9.97633e-06 51.2969C-9.97633e-06 55.342 3.28299 58.625 7.32811 58.625H59.6719C61.6154 58.625 63.4793 57.8529 64.8536 56.4786C66.2279 55.1044 67 53.2404 67 51.2969V15.7031C67 13.7596 66.2279 11.8956 64.8536 10.5214C63.4793 9.14707 61.6154 8.375 59.6719 8.375H7.32811ZM60.7187 17.0431V15.7031C60.7187 15.4255 60.6084 15.1592 60.4121 14.9629C60.2158 14.7665 59.9495 14.6562 59.6719 14.6562H7.32811C7.05047 14.6562 6.78419 14.7665 6.58786 14.9629C6.39154 15.1592 6.28124 15.4255 6.28124 15.7031V17.0431L33.5 32.9975L60.7187 17.0431ZM6.28124 24.3294V51.3011C6.28124 51.8789 6.75024 52.3479 7.32811 52.3479H59.6719C59.9495 52.3479 60.2158 52.2376 60.4121 52.0413C60.6084 51.845 60.7187 51.5787 60.7187 51.3011V24.3252L35.0912 39.3499C34.6089 39.6334 34.0595 39.7829 33.5 39.7829C32.9405 39.7829 32.3911 39.6334 31.9087 39.3499L6.28124 24.3252V24.3294Z" fill="#EEEEEE"/>
</g>
<defs>
<clipPath id="clip0">
<rect width="67" height="67" fill="white"/>
</clipPath>
</defs>
</svg>
