<svg width="177" height="47" viewBox="0 0 177 47" fill="none" xmlns="http://www.w3.org/2000/svg">
<path fill-rule="evenodd" clip-rule="evenodd" d="M164.806 19.7883C164.648 19.8174 164.489 20.1385 164.489 20.3135C164.457 21.4815 164.426 24.5761 164.426 26.6779C164.426 26.7365 164.521 26.8532 164.616 26.8532C165.092 26.8823 166.234 26.9114 167.218 26.9114C168.583 26.9114 169.377 26.7365 169.821 26.5615C170.963 26.0357 171.503 24.8972 171.503 23.6415C171.503 20.8101 169.345 19.7298 166.139 19.7298C165.917 19.7007 165.283 19.7007 164.806 19.7883ZM172.995 32.838C172.995 29.9478 170.678 28.342 166.489 28.342C166.298 28.342 164.965 28.3129 164.648 28.3711C164.552 28.4005 164.426 28.459 164.426 28.5466C164.426 30.6191 164.394 33.9184 164.489 35.2028C164.552 35.7574 164.997 36.5457 165.537 36.7792C166.108 37.0712 167.409 37.1294 168.298 37.1294C170.805 37.1294 172.995 35.845 172.995 32.838ZM158.332 18.1828C158.649 18.1828 159.601 18.2701 162.045 18.2701C164.362 18.2701 166.203 18.2119 168.456 18.2119C171.217 18.2119 175.026 19.1167 175.026 22.912C175.026 24.7804 173.598 26.2695 171.725 26.9993C171.63 27.0285 171.63 27.0867 171.725 27.1158C174.391 27.7292 176.74 29.2471 176.74 32.1079C176.74 34.9108 174.836 36.6916 172.074 37.801C170.392 38.4723 168.298 38.7058 166.171 38.7058C164.552 38.7058 160.204 38.5308 157.792 38.5894C157.539 38.5014 158.014 37.4505 158.236 37.2755C158.808 37.2461 159.252 37.217 159.855 37.0418C160.712 36.8377 160.807 36.6039 160.934 35.4071C160.998 34.3853 160.998 30.7649 160.998 28.1961C160.998 24.6637 161.03 22.2698 160.998 21.1021C160.966 20.1974 160.617 19.9051 159.919 19.7298C159.379 19.6425 158.49 19.5254 157.76 19.4381C157.601 19.292 158.141 18.2992 158.332 18.1828ZM140.018 36.3413C140.781 36.8956 142.272 37.1291 143.605 37.1291C145.319 37.1291 147.033 36.8377 148.683 35.465C150.366 34.0642 151.54 31.9038 151.54 28.459C151.54 25.1597 150.175 22.4739 147.382 20.8978C145.795 19.9924 143.764 19.6134 141.415 19.6134C140.717 19.6134 140.05 19.6425 139.638 19.8174C139.542 19.876 139.321 20.1385 139.321 20.2844C139.257 20.8684 139.257 25.3641 139.257 27.9918C139.257 30.7067 139.257 34.5021 139.321 34.9399C139.321 35.378 139.542 36.0494 140.019 36.3413H140.018ZM132.814 18.1825C133.417 18.1825 135.734 18.2701 136.845 18.2701C138.845 18.2701 140.273 18.1828 144.049 18.1828C147.223 18.1828 149.889 18.9709 151.794 20.4596C154.11 22.2989 155.317 24.8389 155.317 27.9332C155.317 32.3417 153.127 34.8817 150.936 36.3413C148.747 37.8301 145.89 38.7058 141.828 38.7058C139.67 38.7058 135.956 38.6476 132.877 38.6182H132.846C132.687 38.3556 133.1 37.3338 133.353 37.3047C134.179 37.217 134.401 37.1876 134.814 37.0421C135.48 36.8083 135.607 36.4872 135.702 35.4071C135.797 33.3926 135.766 30.9696 135.766 28.2252C135.766 26.2695 135.797 22.4448 135.734 21.2186C135.639 20.1971 135.163 19.9342 134.21 19.7589C133.734 19.6716 133.1 19.5545 132.211 19.4672C132.084 19.2625 132.655 18.3578 132.814 18.1828V18.1825Z" fill="#8E714E"/>
<path fill-rule="evenodd" clip-rule="evenodd" d="M94.4106 37.4795C93.6172 37.3919 93.0459 37.2754 92.3477 36.9834C92.2525 36.9249 92.0936 36.6332 92.0936 36.5162C92.0303 35.4943 92.0303 32.575 92.0303 30.6193C92.0303 29.0426 91.7448 27.6705 91.0147 26.7072C90.1576 25.5975 88.9201 24.9556 87.3329 24.9556C85.9365 24.9556 84.0638 25.8312 82.5086 27.0574C82.477 27.0865 82.2231 27.2912 82.2548 26.9698C82.2548 26.6487 82.3184 26.0065 82.35 25.5683C82.382 25.1596 82.1279 24.9556 82.1279 24.9556C81.1122 25.4225 78.2559 26.0356 77.2083 26.1229C76.4468 26.2694 76.2563 26.9407 77.0501 27.1742H77.0817C77.9381 27.4076 78.5097 27.6705 78.9537 27.9334C79.2712 28.1669 79.2395 28.488 79.2395 28.7509C79.2712 30.9401 79.2712 34.2976 79.1763 36.1369C79.1446 36.8667 78.9224 37.1293 78.3508 37.246L78.4145 37.2169C77.9701 37.3045 77.621 37.3919 77.0814 37.4504C76.8909 37.6256 76.8909 38.5598 77.0814 38.7642C77.4305 38.7642 79.2712 38.6766 80.7951 38.6766C82.8897 38.6766 83.9689 38.7642 84.5082 38.7642C84.7304 38.5307 84.794 37.6547 84.6671 37.4504C84.0638 37.4213 83.6195 37.3631 83.2071 37.246C82.6358 37.129 82.477 36.8667 82.445 36.2536C82.382 34.706 82.382 31.4364 82.382 29.2178C82.382 28.6047 82.5722 28.3127 82.7624 28.1375C83.4926 27.5538 84.6671 27.1451 85.7144 27.1451C86.73 27.1451 87.3962 27.4371 87.9042 27.8167C88.6023 28.3418 88.8245 29.1011 88.9198 29.6557C89.0783 30.911 89.0151 33.3925 89.0151 35.5529C89.0151 36.7205 88.9198 37.0125 88.4441 37.1584C88.2216 37.246 87.6503 37.3631 86.9838 37.421C86.7616 37.6256 86.8253 38.5307 86.9838 38.7351C87.9042 38.7351 88.9834 38.6475 90.5703 38.6475C92.5379 38.6475 93.8077 38.7351 94.3157 38.7351C94.4739 38.5598 94.5375 37.7133 94.4106 37.4795ZM103.202 26.3279C101.52 26.3279 100.473 27.5247 100.473 29.3928C100.473 31.2906 101.393 33.4801 103.996 33.4801C104.44 33.4801 105.265 33.3048 105.646 32.8961C106.249 32.371 106.662 31.3197 106.662 30.2102C106.662 27.7873 105.36 26.3276 103.202 26.3276V26.3279ZM102.98 39.2311C102.345 39.2311 101.901 39.4064 101.615 39.5526C100.282 40.3403 99.6793 41.0996 99.6793 42.005C99.6793 42.8512 100.028 43.5225 100.79 44.1065C101.711 44.8363 102.98 45.1869 104.598 45.1869C107.836 45.1869 109.264 43.581 109.264 42.005C109.264 40.8952 108.661 40.1653 107.424 39.7569C106.535 39.4064 104.916 39.2311 102.98 39.2311ZM103.202 46.8218C101.266 46.8218 99.8695 46.4422 98.6636 45.5956C97.4891 44.7781 96.9815 43.5519 96.9815 42.7054C96.9815 42.4719 97.0451 41.8294 97.6164 41.2457C97.9651 40.8952 98.7273 40.2239 100.536 39.0853C100.6 39.0562 100.631 39.0271 100.631 38.9683C100.631 38.91 100.568 38.8515 100.504 38.8227C99.0127 38.2973 98.5684 37.4504 98.4411 36.9834V36.9249C98.4098 36.7497 98.3462 36.5747 98.632 36.3994C98.8542 36.2536 99.1716 36.0783 99.5204 35.8743C100.06 35.582 100.631 35.2609 100.98 34.998C101.044 34.9398 101.044 34.8816 101.044 34.823C101.044 34.7645 100.98 34.706 100.917 34.6772C98.6956 34.0056 97.5847 32.4874 97.5847 30.2102C97.5847 28.7215 98.3146 27.3785 99.6156 26.532C100.504 25.8898 102.726 25.1014 104.186 25.1014H104.281C105.773 25.1305 106.598 25.4225 107.772 25.8021C108.407 26.0065 109.01 26.0938 109.836 26.0938C111.073 26.0938 111.613 25.7436 112.057 25.3352C112.089 25.3934 112.153 25.5396 112.184 25.9189C112.216 26.2985 112.089 26.8531 111.771 27.2618C111.518 27.5829 110.946 27.8167 110.375 27.8167H110.216C109.645 27.7582 109.391 27.6996 109.391 27.6996L109.264 27.7582C109.233 27.8167 109.264 27.8749 109.296 27.9625L109.328 28.0211C109.391 28.2836 109.518 29.0717 109.518 29.2764C109.518 31.6702 108.471 32.7209 107.36 33.5092C106.281 34.239 105.043 34.706 103.646 34.823C103.615 34.823 103.488 34.823 103.202 34.8521C103.044 34.8521 102.821 34.8816 102.789 34.8816H102.758C102.504 34.9398 101.869 35.2318 101.869 35.7278C101.869 36.1657 102.155 36.6914 103.52 36.7791C103.805 36.8082 104.091 36.8082 104.408 36.8376C106.217 36.954 108.471 37.1002 109.518 37.4213C110.978 37.9173 111.898 39.1144 111.898 40.545C111.898 42.7057 110.217 44.7199 107.424 45.9749C106.059 46.5298 104.694 46.8218 103.202 46.8218ZM121.293 26.4738C120.627 26.4738 120.023 26.6193 119.579 26.9113C118.342 27.612 117.707 29.0135 117.707 31.0568C117.707 34.8816 119.801 37.5674 122.785 37.5674C123.673 37.5674 124.372 37.3336 124.975 36.8667C125.895 36.1657 126.371 34.7645 126.371 32.8085C126.371 29.0135 124.308 26.4734 121.293 26.4734L121.293 26.4738ZM121.864 38.9686C116.469 38.9686 114.533 35.3194 114.533 31.9037C114.533 29.5098 115.58 27.6705 117.675 26.3567C119.167 25.5101 120.944 25.0432 122.531 25.0432C126.657 25.0432 129.545 27.7582 129.545 31.6702C129.545 34.3267 128.403 36.4285 126.212 37.7133C125.165 38.3555 123.356 38.9686 121.864 38.9686H121.864ZM65.3066 26.4734C64.6401 26.4734 64.0372 26.6193 63.5925 26.9113C62.355 27.612 61.7201 29.0135 61.7201 31.0568C61.7201 34.8816 63.8147 37.5674 66.7982 37.5674C67.687 37.5674 68.3851 37.3336 68.9884 36.8667C69.9084 36.1657 70.3847 34.7645 70.3847 32.8085C70.3847 29.0135 68.3535 26.4734 65.3066 26.4734ZM65.8779 38.9686C60.4823 38.9686 58.5463 35.3194 58.5463 31.9037C58.5463 29.5098 59.5936 27.6705 61.6881 26.3567C63.1801 25.5101 64.9575 25.0432 66.5444 25.0432C70.6705 25.0432 73.5585 27.7582 73.5585 31.6702C73.5585 34.3267 72.416 36.4285 70.2258 37.7133C69.2102 38.3555 67.4012 38.9686 65.8779 38.9686ZM29.6009 38.6766C29.5373 38.5893 29.4737 38.3264 29.5056 38.0053C29.5056 37.7715 29.5693 37.6256 29.6009 37.5674C30.2674 37.4795 30.6165 37.3919 30.9973 37.3045C31.6322 37.1584 31.886 36.8376 31.9176 36.1078C32.0132 34.3561 32.0132 31.0277 31.9812 28.7215V28.6629C31.9812 28.4004 31.9812 28.079 31.6322 27.8455C31.1242 27.5538 30.5213 27.2912 29.7278 27.0862C29.4424 26.9992 29.2518 26.8531 29.2835 26.6781C29.2835 26.5029 29.474 26.2985 29.8867 26.24C30.934 26.1523 33.6631 25.5396 34.7423 25.1014C34.8059 25.1596 34.9012 25.3352 34.9012 25.5687L34.8696 25.8895C34.8376 26.2109 34.8059 26.5905 34.8059 26.9698C34.8059 27.0865 34.9332 27.1742 35.0598 27.1742C35.1234 27.1742 35.187 27.1451 35.2503 27.1156C37.2815 25.656 39.1222 25.1305 40.0742 25.1305C41.6298 25.1305 42.836 25.8021 43.7563 27.2033C43.8196 27.2912 43.8833 27.3203 43.9785 27.3203C44.0418 27.3203 44.1367 27.2912 44.1687 27.2327C46.0414 25.9189 47.9141 25.1305 49.1516 25.1305C52.1032 25.1305 53.849 27.1451 53.849 30.5608C53.849 31.5241 53.849 32.7794 53.8173 33.9183C53.8173 34.9398 53.7857 35.874 53.7857 36.5456C53.7857 36.6911 54.0075 37.1584 54.3566 37.246C54.801 37.4504 55.4042 37.538 56.1976 37.6547H56.2293C56.2929 37.8591 56.166 38.618 56.0391 38.7642C55.8486 38.7642 55.5628 38.7642 55.2457 38.7351C54.4422 38.6965 53.6379 38.677 52.8333 38.6766C50.8657 38.6766 49.8501 38.7057 48.8658 38.7642C48.8028 38.5307 48.7708 37.83 48.8658 37.6547C49.4374 37.5674 49.7228 37.4795 50.0723 37.3922C50.7072 37.2169 50.8657 36.954 50.8977 36.1951C50.8977 35.6405 51.0243 30.911 50.8337 29.7724C50.6435 28.6047 49.6912 27.2327 47.5963 27.2327C46.8029 27.2327 45.5654 27.5247 44.3593 28.371C44.296 28.4295 44.232 28.5753 44.232 28.6629V28.6924C44.3593 29.3052 44.3593 30.0062 44.3593 31.0862V32.9837C44.3593 34.2976 44.3273 35.5238 44.3593 36.4577C44.3593 37.1002 44.772 37.246 45.1211 37.3631C45.3116 37.3919 45.4382 37.4213 45.5971 37.4504C45.8825 37.5089 46.1683 37.5674 46.6127 37.6547C46.6763 37.7718 46.6763 38.1511 46.581 38.4722C46.5491 38.6475 46.4854 38.7348 46.4538 38.7642C45.3749 38.7351 44.264 38.7057 42.6455 38.7057C42.1695 38.7057 41.344 38.7351 40.6459 38.7351C40.0742 38.7351 39.535 38.7642 39.2179 38.7642C39.1859 38.7057 39.1222 38.5016 39.1222 38.1802C39.1222 37.9176 39.1859 37.7133 39.2495 37.6547C39.4081 37.6256 39.535 37.5965 39.6939 37.5965C40.0742 37.538 40.392 37.4795 40.7091 37.4213C41.2491 37.2754 41.4393 37.0125 41.4709 36.3703C41.5662 34.9107 41.6615 30.736 41.4393 29.6848C41.0586 27.9916 40.0113 27.1451 38.3288 27.1451C37.3452 27.1451 36.107 27.5829 35.0917 28.284C34.9328 28.4004 34.8059 28.6921 34.8059 28.9549V30.6775C34.8059 32.7794 34.8059 35.407 34.8376 36.5456C34.8696 36.8955 34.9961 37.3045 35.7263 37.4504C35.8852 37.4795 36.139 37.538 36.4564 37.5674L37.0274 37.6547C37.0913 37.83 37.0594 38.5307 36.9324 38.7642C36.615 38.7642 36.2343 38.7351 35.7896 38.7351C35.1234 38.7057 34.2663 38.6766 33.3143 38.6766C32.2034 38.6766 31.41 38.7057 30.7751 38.7351C30.3307 38.6766 29.9816 38.6766 29.6009 38.6766Z" fill="#442D22"/>
<path fill-rule="evenodd" clip-rule="evenodd" d="M12.906 45.6833L11.6049 45.2742C11.6049 45.2742 11.7638 39.173 9.38316 38.7351C7.79662 37.0417 9.63767 -33.0818 15.3503 38.5013C15.3503 38.5013 13.3824 39.4061 13.0333 40.9537C12.6522 42.4719 12.906 45.6833 12.906 45.6833Z" fill="white"/>
<path fill-rule="evenodd" clip-rule="evenodd" d="M12.906 45.6833L11.6049 45.2742C11.6049 45.2742 11.7638 39.173 9.38316 38.7351C7.79662 37.0417 9.63767 -33.0818 15.3503 38.5013C15.3503 38.5013 13.3824 39.4061 13.0333 40.9537C12.6522 42.4719 12.906 45.6833 12.906 45.6833Z" fill="#A6A385"/>
<path fill-rule="evenodd" clip-rule="evenodd" d="M13.605 39.786C13.605 39.786 24.9994 32.896 22.3329 18.5616C19.7624 8.13989 13.7003 4.72419 13.0338 3.41037C12.304 2.47617 11.6054 0.841553 11.6054 0.841553L12.0818 29.8305C12.0818 29.86 11.0978 38.7056 13.6054 39.7863" fill="white"/>
<path fill-rule="evenodd" clip-rule="evenodd" d="M13.605 39.786C13.605 39.786 24.9994 32.896 22.3329 18.5616C19.7624 8.13989 13.7003 4.72419 13.0338 3.41037C12.304 2.47617 11.6054 0.841553 11.6054 0.841553L12.0818 29.8305C12.0818 29.86 11.0978 38.7056 13.6054 39.7863" fill="#499D4A"/>
<path fill-rule="evenodd" clip-rule="evenodd" d="M10.939 40.1645C10.939 40.1645 0.242756 33.4499 0.877649 21.6267C1.48056 9.80318 9.03428 3.99361 10.4943 2.94268C11.4466 2.00848 11.4782 1.65796 11.5419 0.723755C12.2084 2.03758 12.0815 20.3714 12.1764 22.5315C12.4619 30.8516 11.6688 38.5885 10.939 40.1645Z" fill="white"/>
<path fill-rule="evenodd" clip-rule="evenodd" d="M10.939 40.1645C10.939 40.1645 0.242756 33.4499 0.877649 21.6267C1.48056 9.80318 9.03428 3.99361 10.4943 2.94268C11.4466 2.00848 11.4782 1.65796 11.5419 0.723755C12.2084 2.03758 12.0815 20.3714 12.1764 22.5315C12.4619 30.8516 11.6688 38.5885 10.939 40.1645Z" fill="#58AA50"/>
</svg>
