<svg width="59" height="58" viewBox="0 0 59 58" fill="none" xmlns="http://www.w3.org/2000/svg">
<path d="M39.8817 13.6544C39.6003 13.6544 39.4126 13.6923 39.2232 13.7392V13.7681H39.2521C39.3838 14.0116 39.6003 14.2011 39.7681 14.4266C39.8998 14.681 40.0116 14.9426 40.1343 15.197L40.1722 15.1591C40.3977 14.9986 40.5114 14.746 40.5114 14.3599C40.4176 14.2462 40.3977 14.1253 40.3147 14.0207C40.2209 13.8601 40.0134 13.7771 39.8817 13.6544ZM14.2943 45.396H12.0679C12.0005 41.8523 11.7844 38.3129 11.4202 34.7872H11.4021L8.01019 45.396H6.30881L2.94394 34.7872H2.91507C2.65358 38.3181 2.49715 41.8559 2.44598 45.396H0.416229C0.526135 40.9471 0.855505 36.5064 1.40314 32.0899H4.1654L7.37871 41.8634H7.39676L10.6389 32.0899H13.2695C13.8523 36.9397 14.2005 41.3744 14.3033 45.396H14.2943ZM23.9541 35.5775C23.052 40.5012 21.8486 44.0826 20.3745 46.309C19.209 48.0284 17.9406 48.8926 16.5586 48.8926C16.1923 48.8926 15.7413 48.779 15.1964 48.5534V47.3699C15.4688 47.4078 15.7792 47.4348 16.1274 47.4348C16.7751 47.4348 17.2929 47.2472 17.688 46.899C18.1571 46.466 18.3935 45.9788 18.3935 45.443C18.3935 45.0677 18.2149 44.3153 17.8396 43.1696L15.4057 35.5775H17.596L19.3443 41.2536C19.7394 42.5508 19.909 43.4439 19.8332 43.9599C20.8003 41.4033 21.4679 38.6032 21.8449 35.5775H23.9541ZM53.61 45.396H47.2772V32.0899H49.4098V43.7614H53.61V45.396ZM45.6228 45.7172L43.1798 44.5138C43.3964 44.3352 43.602 44.1385 43.7915 43.913C44.8343 42.7005 45.3521 40.8873 45.3521 38.5003C45.3521 34.0926 43.6237 31.8951 40.165 31.8951C38.4726 31.8951 37.1483 32.449 36.1993 33.5676C35.1655 34.789 34.6387 36.5933 34.6387 38.9712C34.6387 41.3113 35.0988 43.0217 36.0207 44.1205C36.8669 45.0984 38.1353 45.5963 39.8366 45.5963C40.4663 45.5963 41.0491 45.5205 41.5759 45.3618L44.7621 47.2219L45.6354 45.719L45.6228 45.7172ZM37.7022 42.7276C37.1574 41.8634 36.8939 40.4723 36.8939 38.5544C36.8939 35.2004 37.9097 33.5279 39.9485 33.5279C41.0112 33.5279 41.7996 33.932 42.2976 34.7313C42.8334 35.6045 43.1059 36.9776 43.1059 38.8756C43.1059 42.2495 42.0811 43.9509 40.0513 43.9509C38.9796 43.9509 38.2002 43.5467 37.6932 42.7475L37.7022 42.7276ZM33.7167 41.7136C33.7167 42.8413 33.3035 43.7723 32.4664 44.4849C31.6401 45.2084 30.5395 45.5747 29.1394 45.5747C27.8332 45.5747 26.5828 45.1615 25.3524 44.3334L25.9261 43.1877C26.978 43.7145 27.927 43.9779 28.793 43.9779C29.5923 43.9779 30.2219 43.7993 30.673 43.4511C31.1241 43.0939 31.3965 42.5959 31.3965 41.9662C31.3965 41.176 30.8426 40.4994 29.8358 39.9365C28.9049 39.4205 27.0357 38.3578 27.0357 38.3578C26.0199 37.6163 25.5219 36.826 25.5219 35.5198C25.5219 34.439 25.8972 33.5748 26.6496 32.9163C27.411 32.2397 28.378 31.9113 29.5814 31.9113C30.7787 31.9009 31.9524 32.2442 32.9553 32.8982L32.4393 34.0439C31.6332 33.6889 30.7636 33.5005 29.8827 33.49C29.1971 33.49 28.6703 33.6596 28.3041 33.988C27.9378 34.3163 27.7123 34.7295 27.7123 35.2473C27.7123 36.0376 28.277 36.7141 29.309 37.2951C30.258 37.8111 32.1651 38.9027 32.1651 38.9027C33.2079 39.6352 33.7257 40.4254 33.7257 41.7118L33.7167 41.7136ZM56.2803 27.6281C54.9921 27.5992 53.9961 27.7309 53.1608 28.0882C52.9262 28.182 52.5401 28.182 52.5023 28.4833C52.634 28.615 52.652 28.8225 52.7657 28.9993C52.9623 29.3186 53.2925 29.7517 53.6028 29.9772C53.942 30.2406 54.2794 30.504 54.6276 30.7295C55.2573 31.1156 55.9627 31.3412 56.5816 31.7255C56.9298 31.951 57.287 32.2415 57.6335 32.4778C57.8121 32.6005 57.9239 32.817 58.1495 32.891V32.8441C58.0358 32.7034 58.0087 32.4959 57.8951 32.3281C57.7345 32.1675 57.5757 32.0268 57.4151 31.868C56.9446 31.2433 56.3805 30.695 55.7426 30.2424C55.2266 29.8942 54.099 29.4052 53.8915 28.8135L53.8626 28.7756C54.2108 28.7467 54.624 28.615 54.9614 28.5212C55.5063 28.3805 56.0133 28.4075 56.578 28.2668C56.837 28.1996 57.094 28.1243 57.3484 28.0413V27.9005C57.0579 27.6101 56.8414 27.2149 56.5401 26.9425C55.7098 26.216 54.8236 25.556 53.8897 24.9687C53.3827 24.6403 52.744 24.4328 52.2082 24.1604C52.0205 24.0666 51.6922 24.0197 51.5875 23.8591C51.297 23.5018 51.1274 23.0418 50.92 22.6178C50.448 21.7005 50.0093 20.7665 49.6047 19.8176C49.3142 19.188 49.1446 18.5673 48.7874 17.9845C47.1329 15.2493 45.3287 13.5967 42.5664 11.9711C41.9746 11.6319 41.2602 11.4911 40.5078 11.3125C40.1037 11.2945 39.7085 11.2656 39.3044 11.2476C39.041 11.1339 38.7884 10.8344 38.5628 10.6829C37.6427 10.1001 35.2738 8.84977 34.6062 10.5042C34.1732 11.5561 35.2449 12.5809 35.622 13.1077C35.8944 13.483 36.2426 13.898 36.4393 14.3111C36.5529 14.5926 36.58 14.8849 36.6937 15.1754C36.9481 15.8808 37.1916 16.6693 37.5308 17.3278C37.7095 17.667 37.8971 18.0224 38.1226 18.3237C38.2543 18.5023 38.4799 18.5781 38.5268 18.8686C38.3012 19.197 38.2832 19.6769 38.1605 20.072C37.5777 21.8943 37.8033 24.1405 38.6206 25.4847C38.884 25.8888 39.4938 26.7729 40.3129 26.4337C41.0364 26.1432 40.8777 25.2303 41.0833 24.422C41.1303 24.2253 41.1014 24.1026 41.197 23.9709V24.0088C41.4316 24.4599 41.6571 24.8929 41.8646 25.3439C42.3535 26.1342 43.2268 26.9515 43.9502 27.4964C44.3364 27.7869 44.6359 28.2866 45.1158 28.4634V28.4165H45.0779C44.975 28.2758 44.8433 28.2091 44.7116 28.0972C44.4069 27.7954 44.1242 27.4722 43.8655 27.1301C43.1979 26.228 42.5971 25.2321 42.0703 24.2073C41.8165 23.7009 41.5847 23.1839 41.3756 22.6575C41.2818 22.4698 41.2818 22.1775 41.1212 22.0837C40.8777 22.4319 40.5204 22.7314 40.3508 23.1735C40.0405 23.8591 40.0116 24.7143 39.8908 25.5983C39.8348 25.6164 39.8619 25.5983 39.8348 25.6362C39.3188 25.5045 39.1402 24.9777 38.9508 24.5266C38.4618 23.381 38.386 21.5479 38.801 20.2326C38.9147 19.8934 39.3928 18.8325 39.2052 18.5132C39.1023 18.2028 38.783 18.0242 38.6134 17.7807C38.3969 17.4794 38.1804 17.0951 38.0306 16.7559C37.6445 15.8538 37.4569 14.8578 37.0347 13.9557C36.847 13.5425 36.5078 13.1095 36.2354 12.7252C35.9251 12.2922 35.5877 11.9837 35.3513 11.4749C35.2665 11.2963 35.1547 11.0058 35.2864 10.8164C35.3153 10.6847 35.3802 10.6378 35.5119 10.5999C35.7194 10.4212 36.3202 10.6468 36.5277 10.7496C37.1195 10.9842 37.6174 11.2097 38.1154 11.5489C38.3409 11.7095 38.5845 12.009 38.8768 12.0938H39.216C39.732 12.2074 40.3057 12.1226 40.7856 12.2724C41.6409 12.5448 42.4113 12.9399 43.1059 13.3711C45.2301 14.7348 46.9576 16.634 48.1144 18.8776C48.3111 19.2439 48.3959 19.5831 48.5745 19.9674C48.9028 20.7666 49.3268 21.5641 49.6642 22.3255C50.0016 23.0869 50.3228 23.8573 50.8099 24.4869C51.0535 24.8261 52.0133 25.003 52.4535 25.1725C52.7729 25.3223 53.2709 25.454 53.5523 25.6236C54.1062 25.9628 54.6511 26.3471 55.1689 26.7224C55.4323 26.901 56.2316 27.3051 56.2785 27.6245L56.2803 27.6281Z" fill="black"/>
</svg>
