<svg width="122" height="122" viewBox="0 0 122 122" fill="none" xmlns="http://www.w3.org/2000/svg">
<path d="M121.818 88.1111C121.818 95.5972 115.748 101.667 108.262 101.667H26.929C19.4429 101.667 13.3734 95.5972 13.3734 88.1111V21.3941C13.3734 13.908 32.9985 0 40.4845 0H103.603C114.088 0 121.818 7.83511 121.818 18.2153V88.1111Z" fill="#F4900C"/>
<path d="M115.04 101.666C115.04 109.153 108.971 115.222 101.484 115.222H33.7067C26.2206 115.222 20.1511 109.153 20.1511 101.666V20.3331C20.1511 6.37429 20.08 6.77757 37.0956 6.77757H101.484C108.971 6.77757 115.04 12.8471 115.04 20.3331V101.666Z" fill="#CCD6DD"/>
<path d="M108.262 105.056C108.262 110.671 103.711 115.222 98.0956 115.222H23.5401C17.9247 115.222 13.3734 110.671 13.3734 105.056V23.7223C13.3734 18.1069 17.9247 13.5557 23.5401 13.5557H98.0956C103.711 13.5557 108.262 18.1069 108.262 23.7223V105.056Z" fill="#E1E8ED"/>
<path d="M108.262 108.445C108.262 115.931 102.193 122 94.7067 122H30.3178C22.8317 122 16.7622 115.931 16.7622 108.445V33.8891C16.7622 26.403 22.8317 20.3335 30.3178 20.3335H94.7067C102.193 20.3335 108.262 26.403 108.262 33.8891V108.445Z" fill="#FFAC33"/>
<path d="M101.484 108.445C101.484 115.931 95.4149 122 87.9289 122H30.3178C22.8317 122 16.7622 115.931 16.7622 108.445V40.6669C16.7622 33.1808 22.8317 27.1113 30.3178 27.1113H89.0641C96.5502 27.1113 101.484 32.0455 101.484 39.5316V108.445Z" fill="#FFCC4D"/>
<path d="M30.3179 20.3333C24.5974 20.3333 24.4517 13.8199 26.929 11.0139C29.7485 7.82494 34.1304 6.77778 41.9689 6.77778H47.2623V0H38.0479C24.5974 0 13.3734 8.47222 13.3734 18.2153V108.444C13.3734 115.93 19.4429 122 26.929 122H33.7067V20.3333H30.3179Z" fill="#F4900C"/>
<path d="M28.7657 111.762C28.7657 114.141 26.5053 116.07 23.7162 116.07C20.9306 116.07 18.6702 114.141 18.6702 111.762C18.6702 109.387 20.9306 107.455 23.7162 107.455C26.5053 107.455 28.7657 109.383 28.7657 111.762Z" fill="#662113"/>
<path d="M23.1808 109.363C21.5542 109.549 20.4968 110.633 19.7343 111.833C18.694 113.477 16.3217 115.222 13.3734 115.222C9.63207 115.222 6.59562 112.948 6.59562 110.139C6.59562 107.329 9.63207 105.055 13.3734 105.055V98.291C6.02968 98.3622 0.0991211 103.629 0.0991211 110.139C0.0991211 116.693 6.10423 122 13.5123 122C19.7953 122 24.855 118.458 26.7324 113.294C27.6711 110.721 25.143 109.146 23.1808 109.363Z" fill="#66757F"/>
<path d="M28.7657 84.651C28.7657 87.03 26.5053 88.9583 23.7162 88.9583C20.9306 88.9583 18.6702 87.03 18.6702 84.651C18.6702 82.2754 20.9306 80.3438 23.7162 80.3438C26.5053 80.3438 28.7657 82.272 28.7657 84.651Z" fill="#662113"/>
<path d="M23.1808 82.2512C21.5542 82.4376 20.4968 83.522 19.7343 84.7217C18.694 86.3653 16.3217 88.1106 13.3734 88.1106C9.63207 88.1106 6.59562 85.8366 6.59562 83.0272C6.59562 80.2179 9.63207 77.9439 13.3734 77.9439V71.1797C6.02968 71.2509 0.0991211 76.5172 0.0991211 83.0272C0.0991211 89.5814 6.10423 94.8884 13.5123 94.8884C19.7953 94.8884 24.855 91.347 26.7324 86.1823C27.6711 83.6101 25.143 82.0343 23.1808 82.2512Z" fill="#66757F"/>
<path d="M28.7657 57.5402C28.7657 59.9192 26.5053 61.8475 23.7162 61.8475C20.9306 61.8475 18.6702 59.9192 18.6702 57.5402C18.6702 55.1646 20.9306 53.2329 23.7162 53.2329C26.5053 53.2329 28.7657 55.1612 28.7657 57.5402Z" fill="#662113"/>
<path d="M23.1808 55.1403C21.5542 55.3267 20.4968 56.4112 19.7343 57.6108C18.694 59.2545 16.3217 60.9997 13.3734 60.9997C9.63207 60.9997 6.59562 58.7258 6.59562 55.9164C6.59562 53.107 9.63207 50.8331 13.3734 50.8331V44.0688C6.02968 44.14 0.0991211 49.4063 0.0991211 55.9164C0.0991211 62.4705 6.10423 67.7775 13.5123 67.7775C19.7953 67.7775 24.855 64.2361 26.7324 59.0715C27.6711 56.4993 25.143 54.9235 23.1808 55.1403Z" fill="#66757F"/>
<path d="M28.7657 30.4289C28.7657 32.8079 26.5053 34.7361 23.7162 34.7361C20.9306 34.7361 18.6702 32.8079 18.6702 30.4289C18.6702 28.0532 20.9306 26.1216 23.7162 26.1216C26.5053 26.1216 28.7657 28.0499 28.7657 30.4289Z" fill="#662113"/>
<path d="M23.1808 28.029C21.5542 28.2154 20.4968 29.2999 19.7343 30.4995C18.694 32.1431 16.3217 33.8884 13.3734 33.8884C9.63207 33.8884 6.59562 31.6145 6.59562 28.8051C6.59562 25.9957 9.63207 23.7217 13.3734 23.7217V16.9575C6.03307 17.0253 0.0991211 22.295 0.0991211 28.8051C0.0991211 35.3592 6.10423 40.6662 13.5123 40.6662C19.7953 40.6662 24.855 37.1248 26.7324 31.9601C27.6711 29.388 25.143 27.8121 23.1808 28.029Z" fill="#66757F"/>
</svg>
