<svg width="130" height="113" viewBox="0 0 130 113" fill="none" xmlns="http://www.w3.org/2000/svg">
<path d="M65 0.714355C29.1019 0.714355 0 25.6599 0 56.4266C0 60.276 0.455 64.0352 1.32528 67.6644C7.74944 78.718 12.1947 71.7413 32.5 61.5869C53.1808 51.2446 32.5 76.0313 25.2778 90.4757C23.0569 94.9174 24.2594 98.6766 27.3 101.757C37.9383 108.271 50.9311 112.142 65 112.142C100.898 112.142 130 87.2005 130 56.4266C130 25.6599 100.898 0.714355 65 0.714355V0.714355ZM75.2881 88.9952C73.8617 93.8557 66.4047 95.943 58.63 93.6571C50.8553 91.3749 45.7094 85.5899 47.1358 80.7257C48.5622 75.8652 56.0192 73.778 63.7939 76.0674C71.5686 78.346 76.7144 84.131 75.2881 88.9952V88.9952Z" fill="#D99E82"/>
<path d="M36.1112 39.9201C42.0942 39.9201 46.9445 35.0698 46.9445 29.0868C46.9445 23.1037 42.0942 18.2534 36.1112 18.2534C30.1281 18.2534 25.2778 23.1037 25.2778 29.0868C25.2778 35.0698 30.1281 39.9201 36.1112 39.9201Z" fill="#5C913B"/>
<path d="M72.2222 32.6979C78.2053 32.6979 83.0556 27.8477 83.0556 21.8646C83.0556 15.8815 78.2053 11.0312 72.2222 11.0312C66.2392 11.0312 61.3889 15.8815 61.3889 21.8646C61.3889 27.8477 66.2392 32.6979 72.2222 32.6979Z" fill="#226699"/>
<path d="M104.722 54.3644C110.705 54.3644 115.556 49.5142 115.556 43.5311C115.556 37.548 110.705 32.6978 104.722 32.6978C98.7392 32.6978 93.8889 37.548 93.8889 43.5311C93.8889 49.5142 98.7392 54.3644 104.722 54.3644Z" fill="#DD2E44"/>
<path d="M101.111 86.8644C107.094 86.8644 111.944 82.0142 111.944 76.0311C111.944 70.048 107.094 65.1978 101.111 65.1978C95.1281 65.1978 90.2778 70.048 90.2778 76.0311C90.2778 82.0142 95.1281 86.8644 101.111 86.8644Z" fill="#FFCC4D"/>
</svg>
