<svg width="136" height="136" viewBox="0 0 136 136" fill="none" xmlns="http://www.w3.org/2000/svg">
<path d="M90.6667 37.7778C90.6667 41.9484 87.2818 45.3333 83.1111 45.3333H52.8889C48.7182 45.3333 45.3333 41.9484 45.3333 37.7778V7.55556C45.3333 3.38489 48.7182 0 52.8889 0H83.1111C87.2818 0 90.6667 3.38489 90.6667 7.55556V37.7778ZM0 52.8889V128.444C0 132.615 3.38489 136 7.55556 136H128.444C132.615 136 136 132.615 136 128.444V52.8889H0Z" fill="#CCD6DD"/>
<path d="M68 45.3335H7.55556C3.38489 45.3335 0 48.7184 0 52.8891H75.5556C75.5556 48.7184 72.1707 45.3335 68 45.3335Z" fill="#99AAB5"/>
<path d="M128.444 45.3335H67.9999C63.8292 45.3335 60.4443 48.7184 60.4443 52.8891H136C136 48.7184 132.615 45.3335 128.444 45.3335Z" fill="#99AAB5"/>
<path d="M7.55566 83.111H128.445V98.2221H7.55566V83.111ZM7.55566 60.4443H128.445V75.5554H7.55566V60.4443ZM7.55566 105.778H128.445V120.889H7.55566V105.778Z" fill="#55ACEE"/>
<path d="M30.2222 45.3335H105.778V136H30.2222V45.3335Z" fill="#E1E8ED"/>
<path d="M37.7778 75.5553H98.2223V90.6664H37.7778V75.5553ZM37.7778 52.8887H98.2223V67.9998H37.7778V52.8887ZM37.7778 98.222H98.2223V113.333H37.7778V98.222Z" fill="#55ACEE"/>
<path d="M49.1113 120.889H86.8891V136H49.1113V120.889Z" fill="#3B88C3"/>
<path d="M83.1109 15.1112H71.7776V3.77783H64.222V15.1112H52.8887V22.6667H64.222V34.0001H71.7776V22.6667H83.1109V15.1112Z" fill="#DD2E44"/>
<path d="M98.2222 37.7778H37.7777C33.6071 37.7778 30.2222 41.1627 30.2222 45.3334H105.778C105.778 41.1627 102.393 37.7778 98.2222 37.7778Z" fill="#99AAB5"/>
</svg>
