<svg width="102" height="119" viewBox="0 0 102 119" fill="none" xmlns="http://www.w3.org/2000/svg">
<path d="M102 118.466V111.18C102 99.1075 92.2189 89.3228 80.1429 89.3228H21.8571C9.78836 89.3228 0 99.1075 0 111.18V118.466H102Z" fill="#226798"/>
<path d="M31.5727 118.466H44.4429L32.7857 89.3228H25.5L21.8572 111.18L32.7857 114.823L31.5727 118.466ZM70.4274 118.466H57.5572L69.2143 89.3228H76.5L80.1429 111.18L69.2143 114.823L70.4274 118.466Z" fill="#3A87C2"/>
<path d="M35.1172 89.691C41.4703 94.3102 45.5248 97.0933 51.0365 97.0933C56.5445 97.0933 60.5298 94.3029 66.8829 89.691V75.8081H35.1172V89.691Z" fill="#F6DDCD"/>
<path d="M35.088 81.9386C39.5177 86.9439 45.0111 88.2991 50.9854 88.2991C56.9561 88.2991 62.4495 86.9403 66.8792 81.9386V69.2214H35.0844V81.9386H35.088Z" fill="#ECC0AC"/>
<path d="M27.1211 45.3755C27.1211 50.6504 24.4472 54.9271 21.1505 54.9271C17.8537 54.9271 15.1798 50.6504 15.1798 45.3755C15.1798 40.1007 17.8537 35.8203 21.1505 35.8203C24.4472 35.8203 27.1211 40.097 27.1211 45.3755ZM86.8202 45.3755C86.8202 50.6504 84.15 54.9271 80.8496 54.9271C77.5528 54.9271 74.879 50.6504 74.879 45.3755C74.879 40.1007 77.5492 35.8203 80.8496 35.8203C84.15 35.8203 86.8202 40.097 86.8202 45.3755Z" fill="#F6DDCD"/>
<path d="M19.9557 49.1062C19.9557 28.7462 33.8568 12.2368 51.0038 12.2368C68.1507 12.2368 82.0518 28.7462 82.0518 49.1062C82.0518 69.4661 68.1507 85.9755 51.0038 85.9755C33.8568 85.9719 19.9557 69.4661 19.9557 49.1062" fill="#F6DDCD"/>
<path d="M51 74.0303C40.9675 74.0303 37.8857 71.4621 37.372 70.9412C36.4395 70.0086 36.4395 68.4968 37.372 67.5642C38.2755 66.6608 39.7253 66.6353 40.6579 67.4805C40.8473 67.6152 43.2844 69.2545 51 69.2545C59.0142 69.2545 61.3311 67.4877 61.353 67.4695C62.2855 66.5406 63.7463 66.5843 64.6789 67.5242C65.6115 68.4567 65.5605 70.0122 64.6279 70.9412C64.1142 71.4621 61.0324 74.0303 51 74.0303ZM53.7321 59.2695H48.2678C46.7633 59.2695 45.5357 58.0418 45.5357 56.5373C45.5357 55.0328 46.7633 53.8052 48.2678 53.8052H53.7321C55.2366 53.8052 56.4642 55.0328 56.4642 56.5373C56.4642 58.0418 55.2366 59.2695 53.7321 59.2695Z" fill="#C1694F"/>
<path d="M65.5715 49.2516C63.5679 49.2516 61.9286 47.6123 61.9286 45.6087V41.9659C61.9286 39.9623 63.5679 38.323 65.5715 38.323C67.5751 38.323 69.2143 39.9623 69.2143 41.9659V45.6087C69.2143 47.6123 67.5751 49.2516 65.5715 49.2516ZM36.4286 49.2516C34.4251 49.2516 32.7858 47.6123 32.7858 45.6087V41.9659C32.7858 39.9623 34.4251 38.323 36.4286 38.323C38.4322 38.323 40.0715 39.9623 40.0715 41.9659V45.6087C40.0715 47.6123 38.4322 49.2516 36.4286 49.2516Z" fill="#662213"/>
<path d="M51 0C71.5748 0 84.4341 15.1834 84.4341 27.8351C84.4341 40.4867 81.8622 45.5503 79.2904 40.4867L74.1467 30.3669C74.1467 30.3669 58.7192 30.3669 53.5755 25.3033C53.5755 25.3033 61.291 40.4867 45.8599 25.3033C45.8599 25.3033 48.4317 35.4268 33.0006 22.7751C33.0006 22.7751 25.285 27.8351 22.7132 40.4867C21.9992 43.9984 17.5695 40.4867 17.5695 27.8351C17.5658 15.1834 27.8532 0 51 0Z" fill="#292F33"/>
<path d="M45.3937 118.466H58.2857L65.5714 103.894L51.0364 97.0933L36.4286 103.894L43.7143 118.466H45.3937Z" fill="#CCD6DC"/>
<path d="M51.113 111.024C53.8233 111.024 55.652 114.758 56.8031 118.466H58.8031C57.3678 113.869 55.7394 109.585 55.7394 109.585C55.7394 109.585 57.1055 107.308 57.6738 106.284C58.3441 105.082 59.324 100.565 59.324 100.565L51.3534 97.0569C51.3534 97.035 50.7706 97.0788 50.7706 97.0788L50.1003 97.2354L49.4737 97.4613C48.6832 97.7163 49.8161 97.4904 49.8161 97.5123L42.6288 100.565C42.6288 100.565 43.6743 105.082 44.3373 106.284C44.9056 107.308 46.2644 109.585 46.2644 109.585C46.2644 109.585 44.6979 113.614 43.361 118.466H45.3974C46.5594 114.758 48.4064 111.024 51.113 111.024Z" fill="#9F1D22"/>
<path d="M51.1132 111.023C48.4029 111.023 46.5596 114.757 45.3939 118.466H56.8033C55.6522 114.757 53.8235 111.023 51.1132 111.023ZM51.0148 99.5701C52.4392 99.4864 56.6358 102.379 56.195 104.124C54.5156 110.776 53.1058 109.191 51.1278 109.191C48.902 109.191 47.6197 110.914 46.0606 104.411C45.7291 102.998 48.9639 99.6831 51.0148 99.5701Z" fill="#DD2F45"/>
<path d="M68.1904 84.7692C66.1249 86.8311 51.0362 97.093 51.0362 97.093C51.0362 97.093 58.7846 101.617 65.9136 109.963C66.6313 110.801 71.5346 93.115 71.6839 89.1661C71.724 88.0623 69.1776 83.782 68.1904 84.7692V84.7692ZM33.882 84.7692C35.9439 86.8311 51.0362 97.093 51.0362 97.093C51.0362 97.093 43.2879 101.617 36.1588 109.963C35.4411 110.801 30.5379 93.115 30.3885 89.1661C30.3448 88.0623 32.8911 83.782 33.882 84.7692Z" fill="#F4F7F9"/>
</svg>
