<svg width="112" height="112" viewBox="0 0 112 112" fill="none" xmlns="http://www.w3.org/2000/svg">
<g clip-path="url(#clip0)">
<path d="M75.2934 30.7651H36.4347V18.5414C36.4347 12.8451 41.0459 8.23389 46.7422 8.23389H64.9859C70.6822 8.23389 75.2934 12.8451 75.2934 18.5414V30.7651V30.7651Z" fill="#E06055"/>
<path d="M48.2303 10.1673C47.6703 8.51352 44.6078 9.49352 43.0241 10.4473C41.4403 11.401 39.2266 13.921 40.0228 14.5598C40.8103 15.1898 42.1053 13.5798 44.8616 12.8185C47.4253 12.1098 48.6941 11.5323 48.2303 10.1673V10.1673Z" fill="white"/>
<path d="M77.6385 21.6735H34.1335V19.836C34.1335 19.0841 34.4322 18.363 34.9639 17.8313C35.4956 17.2997 36.2167 17.001 36.9685 17.001H74.8123C75.1846 17.001 75.5532 17.0743 75.8972 17.2168C76.2412 17.3592 76.5537 17.5681 76.8169 17.8313C77.0802 18.0946 77.289 18.4071 77.4315 18.7511C77.574 19.095 77.6473 19.4637 77.6473 19.836V21.6735H77.6385Z" fill="#CE453E"/>
<path d="M104.764 50.7942L106.566 10.6492C106.599 10.0564 106.861 9.49957 107.296 9.09642C107.732 8.69328 108.308 8.47549 108.901 8.48913C109.495 8.50277 110.059 8.74678 110.476 9.16952C110.893 9.59226 111.129 10.1606 111.134 10.7542V62.3617C111.134 63.0879 110.784 63.7792 110.198 64.2079L103.714 68.9417L104.764 50.7942V50.7942Z" fill="#78A3AD"/>
<path d="M7.23625 50.7935L5.4425 10.6485C5.41294 10.0621 5.15967 9.50928 4.73483 9.10397C4.30999 8.69866 3.74591 8.47167 3.15875 8.46973C1.89875 8.46973 0.875 9.49348 0.875 10.7535V62.361C0.875 63.0872 1.225 63.7785 1.81125 64.2072L8.295 68.941L7.23625 50.7935Z" fill="#78A3AD"/>
<path d="M11.9787 73.7019C16.4874 73.7019 20.1424 66.909 20.1424 58.5294C20.1424 50.1499 16.4874 43.3569 11.9787 43.3569C7.46998 43.3569 3.81494 50.1499 3.81494 58.5294C3.81494 66.909 7.46998 73.7019 11.9787 73.7019Z" fill="#E06055"/>
<path d="M10.6926 43.3467H12.9851V73.7004H10.6926V43.3467Z" fill="#CE453E"/>
<path d="M13.2562 73.7034H10.9637L10.9637 43.3496H13.2562L13.2562 73.7034Z" fill="#CE453E"/>
<path d="M100.082 73.7019C104.591 73.7019 108.246 66.909 108.246 58.5294C108.246 50.1499 104.591 43.3569 100.082 43.3569C95.5736 43.3569 91.9186 50.1499 91.9186 58.5294C91.9186 66.909 95.5736 73.7019 100.082 73.7019Z" fill="#E06055"/>
<path d="M101.363 73.7034H99.0708V43.3496H101.363V73.7034Z" fill="#CE453E"/>
<path d="M98.7964 43.3467H101.089V73.7004H98.7964V43.3467Z" fill="#CE453E"/>
<path d="M97.2299 30.7565L87.5437 21.289C85.7711 19.5556 83.3904 18.5851 80.9112 18.5852H31.2637C28.7874 18.5852 26.4074 19.5565 24.6312 21.289L14.9449 30.7565C14.0409 31.6391 13.3227 32.6939 12.8328 33.8586C12.3429 35.0232 12.0911 36.2742 12.0924 37.5377V84.8052C12.0924 87.3602 13.1249 89.8015 14.9449 91.5865L24.6312 101.054C26.4074 102.786 28.7787 103.758 31.2637 103.758H80.9112C83.3874 103.758 85.7674 102.786 87.5437 101.054L97.2299 91.5865C99.0587 89.8015 100.082 87.3602 100.082 84.8052V37.5377C100.082 34.9915 99.0499 32.5415 97.2299 30.7565Z" fill="#78A3AD"/>
<path d="M35.2453 61.7048C42.3153 61.7048 48.0466 55.9735 48.0466 48.9035C48.0466 41.8336 42.3153 36.1023 35.2453 36.1023C28.1754 36.1023 22.4441 41.8336 22.4441 48.9035C22.4441 55.9735 28.1754 61.7048 35.2453 61.7048Z" fill="#546E7A"/>
<path d="M35.2451 56.9533C39.691 56.9533 43.2951 53.3492 43.2951 48.9033C43.2951 44.4574 39.691 40.8533 35.2451 40.8533C30.7992 40.8533 27.1951 44.4574 27.1951 48.9033C27.1951 53.3492 30.7992 56.9533 35.2451 56.9533Z" fill="#B8E9F4"/>
<path d="M76.0901 61.7048C83.16 61.7048 88.8913 55.9735 88.8913 48.9035C88.8913 41.8336 83.16 36.1023 76.0901 36.1023C69.0201 36.1023 63.2888 41.8336 63.2888 48.9035C63.2888 55.9735 69.0201 61.7048 76.0901 61.7048Z" fill="#546E7A"/>
<path d="M76.0898 56.9533C80.5357 56.9533 84.1398 53.3492 84.1398 48.9033C84.1398 44.4574 80.5357 40.8533 76.0898 40.8533C71.6439 40.8533 68.0398 44.4574 68.0398 48.9033C68.0398 53.3492 71.6439 56.9533 76.0898 56.9533Z" fill="#B8E9F4"/>
<path d="M7.0351 46.3579C7.0351 46.3579 2.6951 56.4904 5.1276 66.6229L2.07385 64.3917C2.07385 64.3917 2.31885 59.3342 3.8151 53.7604C5.3201 48.1692 7.0351 46.3579 7.0351 46.3579V46.3579Z" fill="#64878E"/>
<path d="M104.965 46.3579C104.965 46.3579 109.305 56.4904 106.872 66.6229L109.926 64.3917C109.926 64.3917 109.681 59.3342 108.185 53.7604C106.68 48.1692 104.965 46.3579 104.965 46.3579V46.3579Z" fill="#64878E"/>
<path d="M54.1184 57.4875L49.4022 68.8187C48.9122 69.9912 49.7784 71.2862 51.0472 71.2862H60.2959C61.5559 71.2862 62.4222 70.0087 61.9497 68.845L57.4172 57.5137C56.8222 56.035 54.7309 56.0175 54.1184 57.4875V57.4875Z" fill="#E06055"/>
<path d="M55.5268 59.1492C54.573 58.8779 54.2843 60.3829 53.7768 61.7042C52.9368 63.9179 52.7093 64.9504 53.173 65.1167C53.7855 65.3442 54.3193 64.6442 55.1418 62.6404C55.9293 60.7592 56.3318 59.3767 55.5268 59.1492V59.1492Z" fill="#EDA29B"/>
<path d="M71.7409 87.9726H40.4334C36.1371 87.9726 32.6459 84.4901 32.6459 80.1851V79.0388H79.5196V80.1851C79.5196 84.4813 76.0371 87.9726 71.7409 87.9726Z" fill="#B8E9F4"/>
<path d="M72.5115 87.9726H39.664C35.7965 87.9726 32.6553 84.8313 32.6553 80.9638C32.6553 79.8963 33.5215 79.0388 34.5803 79.0388H77.604C78.6715 79.0388 79.529 79.9051 79.529 80.9638C79.5203 84.8313 76.3878 87.9726 72.5115 87.9726Z" fill="#546E7A" stroke="#546E7A" stroke-width="0.5" stroke-miterlimit="10"/>
<path d="M40.9678 80.0796V87.4296C40.9678 87.4296 32.6553 86.7471 32.6553 80.1846L40.9678 80.0796Z" fill="#546E7A"/>
<path d="M71.1373 80.0796V87.4296C71.1373 87.4296 79.4498 86.7471 79.4498 80.1846L71.1373 80.0796Z" fill="#546E7A"/>
<path d="M44.3712 80.9119H49.7962V86.1269H44.3712V80.9119Z" fill="#B8E9F4"/>
<path d="M52.9554 80.9119H58.3804V86.1269H52.9554V80.9119Z" fill="#B8E9F4"/>
<path d="M61.5388 80.9119H66.9638V86.1269H61.5388V80.9119Z" fill="#B8E9F4"/>
<path d="M70.333 86.1269H70.123V80.9119H75.548C75.548 83.7906 73.2118 86.1269 70.333 86.1269V86.1269Z" fill="#B8E9F4"/>
<path d="M41.2214 86.1269H41.0114C38.1326 86.1269 35.7964 83.7906 35.7964 80.9119H41.2214V86.1269Z" fill="#B8E9F4"/>
</g>
<defs>
<clipPath id="clip0">
<rect width="112" height="112" fill="white"/>
</clipPath>
</defs>
</svg>
