<svg width="21" height="30" viewBox="0 0 21 30" fill="none" xmlns="http://www.w3.org/2000/svg">
<path d="M9.94444 26.3333L2.70355 19.5928L3.72222 12.4444C3.72222 11.7235 4.15333 11.1048 4.77111 10.8266L8.16666 11.5555C8.16666 10.8346 8.59777 10.2159 9.21555 9.93772L12.5187 10.6479L12.6111 10.6666V2.66661C12.6111 1.94572 13.0422 1.32705 13.66 1.04883L16.8707 13.1911L17.0556 13.3333C17.8751 13.3333 18.5871 15.1111 18.5871 15.1111L18.5889 15.1244L9.94444 26.3333Z" fill="#B78B60"/>
<path d="M8.16666 14.0249C7.62532 14.5129 7.27777 15.2125 7.27777 16.0001C7.27777 16.6694 7.53288 17.2738 7.93999 17.7414C7.63688 18.2898 7.05999 18.6667 6.38888 18.6667C5.40754 18.6667 4.6111 17.8703 4.6111 16.8889V11.5556C4.6111 11.2952 4.67066 11.0498 4.7711 10.8267C5.04932 10.2089 5.66799 9.77783 6.38888 9.77783C7.37021 9.77783 8.16666 10.5743 8.16666 11.5556V14.0249Z" fill="#D4AB88"/>
<path d="M0.166672 4.44428C0.166672 3.46295 0.963116 2.6665 1.94445 2.6665C2.92578 2.6665 3.72223 3.46295 3.72223 4.44428V16.8887C3.72223 17.6345 4.05823 18.3634 4.61023 18.8629C5.64845 19.7163 7.13734 19.7901 8.16578 18.8612C8.34534 18.6976 8.50712 18.5172 8.63689 18.3118L8.63423 18.3092C8.81289 18.4114 9.05556 18.6665 9.94445 18.6665H12.1996C10.5916 19.8798 9.5 22.2132 9.5 24.8887C9.5 25.1341 9.69912 25.3332 9.94445 25.3332C10.1898 25.3332 10.3889 25.1341 10.3889 24.8887C10.3889 21.4585 12.3329 18.6665 14.7222 18.6665C15.356 18.7367 15.4751 17.7776 14.8333 17.7776H9.94445C8.96312 17.7776 8.16667 16.9812 8.16667 15.9998C8.16667 15.0185 8.96312 14.2221 9.94445 14.2221H17.0556C17.916 14.2221 18.372 14.7518 18.5889 15.1243C18.7009 15.3172 18.7533 15.4701 18.756 15.4798L19.7222 18.6665C19.8138 18.9643 20.148 20.3296 20.0876 20.6141C20.0876 24.8887 15.9133 29.3332 10.8333 29.3332C5.02267 29.3332 0.166672 24.6665 0.166672 18.6665C0.173783 18.6727 0.166672 4.44428 0.166672 4.44428Z" fill="#D4AB88"/>
<path d="M12.6111 13.3333H9.94443C9.63154 13.3333 9.33554 13.3973 9.05554 13.4969V10.6667C9.05554 10.4062 9.1151 10.1609 9.21554 9.93778C9.49376 9.32 10.1124 8.88889 10.8333 8.88889C11.8147 8.88889 12.6111 9.68533 12.6111 10.6667V13.3333ZM13.5 13.3333V1.77778C13.5 1.51733 13.5595 1.272 13.66 1.04889C13.9382 0.431111 14.5569 0 15.2778 0C16.2591 0 17.0555 0.796445 17.0555 1.77778V13.3333H13.5Z" fill="#D4AB88"/>
</svg>
