<svg width="126" height="147" viewBox="0 0 126 147" fill="none" xmlns="http://www.w3.org/2000/svg">
<path d="M50.3968 67.1999C49.5232 67.1999 48.637 66.9269 47.881 66.3599C28.8256 52.0673 16.6288 27.657 16.801 4.1706C16.8178 1.848 18.5314 0.0755999 21.0304 0C23.353 0.0168 25.2178 1.911 25.201 4.2294C25.0456 25.1454 35.9278 46.8972 52.921 59.6399C54.7774 61.0301 55.1512 63.6635 53.761 65.5199C52.9378 66.6203 51.6736 67.1999 50.3968 67.1999V67.1999Z" fill="#31373D"/>
<path d="M54.601 75.5999C53.0176 75.5999 15.6544 75.1883 0.34123 39.4547C-0.574369 37.3211 0.416829 34.8515 2.54623 33.9401C4.67983 33.0245 7.14942 34.0157 8.06082 36.1451C21.2194 66.8471 53.2444 67.1999 54.601 67.1999C56.9194 67.1999 58.801 69.0815 58.801 71.3999C58.801 73.7225 56.9194 75.5999 54.601 75.5999Z" fill="#31373D"/>
<path d="M4.20113 117.6C3.76433 117.6 3.31493 117.529 2.87393 117.382C0.673135 116.651 -0.515463 114.274 0.219536 112.069C6.04913 94.5799 20.0393 74.0419 53.6015 75.5623C54.0299 75.5833 54.3701 75.6001 54.6011 75.6001C56.9195 75.6001 58.8011 77.4775 58.8011 79.8001C58.8011 82.1227 56.9195 84.0001 54.6011 84.0001C54.2819 84.0001 53.8157 83.9791 53.2235 83.9539C30.4973 82.9585 15.3353 93.2863 8.18693 114.727C7.59893 116.487 5.96093 117.6 4.20113 117.6V117.6Z" fill="#31373D"/>
<path d="M21.001 147C18.6826 147 16.801 145.122 16.801 142.8C16.801 123.921 30.3586 89.4473 52.438 76.2005C54.4288 75.0077 57.0076 75.6503 58.2004 77.6411C59.3932 79.6319 58.7506 82.2107 56.7598 83.4035C37.7884 94.7855 25.201 126.693 25.201 142.8C25.201 145.122 23.3194 147 21.001 147ZM75.6052 67.1999C74.3242 67.1999 73.0684 66.6203 72.241 65.5199C70.8466 63.6635 71.2246 61.0301 73.081 59.6399C90.0742 46.893 100.956 25.1454 100.801 4.2294C100.784 1.911 102.649 0.0168 104.967 0H105.001C107.307 0 109.184 1.8606 109.201 4.1706C109.377 27.657 97.1764 52.0673 78.121 66.3599C77.365 66.9269 76.483 67.1999 75.6052 67.1999V67.1999Z" fill="#31373D"/>
<path d="M71.4009 75.5998C69.0783 75.5998 67.2009 73.7224 67.2009 71.3998C67.2009 69.0814 69.0783 67.1998 71.4009 67.1998C72.7575 67.1998 104.782 66.847 117.941 36.145C118.857 34.0156 121.335 33.0286 123.451 33.94C125.585 34.8514 126.572 37.321 125.656 39.4546C110.343 75.1882 72.9843 75.5998 71.4009 75.5998Z" fill="#31373D"/>
<path d="M121.801 117.6C120.041 117.6 118.403 116.487 117.819 114.727C110.671 93.2857 95.5887 82.9789 72.7785 83.9533C72.1863 83.9785 71.7201 83.9995 71.4009 83.9995C69.0783 83.9995 67.2009 82.1221 67.2009 79.7995C67.2009 77.4769 69.0783 75.5995 71.4009 75.5995C71.6319 75.5995 71.9721 75.5827 72.4005 75.5617C105.912 74.0497 119.957 94.5793 125.782 112.068C126.517 114.269 125.329 116.65 123.128 117.381C122.687 117.528 122.238 117.6 121.801 117.6V117.6Z" fill="#31373D"/>
<path d="M105.001 147C102.678 147 100.801 145.122 100.801 142.8C100.801 126.693 88.2136 94.7854 69.238 83.3992C67.2472 82.2064 66.6046 79.6276 67.7974 77.6368C68.9902 75.6502 71.5648 75.0034 73.5598 76.1962C95.6392 89.4472 109.201 123.921 109.201 142.8C109.201 145.122 107.324 147 105.001 147Z" fill="#31373D"/>
<path d="M63.0009 130.2C76.9184 130.2 88.2009 117.428 88.2009 101.674C88.2009 85.9189 76.9184 73.1472 63.0009 73.1472C49.0833 73.1472 37.8009 85.9189 37.8009 101.674C37.8009 117.428 49.0833 130.2 63.0009 130.2Z" fill="#31373D"/>
<path d="M63.0009 92.4C72.2793 92.4 79.8009 81.1175 79.8009 67.2C79.8009 53.2824 72.2793 42 63.0009 42C53.7225 42 46.2009 53.2824 46.2009 67.2C46.2009 81.1175 53.7225 92.4 63.0009 92.4Z" fill="#31373D"/>
<path d="M54.6009 54.6001C53.5257 54.6001 52.4505 54.1885 51.6315 53.3695C46.2009 47.9389 46.2009 42.3193 46.2009 37.8001C46.2009 35.4817 48.0825 33.6001 50.4009 33.6001C52.7193 33.6001 54.6009 35.4817 54.6009 37.8001C54.6009 41.6641 54.6009 44.4613 57.5703 47.4307C59.2125 49.0729 59.2125 51.7273 57.5703 53.3695C56.7513 54.1885 55.6761 54.6001 54.6009 54.6001V54.6001ZM71.4009 54.6001C70.3257 54.6001 69.2505 54.1885 68.4315 53.3695C66.7893 51.7273 66.7893 49.0729 68.4315 47.4307C71.4009 44.4613 71.4009 41.6641 71.4009 37.8001C71.4009 35.4817 73.2783 33.6001 75.6009 33.6001C77.9235 33.6001 79.8009 35.4817 79.8009 37.8001C79.8009 42.3193 79.8009 47.9389 74.3703 53.3695C73.5513 54.1885 72.4761 54.6001 71.4009 54.6001Z" fill="#31373D"/>
</svg>
