<svg width="38" height="36" viewBox="0 0 38 36" fill="none" xmlns="http://www.w3.org/2000/svg">
<path d="M35.8041 6.61145L32.9375 9.47914C32.9375 9.47914 31.0254 10.4347 29.1143 8.52255C27.2021 6.61145 28.1577 4.69932 28.1577 4.69932L31.0254 1.83164C31.982 0.876091 30.833 0 29.9705 0C25.7354 0 22.3031 3.43223 22.3031 7.66632C22.3031 8.26118 22.3784 8.83827 22.506 9.39445L16.0252 15.8752L21.7595 21.6095L28.2403 15.1298C28.7975 15.2574 29.3735 15.3326 29.9695 15.3326C34.2035 15.3326 37.6358 11.9004 37.6358 7.66632C37.6368 6.79859 36.7597 5.65591 35.8041 6.61145ZM15.9123 16.0624L3.16923 28.8044C1.60627 30.3684 1.60627 32.9036 3.16923 34.4676C4.73427 36.0305 7.26845 36.0305 8.83245 34.4676L21.5734 21.7256L15.9123 16.0624ZM6.02541 33.2852C5.16918 33.2852 4.47604 32.591 4.47604 31.7358C4.47604 30.8806 5.17023 30.1854 6.02541 30.1854C6.88163 30.1854 7.57477 30.8796 7.57477 31.7358C7.57477 32.591 6.88163 33.2852 6.02541 33.2852Z" fill="#8899A6"/>
<path d="M32.2318 34.7918C33.4508 36.0108 35.3912 36.0683 36.5401 34.9183C37.6901 33.7683 37.6326 31.8289 36.4136 30.6099L12.0911 6.28745C10.8711 5.0674 8.93282 5.01095 7.78282 6.16095C6.63282 7.31095 6.69032 9.25027 7.90932 10.4693L32.2318 34.7918Z" fill="#F4900C"/>
<path d="M22.4192 0.933621C22.4192 0.933621 16.1465 -2.20274 10.9192 3.02453L3.60101 10.3427C3.60101 10.3427 2.55556 9.29726 1.5101 10.3427L0.464646 11.3882C0.464646 11.3882 -0.580808 12.4336 0.464646 13.4791L4.64646 17.6609C4.64646 17.6609 5.69192 18.7063 6.73737 17.6609L7.78283 16.6154C7.78283 16.6154 8.82828 15.57 7.78283 14.5245L7.70128 14.443C8.50628 13.6662 9.71169 12.8748 10.9192 13.4791L15.101 9.29726C15.101 9.29726 14.0556 6.16089 16.1465 4.06998C18.2374 1.97908 19.2828 1.97908 21.3737 1.97908C23.4646 1.97908 22.4192 0.933621 22.4192 0.933621Z" fill="#66757F"/>
</svg>
