<svg width="127" height="126" viewBox="0 0 127 126" fill="none" xmlns="http://www.w3.org/2000/svg">
<path d="M63.1165 0C34.0689 0 10.5194 23.5495 10.5194 52.5971V84.1554H21.0388V52.5971C21.0388 28.0518 39.5145 9.86021 63.1165 9.86021C86.7151 9.86021 105.194 28.0518 105.194 52.5971V87.6619L115.714 84.1554V52.5971C115.714 23.5495 92.1642 0 63.1165 0Z" fill="#66757F"/>
<path d="M21.0388 94.6747C21.0388 98.5459 17.897 101.688 14.0259 101.688H7.01295C3.1418 101.688 0 98.5459 0 94.6747V63.1165C0 59.2453 3.1418 56.1035 7.01295 56.1035H14.0259C17.897 56.1035 21.0388 59.2453 21.0388 63.1165V94.6747ZM126.233 94.6747C126.233 98.5459 123.091 101.688 119.22 101.688H112.207C108.336 101.688 105.194 98.5459 105.194 94.6747V63.1165C105.194 59.2453 108.336 56.1035 112.207 56.1035H119.22C123.091 56.1035 126.233 59.2453 126.233 63.1165V94.6747Z" fill="#31373D"/>
<path d="M67.2611 35.1205L44.9459 39.7245C43.368 40.0506 42.0776 41.632 42.0776 43.245V99.9973C39.8405 99.2013 37.3754 98.7349 34.7596 98.7349C24.9941 98.7349 17.08 104.889 17.08 112.487C17.08 120.079 24.9976 125.907 34.7596 125.907C44.3533 125.9 52.3235 119.22 52.597 112.207V57.4707L67.3383 54.4131C68.9127 54.087 70.1294 52.5021 70.1294 50.8926V37.4558C70.1294 35.8498 68.839 34.7944 67.2611 35.1205V35.1205ZM95.3129 46.1694L80.2456 49.2025C78.6677 49.5286 77.1424 51.11 77.1424 52.7195V92.7108C77.1424 92.1778 74.0637 91.8692 72.2333 91.8692C65.1362 91.8692 59.4943 96.3435 59.4943 101.87C59.4943 107.389 65.308 111.867 72.4086 111.867C79.5092 111.867 85.3019 107.389 85.3019 101.87L85.2528 62.2956L95.3129 60.1988C96.8908 59.8727 98.1812 58.2912 98.1812 56.6818V48.5117C98.1812 46.9022 96.8908 45.8468 95.3129 46.1694V46.1694Z" fill="#55ACEE"/>
</svg>
