<svg width="33" height="24" viewBox="0 0 33 24" fill="none" xmlns="http://www.w3.org/2000/svg">
<path d="M0 20.1667C0 22.1916 1.64175 23.8333 3.66667 23.8333H29.3333C31.3583 23.8333 33 22.1916 33 20.1667V16.5H0V20.1667Z" fill="#CF142B"/>
<path d="M0 16.5002H33V7.3335H0V16.5002ZM23.2063 13.246L23.4529 13.9243L24.1743 13.8996L23.606 14.3442L23.8526 15.0225L23.254 14.6192L22.6857 15.0637L22.8846 14.3698L22.286 13.9665L23.0074 13.9417L23.2063 13.246ZM22.0917 11.7197L22.7608 11.4493L22.3786 12.0607L22.8424 12.6135L22.1421 12.4393L21.7598 13.0507L21.7094 12.3312L21.0091 12.157L21.6783 11.8866L21.6278 11.167L22.0917 11.7197ZM19.4333 9.7535L20.0585 10.1147L20.5947 9.63158L20.4444 10.3374L21.0696 10.6986L20.3518 10.7737L20.2015 11.4796L19.9082 10.8205L19.1904 10.8957L19.7267 10.4126L19.4333 9.7535ZM17.5982 9.30158L17.9373 8.6645L18.0382 9.37858L18.7486 9.50416L18.1005 9.82041L18.2013 10.5345L17.6999 10.0157L17.05 10.3319L17.3892 9.69483L16.8878 9.176L17.5982 9.30158ZM14.9628 9.37858L15.0636 8.6645L15.4028 9.30158L16.1132 9.176L15.6118 9.69483L15.9509 10.3319L15.3028 10.0157L14.8014 10.5345L14.9023 9.82041L14.2542 9.50416L14.9628 9.37858ZM12.4062 9.63158L12.9424 10.1147L13.5667 9.7535L13.2733 10.4126L13.8096 10.8957L13.0918 10.8205L12.7985 11.4796L12.6482 10.7737L11.9304 10.6986L12.5556 10.3374L12.4062 9.63158ZM10.2392 11.4493L10.9083 11.7197L11.3722 11.167L11.3217 11.8866L11.9909 12.157L11.2906 12.3312L11.2402 13.0507L10.8579 12.4393L10.1576 12.6135L10.6214 12.0607L10.2392 11.4493ZM9.54617 13.9234L9.79275 13.2451L9.99167 13.939L10.7131 13.9637L10.1145 14.3671L10.3134 15.061L9.74508 14.6164L9.1465 15.0197L9.39308 14.3414L8.82475 13.8968L9.54617 13.9234Z" fill="#00247D"/>
<path d="M29.3333 0H3.66667C1.64175 0 0 1.64175 0 3.66667V7.33333H33V3.66667C33 1.64175 31.3583 0 29.3333 0Z" fill="#FFCC00"/>
<path d="M17.05 10.332L17.6981 10.0157L18.1995 10.5346L18.0987 9.82047L18.7477 9.50422L18.0373 9.37863L17.9364 8.66455L17.5982 9.30163L16.8868 9.17605L17.3883 9.69488L17.05 10.332ZM19.9082 10.8196L20.2015 11.4787L20.3509 10.7738L21.0687 10.6977L20.4444 10.3375L20.5938 9.63163L20.0576 10.1138L19.4333 9.75355L19.7267 10.4126L19.1904 10.8957L19.9082 10.8196ZM21.0091 12.1571L21.7094 12.3312L21.7598 13.0508L22.1421 12.4394L22.8415 12.6136L22.3777 12.0608L22.7608 11.4494L22.0917 11.7198L21.6278 11.1671L21.6783 11.8866L21.0091 12.1571ZM22.8846 14.3681L22.6857 15.0611L23.2549 14.6174L23.8526 15.0207L23.606 14.3424L24.1743 13.8987L23.4538 13.9235L23.2063 13.2461L23.0074 13.9391L22.2869 13.9647L22.8846 14.3681ZM14.8005 10.5346L15.3019 10.0157L15.95 10.332L15.6118 9.69488L16.1132 9.17605L15.4018 9.30163L15.0636 8.66455L14.9628 9.37863L14.2523 9.50422L14.9013 9.82047L14.8005 10.5346ZM12.6491 10.7738L12.7985 11.4787L13.0918 10.8196L13.8096 10.8957L13.2733 10.4126L13.5667 9.75355L12.9424 10.1138L12.4062 9.63163L12.5556 10.3375L11.9313 10.6977L12.6491 10.7738ZM10.8579 12.4394L11.2402 13.0508L11.2906 12.3312L11.9909 12.1571L11.3218 11.8866L11.3722 11.1671L10.9083 11.7198L10.2392 11.4494L10.6223 12.0608L10.1585 12.6136L10.8579 12.4394ZM9.14742 15.0207L9.74508 14.6174L10.3143 15.0611L10.1154 14.3681L10.7131 13.9647L9.99258 13.9391L9.79367 13.2461L9.54617 13.9235L8.82567 13.8987L9.394 14.3424L9.14742 15.0207Z" fill="white"/>
</svg>
