<svg width="140" height="116" viewBox="0 0 140 116" fill="none" xmlns="http://www.w3.org/2000/svg">
<path d="M131.467 89.3045C129.854 85.5809 128.002 81.5403 123.733 81.5403H119.867C124.135 81.5403 127.6 78.0641 127.6 73.776V7.76427C127.6 3.47613 124.135 0 119.867 0H19.3333C15.0645 0 11.6 3.47613 11.6 7.76427V73.776C11.6 78.0641 15.0645 81.5403 19.3333 81.5403H15.4667C11.1979 81.5403 9.02093 85.4224 7.73333 89.3045L0 108.232C0 112.524 3.46453 116 7.73333 116H131.467C135.735 116 139.2 112.524 139.2 108.236L131.467 89.3045Z" fill="#CCD6DD"/>
<path d="M0.03125 108.556L0.05445 108.777L0.711783 111.453C1.93365 114.128 4.60938 116 7.73365 116H131.467C135.628 116 138.995 112.694 139.169 108.556H0.03125Z" fill="#9AAAB4"/>
<path d="M119.867 69.8902C119.867 72.0362 118.138 73.7723 116 73.7723H23.1999C21.0655 73.7723 19.3333 72.0362 19.3333 69.8902V11.6504C19.3333 9.50444 21.0655 7.76831 23.1999 7.76831H116C118.138 7.76831 119.867 9.50831 119.867 11.6504V69.8902Z" fill="#5DADEC"/>
<path d="M127.237 96.8293L124.298 88.4193C123.374 86.6406 121.843 85.1829 119.705 85.1829H19.7592C17.6248 85.1829 16.256 86.7605 15.2893 89.1887L12.6291 96.8331C11.7823 99.1377 14.3613 100.715 16.4957 100.715H45.7973C45.7973 100.715 49.4204 100.534 50.0622 98.3643C50.8046 95.8587 51.6669 92.0849 51.8525 91.4198C52.1386 90.399 53.3528 89.3666 55.1624 89.3666H88.3307C90.264 89.3666 91.2152 90.3449 91.4665 91.5551C91.6289 92.3439 92.6729 95.967 93.1601 98.4455C93.5893 100.653 97.8813 100.711 97.8813 100.711H123.378C125.509 100.711 128.084 98.8902 127.237 96.8293Z" fill="#AEBBC1"/>
<path d="M86.5165 104.837H56.43C54.98 104.837 54.3497 103.511 54.5585 102.227C54.7673 100.947 55.9467 95.2943 56.0395 94.637C56.1284 93.9758 57.0989 93.187 58.0656 93.187H85.1903C86.3387 93.187 87.0849 93.8173 87.3169 95.0778C87.5451 96.3422 88.4847 101.423 88.5581 102.583C88.6316 103.747 87.9047 104.837 86.5165 104.837Z" fill="#9AAAB4"/>
</svg>
