<svg width="47" height="47" viewBox="0 0 47 47" fill="none" xmlns="http://www.w3.org/2000/svg">
<path d="M13.8414 40.5271C12.0819 39.1357 10.2027 37.8135 8.92528 35.9415C6.22617 32.6491 4.14337 28.8372 2.72309 24.8232C1.86573 22.2222 1.57272 19.4249 0.467096 16.9149C-0.690492 15.1035 0.661951 13.1116 2.65525 12.5328C3.54293 12.3596 5.10611 11.5253 3.21961 12.1272C1.52798 13.3599 1.37065 11 3.09981 10.8498C4.28049 10.6925 4.71639 9.72257 4.31081 8.85798C3.04785 8.03093 7.39241 7.1216 5.2057 5.8803C2.92805 3.42223 8.39267 2.9488 7.04745 5.7374C6.72413 7.88803 10.8666 5.34625 9.90389 7.82741C10.8811 9.01531 13.5571 8.09877 13.4892 9.76731C14.9182 9.86546 15.406 11.0606 16.7368 11.1501C18.1282 11.7823 20.6311 12.2701 21.1045 13.8261C19.7289 14.9158 16.5492 11.586 16.3991 14.5925C16.8119 19.0352 16.708 23.6136 18.3318 27.8456C19.1054 30.409 20.9702 32.4312 22.6547 34.4231C24.264 36.3846 26.4435 37.7529 28.6692 38.9192C30.6235 39.8357 32.7294 40.4448 34.8555 40.8288C35.7129 40.1677 37.2385 37.7168 38.5838 38.7532C38.6444 39.9108 35.915 41.1809 38.4553 41.0539C39.9434 40.6021 40.9812 42.2043 42.2139 40.7609C43.3411 42.0989 46.9193 39.9036 46.1153 42.6474C45.0256 43.346 43.4321 42.926 42.3409 43.8873C40.5439 42.9924 39.1077 44.6912 37.1159 44.4805C34.901 44.8609 32.6572 45.0468 30.4099 45.0362C26.7336 44.7432 22.9751 44.6234 19.472 43.3446C17.5018 42.7658 15.5778 41.6457 13.8414 40.5257V40.5271ZM16.9461 41.8723C18.8701 42.6994 20.7581 43.5784 22.8697 43.8497C26.2155 44.3087 29.6738 45.0304 33.034 44.3766C31.5156 43.6852 29.9365 44.6479 28.4253 43.8801C26.6066 44.2712 24.6595 43.7819 22.8091 43.5423C20.7119 42.6099 18.4415 41.9633 16.4712 40.745C14.0204 39.8502 17.7414 41.8954 18.4111 42.0686C19.9455 42.9404 16.7195 41.6168 16.2692 41.256C14.9831 40.5343 14.8186 40.6844 16.1407 41.4133C16.4034 41.5707 16.6675 41.7366 16.9447 41.8723H16.9461ZM13.2843 39.2786C15.1491 39.9699 13.2771 37.9709 12.4197 38.0835C12.0444 37.4296 10.9763 37.0081 11.7283 36.6632C10.3672 37.1294 10.308 34.8734 9.66862 35.1895C8.23246 34.7377 9.11292 33.137 7.4054 32.1526C7.24808 31.1148 5.70655 30.2127 5.21003 28.6423C4.99208 27.8456 3.47365 25.5376 4.40607 27.6796C5.20281 29.7465 6.60866 31.5132 7.77346 33.2799C8.68279 34.9557 9.75089 36.7151 11.405 37.7601C11.9607 38.2942 12.4947 39.114 13.2843 39.2786ZM7.90914 33.3781C7.96976 33.0995 8.24689 33.9872 7.90914 33.3781V33.3781ZM15.5172 40.1056C15.93 39.9252 14.9239 39.8805 15.5172 40.1056V40.1056ZM16.5319 40.4809C16.4265 39.9699 16.0657 40.7595 16.5319 40.4809V40.4809ZM17.802 41.0077C18.4039 40.4289 16.8696 40.6469 17.802 41.0077V41.0077ZM19.9758 42.2187C20.3438 41.6775 18.7951 42.0152 19.9758 42.2187V42.2187ZM15.803 39.3089C16.7354 38.6998 14.5848 39.3017 15.803 39.3089V39.3089ZM16.7498 39.7823C16.7267 39.459 16.4121 39.9252 16.7498 39.7823V39.7823ZM21.5014 42.7513C22.2678 43.232 25.9672 43.8036 23.652 42.9462C23.2681 43.0285 19.3594 41.8406 21.5014 42.7513ZM13.9612 36.8725C13.8862 36.5491 12.7733 36.5116 13.9612 36.8725V36.8725ZM16.171 38.1585C16.7498 37.7601 14.9759 37.8496 16.171 38.1585V38.1585ZM18.0359 39.3017C18.8629 38.9928 16.6906 38.9856 18.0359 39.3017V39.3017ZM13.0591 35.8881C13.954 36.5795 16.6748 35.979 14.4346 35.4825C13.4127 34.934 11.112 34.5659 12.6752 35.8058L13.0591 35.8881ZM19.2916 39.7C19.6669 39.0606 17.7284 39.332 19.2916 39.7V39.7ZM17.3965 38.1888C19.5918 38.8124 15.5547 36.8061 16.8552 37.9637L17.1482 38.0921L17.3965 38.1888ZM21.1997 40.3842C23.2739 40.4073 19.3205 40.0984 21.1997 40.3842V40.3842ZM12.2624 34.6858C12.1801 34.3018 11.7514 34.7233 12.2624 34.6858V34.6858ZM24.7115 42.353C24.7634 41.6544 24.0345 42.8798 24.7115 42.353V42.353ZM15.803 36.858C15.6745 36.49 15.1563 36.8436 15.803 36.858V36.858ZM12.4572 34.4447C13.6451 34.3769 10.8262 33.9179 12.4572 34.4447V34.4447ZM8.48794 31.8813C8.34504 31.3097 7.19467 30.8594 8.48794 31.8813V31.8813ZM18.9004 38.4963C18.6825 38.2408 18.7951 38.5482 18.9004 38.4963V38.4963ZM25.3725 42.4655C25.3581 42.0903 25.0261 42.6084 25.3725 42.4655V42.4655ZM18.3289 37.903C18.4415 37.4065 17.307 37.7529 18.3289 37.903V37.903ZM13.5022 34.8359C14.3812 34.7449 12.0819 34.2426 13.5022 34.8359V34.8359ZM21.666 39.9108C23.0415 39.3623 20.3121 39.6394 21.666 39.9108V39.9108ZM17.4195 37.0312C19.013 37.2348 15.5244 35.9487 17.0659 36.9187L17.4195 37.0312ZM22.952 40.4362C24.4401 39.5413 23.9523 42.5189 25.4779 40.6844C26.9819 39.5875 24.1774 42.0455 26.0336 40.8793C27.3716 39.9844 29.3563 41.308 30.6048 41.7366C31.5069 41.6919 32.3859 42.519 33.3039 42.0152C35.085 41.5346 29.8311 41.308 31.2067 40.4593C29.5829 40.9327 28.3805 39.8949 27.5838 38.8499C25.7565 38.4284 23.652 37.496 22.7427 35.8809C22.3674 35.279 23.2768 35.9718 22.4194 34.9788C21.3224 34.0016 20.7725 32.8887 20.0364 31.7008C19.1574 31.2346 19.052 29.8519 18.9611 31.6561C18.9683 30.513 17.893 29.7465 17.6375 30.0698C17.6303 28.9729 18.7806 29.5214 17.9752 28.7087C17.802 27.5656 17.2305 26.3777 17.0587 25.0931C16.796 24.4768 17.0212 23.1532 16.1494 24.5518C15.8333 26.0327 16.044 22.7332 16.5405 23.8229C17.1872 22.7101 16.3081 22.8385 16.2692 22.9958C16.6906 22.0562 16.5405 20.7254 16.1566 21.2292C16.3818 20.2361 16.5174 17.5688 15.8188 18.0422C16.2403 17.0044 16.6156 13.2834 14.7969 14.7037C14.0521 14.7109 12.7748 14.975 12.1729 15.2752C14.068 16.3202 11.978 15.6505 11.2101 15.486C11.112 16.4487 10.3456 16.0344 9.39149 16.0417C10.9171 16.2293 8.64671 17.5976 7.76769 17.0722C6.6332 17.6135 8.75207 18.9674 7.79078 19.3874C7.91058 20.0196 6.0544 19.1622 6.1973 20.6201C5.09167 20.1538 6.04719 22.3564 6.59567 21.6131C8.47495 22.1168 7.91925 23.2744 7.96399 24.38C7.66377 25.0195 6.45999 22.8688 7.7013 22.967C6.72413 21.3807 6.61876 22.3954 5.79893 23.133C5.61129 23.1849 7.88172 24.1852 6.45999 24.6817C7.70851 24.8694 7.74604 25.9678 7.9943 26.6591C8.7463 27.4487 8.59619 25.7946 9.4983 26.7414C8.92672 25.8999 6.48309 24.3728 8.44608 24.8621C8.43886 24.0206 8.09245 23.3365 8.69434 23.3581C9.29623 22.2756 8.0708 26.0269 9.41603 24.6514C9.7913 24.4854 9.88224 23.5689 10.5592 24.7337C11.5291 25.6964 10.9056 26.3878 9.53727 25.5073C9.77831 26.3416 11.3718 26.6418 11.0716 27.9437C11.3877 29.0941 11.8308 28.6654 12.2219 28.6048C12.5222 29.7176 12.6954 28.8978 12.7113 28.3638C14.1027 28.664 13.7707 29.4838 14.2066 30.0626C15.1607 30.4913 12.8383 27.1311 14.4852 29.0479C16.2071 30.6111 15.1318 31.2577 13.5758 31.0095C14.5602 30.9344 14.8763 32.3403 16.1017 32.2869C17.2218 32.8209 17.981 34.8647 16.0498 34.016C15.3801 33.4141 13.0129 32.6621 14.9528 33.8125C16.7426 34.6396 18.1557 35.1361 19.8848 36.1724C21.1103 37.0514 21.6515 38.0676 22.1177 38.2624C21.0799 38.759 18.9899 37.8641 20.5387 37.5927C19.5759 37.4195 18.4862 36.9316 19.4114 38.134C20.2009 38.795 22.2 38.72 22.5609 38.795C22.252 39.4648 21.7338 39.5167 22.5753 39.5687C21.6356 40.0724 22.8755 40.1475 22.9592 40.4333L22.952 40.4362ZM21.0424 35.0307C20.4708 34.4288 20.3207 33.316 20.9371 34.2859C21.2532 34.4144 21.9517 36.1132 21.0424 35.0307ZM27.2749 38.9856C27.6285 38.9711 27.2821 39.2569 27.2749 38.9856V38.9856ZM20.1403 33.5657C20.1172 32.6708 20.3438 34.2643 20.1403 33.5657V33.5657ZM19.5168 32.7386C18.8023 31.3559 20.4261 33.1298 19.5168 32.7386V32.7386ZM12.0141 27.5511C12.4356 27.4386 12.2176 28.2728 12.0141 27.5511V27.5511ZM17.9911 30.7915C18.2466 29.8216 18.2913 31.6114 17.9911 30.7915V30.7915ZM13.7649 27.86C13.4719 27.326 14.3885 28.3638 13.7649 27.86V27.86ZM17.3892 29.0176C16.7123 27.4992 17.8699 28.1906 17.5393 29.2731L17.3892 29.0176ZM11.1423 24.852C10.8421 24.3555 10.3383 22.8905 10.5029 22.4459C10.6458 23.1676 12.0444 25.5737 11.187 23.439C10.2402 21.6492 12.3215 24.0178 12.5409 24.4695C12.6391 24.9127 11.9549 24.3497 12.4125 25.3861C11.571 24.1982 11.916 26.0399 11.1423 24.852ZM9.20962 23.5212C9.2919 22.3637 9.65274 24.318 9.20962 23.5212V23.5212ZM10.0814 23.8229C10.4942 22.9439 10.78 25.0411 10.0814 23.8229V23.8229ZM7.99141 22.2063C7.26973 21.4919 6.75155 20.8308 8.02173 21.7632C8.51825 21.7776 6.93919 20.2679 8.14153 21.2826C9.4117 21.5149 8.76506 23.3654 7.99141 22.2078V22.2063ZM9.08982 22.176C9.51129 21.7632 9.30777 22.5816 9.08982 22.176V22.176ZM9.76677 22.394C9.13457 21.2061 10.5332 22.8905 9.76677 22.394V22.394ZM8.4201 21.1094C6.33009 19.2532 11.0514 22.0865 8.75785 21.4558L8.4201 21.1094ZM14.4115 24.5893C13.5022 24.0481 14.1705 20.7702 14.4794 23.0103C15.3584 22.7245 14.4274 24.1679 15.0813 24.1534C14.9831 25.0628 14.6901 25.3933 14.4115 24.5893ZM16.6228 25.897C16.7137 24.9127 16.8104 26.574 16.6228 25.897V25.897ZM16.2389 25.5145C16.337 25.0931 16.2461 26.0111 16.2389 25.5145V25.5145ZM8.83434 20.5003C7.48912 18.6441 12.7358 22.3723 9.69171 20.9665C9.37561 20.8842 8.99312 20.8539 8.83434 20.5003ZM13.0966 22.762C12.9682 21.1988 13.3824 23.0175 13.0966 22.762V22.762ZM16.337 24.8376C16.5853 23.9499 16.3514 25.4236 16.337 24.8376V24.8376ZM9.03642 19.793C9.83316 19.6198 12.3446 21.1916 10.0367 20.2448C9.7812 19.959 9.23993 20.0874 9.03642 19.793ZM15.8852 23.2066C15.9762 21.6131 16.3659 22.2525 15.8925 23.4317L15.8852 23.2066ZM9.63109 19.2373C9.9544 18.7639 8.76651 17.0795 9.80429 18.6354C10.2474 18.989 11.0976 19.2286 10.3456 19.3802C11.5262 20.418 10.0598 19.6588 9.63109 19.2373ZM15.5475 22.7101C15.7727 20.8914 15.751 23.7695 15.5475 22.7101V22.7101ZM8.95415 17.5601C9.20241 17.4547 9.08261 17.8906 8.95415 17.5601V17.5601ZM10.4957 18.4781C10.894 17.6438 11.2246 19.4105 10.4957 18.4781V18.4781ZM14.8474 20.9058C14.8474 20.5825 14.9297 21.3648 14.8474 20.9058V20.9058ZM14.6006 20.3415C13.9987 18.8534 15.165 21.131 14.6006 20.3415V20.3415ZM14.2239 19.3643C14.1258 18.748 14.5775 20.138 14.2239 19.3643V19.3643ZM14.833 18.3799C14.4202 17.651 15.3598 15.1626 15.4566 16.7042C15.0207 17.9065 15.3368 18.5834 15.637 16.9669C16.2013 15.6967 15.5172 19.4783 14.833 18.3799ZM15.4493 14.6806C15.6298 14.4554 15.4941 14.9433 15.4493 14.6806V14.6806ZM14.4202 35.1058C14.1719 34.8878 14.4505 35.2414 14.4202 35.1058V35.1058ZM16.555 36.1811C17.7356 36.49 17.7356 36.0007 16.6603 35.8578C16.0815 35.3165 14.2629 34.7449 15.8939 35.7899C15.9993 36.0613 16.3457 36.0526 16.5477 36.1811H16.555ZM12.3374 33.3853C12.9913 33.8746 14.7955 34.768 13.2626 33.5657C13.7808 32.9725 12.2782 32.6491 12.7733 32.2508C11.5104 31.4685 11.7731 31.5435 12.668 31.5666C11.1336 30.8825 12.8859 30.9344 12.8036 30.5822C12.2104 30.4697 9.87935 29.5444 11.2549 30.6573C9.85626 29.95 10.9171 30.9286 10.4957 30.8233C9.06673 30.4321 11.7658 31.913 10.2705 31.545C11.0903 32.1916 12.4803 33.2063 10.6169 32.2291C10.3687 32.5828 11.9477 33.1168 12.3389 33.3867L12.3374 33.3853ZM14.5703 34.6699C17.2839 35.5417 13.2395 33.5946 14.5703 34.6699V34.6699ZM25.9961 41.5937C26.0336 41.0525 25.628 42.0527 25.9961 41.5937V41.5937ZM27.1768 42.0903C27.8003 41.4812 27.1999 43.053 28.2146 41.9402C28.2218 41.1434 28.1842 40.67 27.0497 41.6399C26.7337 41.8131 26.598 42.5493 27.1782 42.0917L27.1768 42.0903ZM8.51825 30.3701C8.33061 29.6181 7.17302 29.6181 8.51825 30.3701V30.3701ZM9.77398 31.1971C9.30777 30.4235 8.11266 30.4985 9.77398 31.1971V31.1971ZM16.9158 35.5056C17.6144 36.1219 20.1187 35.9574 17.766 35.5806C17.4123 35.0625 15.5489 35.1895 16.9158 35.5056ZM26.7264 41.5634C27.8017 40.6613 25.6886 41.9618 26.7264 41.5634V41.5634ZM28.9579 43.0905C28.9651 42.8047 28.4989 43.219 28.9579 43.0905V43.0905ZM28.9579 42.6922C30.1458 41.4292 27.8075 42.7672 28.9579 42.6922V42.6922ZM5.43664 27.7922C4.42195 26.3488 4.80444 25.695 3.82727 24.5215C3.64685 23.6122 2.15873 21.5669 3.06084 23.7392C3.8879 25.0021 4.13616 26.9637 5.43664 27.7907V27.7922ZM28.5898 42.2851C30.778 40.8793 27.6949 41.676 28.5898 42.2851V42.2851ZM30.2598 42.9404C31.3568 42.008 29.5684 42.7456 30.2598 42.9404V42.9404ZM8.15019 28.7766C8.46628 28.3104 7.34622 28.7159 8.15019 28.7766V28.7766ZM29.9062 42.4959C30.9656 41.8117 29.6651 41.9171 29.7185 42.5565L29.9062 42.4959ZM15.5316 33.43C15.4941 32.971 14.9672 33.4675 15.5316 33.43V33.43ZM16.4193 33.941C16.1335 33.3694 15.9834 34.0319 16.4193 33.941V33.941ZM31.6123 42.9621C32.9661 41.9777 30.7852 42.7672 31.3265 43.1425L31.6123 42.9621ZM31.0941 42.7066C32.1997 41.7814 29.9206 43.1194 31.0941 42.7066V42.7066ZM33.747 44.4733C34.4918 43.9768 32.8449 44.316 33.747 44.4733V44.4733ZM8.83434 28.4388C9.82739 28.664 12.8108 30.8897 11.0514 28.5961C10.1493 28.3248 10.6905 26.1222 9.76532 26.5134C10.3816 27.5439 10.2763 27.987 8.98301 27.3332C7.352 26.5437 8.06647 27.7316 8.38113 28.0549C7.95244 28.153 8.95992 28.4302 8.8329 28.4388H8.83434ZM4.3007 24.8607C4.47391 24.1246 2.65381 20.8091 3.43612 23.1994C3.72191 23.6959 3.6916 24.65 4.3007 24.8607ZM12.616 29.9948C12.105 29.5661 12.5929 29.9269 12.616 29.9948V29.9948ZM13.8789 30.2878C13.8789 29.5055 12.4875 29.9717 13.8789 30.2878V30.2878ZM24.8168 37.1813C24.6061 36.6473 23.9898 37.1669 24.8168 37.1813V37.1813ZM25.3422 37.5653C25.2672 37.2651 25.042 37.6172 25.3422 37.5653V37.5653ZM29.6796 40.2933C30.0924 39.9844 29.1614 40.2557 29.6796 40.2933V40.2933ZM6.56392 25.4395C7.75903 24.9733 5.28653 25.109 6.56392 25.4395V25.4395ZM23.8541 36.3312C23.8397 35.5575 23.0949 36.5261 23.8541 36.3312V36.3312ZM6.09049 24.3411C6.85692 24.0784 5.38323 24.1679 6.09049 24.3411V24.3411ZM8.31473 25.4164C8.3003 25.1609 8.08235 25.5145 8.31473 25.4164V25.4164ZM35.4314 42.0455C36.4158 41.8507 38.6646 42.5493 39.0254 41.7828C37.8303 41.7597 34.8829 40.9413 34.7473 41.9777L35.01 42.0224L35.4314 42.0455ZM9.02198 25.5968C9.03642 24.8145 8.41288 25.5665 9.02198 25.5968V25.5968ZM3.17342 21.5366C2.91073 20.0485 2.16595 21.3114 3.17342 21.5366V21.5366ZM4.57206 21.8902C4.58649 21.4096 3.29467 21.4543 4.57206 21.8902V21.8902ZM5.3688 22.2814C5.13642 22.0937 5.18838 22.5138 5.3688 22.2814V22.2814ZM10.3744 25.4914C10.6155 25.2807 9.81873 25.3341 10.3744 25.4914V25.4914ZM4.83475 21.4024C4.69907 20.2751 3.21817 21.2292 4.83475 21.4024V21.4024ZM1.97831 19.5447C1.94078 19.0266 1.69974 19.7396 1.97831 19.5447V19.5447ZM2.39833 19.2214C2.33049 18.6051 2.03749 19.2965 2.39833 19.2214V19.2214ZM4.75248 20.6273C5.74552 20.2361 2.94104 19.8146 4.54896 20.5522L4.75248 20.6273ZM36.1834 40.0378C36.8228 39.459 35.3795 39.8574 36.1834 40.0378V40.0378ZM39.9867 42.008C40.235 41.256 39.3401 42.1061 39.9867 42.008V42.008ZM4.99208 19.3946C5.09745 18.6657 4.20255 19.5375 4.99208 19.3946V19.3946ZM1.64778 17.1545C1.46736 16.1239 1.49767 14.3197 3.21095 14.9288C0.917429 15.3878 4.79722 17.778 4.30792 15.8916C5.27065 15.9363 6.19441 15.32 5.68346 16.2596C7.58582 16.0489 8.90074 14.4034 10.7353 14.6286C12.1642 14.441 13.7274 14.2981 15.2689 13.7265C16.5319 13.6283 17.7501 12.2687 17.0587 11.4633C15.3295 11.3132 13.5253 11.5311 11.6157 11.9064C9.50263 12.3495 7.58582 13.1838 5.45107 13.5446C3.36828 13.8232 5.86388 14.3111 5.27065 14.4236C4.18812 14.7989 6.56391 15.0558 5.12776 15.4455C4.24874 15.2796 3.32354 14.9721 3.69881 14.0397C1.70696 14.2952 -0.0453027 15.1295 1.53375 17.1516L1.64778 17.1545ZM6.45133 14.7109C6.91754 12.9889 8.95415 16.1239 7.21776 14.936C7.00703 14.7859 6.66928 14.6575 6.45133 14.7109ZM6.54082 13.8766C7.21055 13.3801 6.89445 14.1552 6.54082 13.8766V13.8766ZM7.39819 13.8925C7.45881 13.103 9.35252 14.3139 7.70707 14.1783L7.39819 13.8925ZM8.56299 13.4176C8.99167 12.9211 8.69145 13.8694 8.56299 13.4176V13.4176ZM8.86466 13.2228C9.57913 12.3654 12.9018 12.6743 10.4654 13.1405C9.81873 12.6512 9.31499 13.4263 8.86466 13.2228ZM13.202 12.553C13.0894 10.2148 15.3526 13.3873 13.202 12.553V12.553ZM14.4274 12.5458C14.8792 11.3651 16.171 12.0724 14.6382 12.3048C14.6685 12.4332 14.5934 12.9139 14.4274 12.5458ZM4.50422 18.7927C5.84944 17.9657 3.08394 18.0783 4.50422 18.7927V18.7927ZM5.49582 19.0713C5.96924 18.5676 4.47391 18.8606 5.49582 19.0713V19.0713ZM2.57154 16.9885C3.33797 16.4025 1.66943 16.7634 2.57154 16.9885V16.9885ZM42.2268 41.7973C42.2499 41.1131 41.6408 42.1061 42.2268 41.7973V41.7973ZM38.1984 39.0462C38.311 38.2567 37.6802 39.114 38.1984 39.0462V39.0462ZM43.3325 42.06C44.4078 42.06 46.5801 41.7294 44.249 41.7294C43.881 41.79 42.1143 41.7742 43.3325 42.06ZM6.36762 18.5834C7.23942 18.5228 7.72872 17.6294 6.20163 17.6813C3.83305 17.4331 8.28442 18.4853 5.90141 18.1851C5.57809 18.3958 6.35318 18.6441 6.36762 18.5834ZM7.13549 18.9732C7.04456 18.4088 6.86414 19.2662 7.13549 18.9732V18.9732ZM8.0376 16.5526C8.42154 16.0864 7.51943 16.4242 8.0376 16.5526V16.5526ZM5.15085 11.7274C6.70681 11.2006 8.82713 10.6074 9.55603 11.9829C8.81125 11.088 9.25581 10.209 9.96162 11.5167C10.9547 12.8475 11.4497 10.9148 10.8031 10.4717C11.5392 11.3882 12.3749 11.8169 11.2996 10.5236C12.4731 9.11779 8.94693 10.7113 8.14153 10.6968C7.75759 10.87 4.15781 11.6134 5.15662 11.7274H5.15085ZM6.06018 9.98959C6.94785 9.31986 9.12013 10.3807 7.7215 9.31986C7.59304 9.20728 4.66876 10.1238 6.06018 9.98959ZM9.28468 10.1181C10.3225 10.1484 8.84156 8.7353 10.0742 9.37327C9.87069 8.7122 8.63805 8.58374 8.02894 8.32105C7.69119 8.93015 8.72754 10.1253 9.28468 10.1181ZM6.63175 7.19377C6.98538 6.71313 5.99956 7.44203 6.63175 7.19377V7.19377ZM7.94667 7.50987C9.608 7.29192 7.51799 6.7954 7.60892 7.49544L7.94667 7.50987ZM5.4886 5.58441C4.31514 4.0501 7.69119 5.8471 6.50329 4.23918C5.49582 3.44244 4.53309 5.14129 5.4886 5.58441ZM20.5459 13.6962C21.0872 12.7421 18.3202 12.4101 20.1851 13.3584C20.3583 13.4191 20.3135 13.764 20.5459 13.6962Z" fill="black"/>
</svg>
