<svg width="47" height="47" viewBox="0 0 47 47" fill="none" xmlns="http://www.w3.org/2000/svg">
<path d="M13.9748 40.5271C12.2153 39.1357 10.3361 37.8135 9.05867 35.9415C6.35956 32.6491 4.27677 28.8372 2.85648 24.8232C1.99912 22.2222 1.70611 19.4249 0.600488 16.9149C-0.557099 15.1035 0.795344 13.1116 2.78865 12.5328C3.67632 12.3596 5.2395 11.5253 3.35301 12.1272C1.66137 13.3599 1.50404 11 3.23321 10.8498C4.41389 10.6925 4.84979 9.72257 4.4442 8.85798C3.18124 8.03093 7.5258 7.1216 5.33909 5.8803C3.06144 3.42223 8.52606 2.9488 7.18084 5.7374C6.85752 7.88803 11 5.34625 10.0373 7.82741C11.0144 9.01531 13.6905 8.09877 13.6226 9.76731C15.0516 9.86546 15.5394 11.0606 16.8702 11.1501C18.2616 11.7823 20.7644 12.2701 21.2379 13.8261C19.8623 14.9158 16.6826 11.586 16.5325 14.5925C16.9453 19.0352 16.8414 23.6136 18.4652 27.8456C19.2388 30.409 21.1036 32.4312 22.7881 34.4231C24.3974 36.3846 26.5769 37.7529 28.8026 38.9192C30.7569 39.8357 32.8628 40.4448 34.9889 40.8288C35.8463 40.1677 37.3719 37.7168 38.7172 38.7532C38.7778 39.9108 36.0484 41.1809 38.5887 41.0539C40.0768 40.6021 41.1146 42.2043 42.3472 40.7609C43.4745 42.0989 47.0527 39.9036 46.2487 42.6474C45.1589 43.346 43.5655 42.926 42.4743 43.8873C40.6773 42.9924 39.2411 44.6912 37.2492 44.4805C35.0344 44.8609 32.7906 45.0468 30.5433 45.0362C26.867 44.7432 23.1085 44.6234 19.6054 43.3446C17.6352 42.7658 15.7112 41.6457 13.9748 40.5256V40.5271ZM17.0795 41.8723C19.0035 42.6994 20.8915 43.5784 23.0031 43.8497C26.3489 44.3087 29.8072 45.0304 33.1674 44.3766C31.6489 43.6852 30.0699 44.6479 28.5587 43.8801C26.74 44.2712 24.7929 43.7819 22.9425 43.5423C20.8453 42.6099 18.5748 41.9633 16.6046 40.745C14.1538 39.8501 17.8748 41.8954 18.5445 42.0686C20.0788 42.9404 16.8529 41.6168 16.4026 41.256C15.1165 40.5343 14.952 40.6844 16.2741 41.4133C16.5368 41.5707 16.8009 41.7366 17.0781 41.8723H17.0795ZM13.4177 39.2786C15.2825 39.9699 13.4104 37.9709 12.5531 38.0835C12.1778 37.4296 11.1097 37.0081 11.8617 36.6632C10.5006 37.1294 10.4414 34.8734 9.80201 35.1895C8.36585 34.7377 9.24631 33.137 7.5388 32.1526C7.38147 31.1148 5.83994 30.2127 5.34342 28.6423C5.12547 27.8456 3.60704 25.5376 4.53946 27.6796C5.3362 29.7465 6.74205 31.5132 7.90686 33.2799C8.81618 34.9557 9.88428 36.7151 11.5384 37.7601C12.0941 38.2942 12.6281 39.114 13.4177 39.2786V39.2786ZM8.04253 33.3781C8.10316 33.0995 8.38028 33.9872 8.04253 33.3781V33.3781ZM15.6506 40.1056C16.0634 39.9252 15.0573 39.8805 15.6506 40.1056V40.1056ZM16.6653 40.4809C16.5599 39.9699 16.1991 40.7595 16.6653 40.4809V40.4809ZM17.9354 41.0077C18.5373 40.4289 17.003 40.6469 17.9354 41.0077V41.0077ZM20.1092 42.2187C20.4772 41.6775 18.9285 42.0152 20.1092 42.2187V42.2187ZM15.9364 39.3089C16.8688 38.6998 14.7181 39.3017 15.9364 39.3089V39.3089ZM16.8832 39.7823C16.8601 39.459 16.5455 39.9252 16.8832 39.7823V39.7823ZM21.6348 42.7513C22.4012 43.232 26.1006 43.8036 23.7854 42.9462C23.4015 43.0285 19.4928 41.8406 21.6348 42.7513V42.7513ZM14.0946 36.8725C14.0196 36.5491 12.9067 36.5116 14.0946 36.8725V36.8725ZM16.3044 38.1585C16.8832 37.7601 15.1093 37.8496 16.3044 38.1585V38.1585ZM18.1693 39.3017C18.9963 38.9928 16.824 38.9856 18.1693 39.3017V39.3017ZM13.1925 35.8881C14.0874 36.5795 16.8082 35.979 14.568 35.4825C13.5461 34.934 11.2454 34.5659 12.8086 35.8058L13.1925 35.8881ZM19.425 39.7C19.8003 39.0606 17.8618 39.332 19.425 39.7V39.7ZM17.5298 38.1888C19.7252 38.8124 15.6881 36.8061 16.9886 37.9637L17.2816 38.0921L17.5298 38.1888ZM21.3331 40.3842C23.4073 40.4073 19.4539 40.0984 21.3331 40.3842V40.3842ZM12.3958 34.6858C12.3135 34.3018 11.8848 34.7233 12.3958 34.6858V34.6858ZM24.8449 42.353C24.8968 41.6544 24.1679 42.8798 24.8449 42.353V42.353ZM15.9364 36.858C15.8079 36.49 15.2897 36.8436 15.9364 36.858V36.858ZM12.5906 34.4447C13.7785 34.3769 10.9596 33.9179 12.5906 34.4447V34.4447ZM8.62133 31.8813C8.47843 31.3097 7.32806 30.8594 8.62133 31.8813V31.8813ZM19.0338 38.4963C18.8159 38.2408 18.9285 38.5482 19.0338 38.4963V38.4963ZM25.5059 42.4655C25.4915 42.0903 25.1595 42.6084 25.5059 42.4655V42.4655ZM18.4623 37.903C18.5748 37.4065 17.4404 37.7529 18.4623 37.903V37.903ZM13.6356 34.8359C14.5146 34.7449 12.2153 34.2426 13.6356 34.8359V34.8359ZM21.7993 39.9108C23.1749 39.3623 20.4455 39.6394 21.7993 39.9108V39.9108ZM17.5529 37.0312C19.1464 37.2348 15.6578 35.9487 17.1993 36.9187L17.5529 37.0312ZM23.0854 40.4362C24.5735 39.5413 24.0857 42.5189 25.6113 40.6844C27.1153 39.5875 24.3108 42.0455 26.167 40.8793C27.505 39.9844 29.4897 41.308 30.7382 41.7366C31.6403 41.6919 32.5193 42.519 33.4373 42.0152C35.2184 41.5346 29.9645 41.308 31.3401 40.4593C29.7163 40.9327 28.5139 39.8949 27.7172 38.8499C25.8899 38.4284 23.7854 37.496 22.8761 35.8809C22.5008 35.279 23.4102 35.9718 22.5528 34.9788C21.4558 34.0016 20.9059 32.8887 20.1698 31.7008C19.2908 31.2346 19.1854 29.8519 19.0945 31.6561C19.1017 30.513 18.0264 29.7465 17.7709 30.0698C17.7637 28.9729 18.914 29.5214 18.1086 28.7087C17.9354 27.5656 17.3639 26.3777 17.1921 25.0931C16.9294 24.4768 17.1546 23.1532 16.2828 24.5518C15.9667 26.0327 16.1774 22.7332 16.6739 23.8229C17.3206 22.7101 16.4415 22.8385 16.4026 22.9958C16.824 22.0562 16.6739 20.7254 16.29 21.2292C16.5151 20.2361 16.6508 17.5688 15.9522 18.0422C16.3737 17.0044 16.749 13.2834 14.9303 14.7037C14.1855 14.7109 12.9082 14.975 12.3063 15.2752C14.2014 16.3202 12.1114 15.6505 11.3435 15.486C11.2454 16.4487 10.479 16.0344 9.52488 16.0417C11.0505 16.2293 8.7801 17.5976 7.90108 17.0722C6.76659 17.6135 8.88547 18.9674 7.92418 19.3874C8.04398 20.0196 6.1878 19.1622 6.33069 20.6201C5.22506 20.1538 6.18058 22.3564 6.72906 21.6131C8.60834 22.1168 8.05264 23.2744 8.09738 24.38C7.79716 25.0195 6.59338 22.8688 7.83469 22.967C6.85752 21.3807 6.75216 22.3954 5.93232 23.133C5.74468 23.1849 8.01511 24.1852 6.59338 24.6817C7.8419 24.8693 7.87943 25.9678 8.12769 26.6591C8.87969 27.4487 8.72958 25.7946 9.63169 26.7414C9.06011 25.8999 6.61648 24.3728 8.57947 24.8621C8.57225 24.0206 8.22584 23.3365 8.82773 23.3581C9.42962 22.2756 8.20419 26.0269 9.54942 24.6514C9.9247 24.4854 10.0156 23.5689 10.6926 24.7337C11.6625 25.6964 11.039 26.3878 9.67066 25.5073C9.91171 26.3416 11.5052 26.6418 11.205 27.9437C11.5211 29.0941 11.9642 28.6654 12.3553 28.6048C12.6556 29.7176 12.8288 28.8978 12.8446 28.3638C14.2361 28.664 13.9041 29.4838 14.34 30.0626C15.2941 30.4913 12.9717 27.1311 14.6186 29.0479C16.3405 30.6111 15.2652 31.2577 13.7092 31.0095C14.6936 30.9344 15.0097 32.3403 16.2351 32.2869C17.3552 32.8209 18.1144 34.8647 16.1832 34.016C15.5134 33.4141 13.1463 32.6621 15.0862 33.8125C16.876 34.6396 18.2891 35.1361 20.0182 36.1724C21.2436 37.0514 21.7849 38.0676 22.2511 38.2624C21.2133 38.759 19.1233 37.8641 20.6721 37.5927C19.7093 37.4195 18.6196 36.9316 19.5448 38.134C20.3343 38.795 22.3334 38.72 22.6942 38.795C22.3854 39.4648 21.8672 39.5167 22.7087 39.5687C21.769 40.0724 23.0089 40.1475 23.0926 40.4333L23.0854 40.4362ZM21.1758 35.0307C20.6042 34.4288 20.4541 33.316 21.0704 34.2859C21.3865 34.4144 22.0851 36.1132 21.1758 35.0307V35.0307ZM27.4083 38.9856C27.7619 38.9711 27.4155 39.2569 27.4083 38.9856V38.9856ZM20.2737 33.5657C20.2506 32.6708 20.4772 34.2643 20.2737 33.5657V33.5657ZM19.6502 32.7386C18.9357 31.3559 20.5595 33.1298 19.6502 32.7386V32.7386ZM12.1475 27.5511C12.569 27.4386 12.351 28.2728 12.1475 27.5511V27.5511ZM18.1245 30.7915C18.38 29.8216 18.4247 31.6114 18.1245 30.7915V30.7915ZM13.8983 27.86C13.6053 27.326 14.5218 28.3638 13.8983 27.86V27.86ZM17.5226 29.0176C16.8457 27.4992 18.0033 28.1906 17.6727 29.2731L17.5226 29.0176ZM11.2757 24.852C10.9755 24.3555 10.4717 22.8905 10.6363 22.4459C10.7792 23.1676 12.1778 25.5737 11.3204 23.439C10.3736 21.6492 12.4549 24.0178 12.6743 24.4695C12.7725 24.9127 12.0883 24.3497 12.5459 25.3861C11.7044 24.1982 12.0493 26.0399 11.2757 24.852ZM9.34302 23.5212C9.42529 22.3637 9.78613 24.318 9.34302 23.5212V23.5212ZM10.2148 23.8229C10.6276 22.9439 10.9134 25.0411 10.2148 23.8229V23.8229ZM8.12481 22.2063C7.40312 21.4919 6.88495 20.8308 8.15512 21.7632C8.65164 21.7776 7.07259 20.2679 8.27492 21.2826C9.54509 21.5149 8.89846 23.3654 8.12481 22.2078V22.2063ZM9.22322 22.176C9.64468 21.7632 9.44116 22.5816 9.22322 22.176V22.176ZM9.90016 22.394C9.26796 21.2061 10.6666 22.8905 9.90016 22.394V22.394ZM8.55349 21.1094C6.46348 19.2532 11.1848 22.0865 8.89124 21.4558L8.55349 21.1094ZM14.5449 24.5893C13.6356 24.0481 14.3039 20.7702 14.6128 23.0103C15.4918 22.7245 14.5608 24.1679 15.2147 24.1534C15.1165 25.0628 14.8235 25.3933 14.5449 24.5893ZM16.7562 25.897C16.8471 24.9127 16.9438 26.574 16.7562 25.897V25.897ZM16.3723 25.5145C16.4704 25.0931 16.3795 26.0111 16.3723 25.5145V25.5145ZM8.96774 20.5003C7.62251 18.6441 12.8692 22.3723 9.8251 20.9665C9.509 20.8842 9.12651 20.8539 8.96774 20.5003ZM13.23 22.762C13.1016 21.1988 13.5158 23.0175 13.23 22.762V22.762ZM16.4704 24.8376C16.7187 23.9499 16.4848 25.4236 16.4704 24.8376V24.8376ZM9.16981 19.793C9.96655 19.6198 12.478 21.1916 10.1701 20.2448C9.91459 19.959 9.37333 20.0874 9.16981 19.793ZM16.0186 23.2066C16.1096 21.6131 16.4993 22.2525 16.0258 23.4317L16.0186 23.2066ZM9.76448 19.2373C10.0878 18.7639 8.8999 17.0795 9.93769 18.6354C10.3808 18.989 11.231 19.2286 10.479 19.3802C11.6596 20.418 10.1932 19.6588 9.76448 19.2373ZM15.6809 22.7101C15.906 20.8914 15.8844 23.7695 15.6809 22.7101V22.7101ZM9.08754 17.5601C9.3358 17.4547 9.216 17.8906 9.08754 17.5601V17.5601ZM10.6291 18.4781C11.0274 17.6438 11.358 19.4105 10.6291 18.4781V18.4781ZM14.9808 20.9058C14.9808 20.5825 15.0631 21.3648 14.9808 20.9058V20.9058ZM14.734 20.3415C14.1321 18.8534 15.2984 21.131 14.734 20.3415V20.3415ZM14.3573 19.3643C14.2592 18.748 14.7109 20.138 14.3573 19.3643V19.3643ZM14.9664 18.3799C14.5536 17.651 15.4932 15.1626 15.5899 16.7042C15.154 17.9065 15.4701 18.5834 15.7704 16.9669C16.3347 15.6967 15.6506 19.4783 14.9664 18.3799ZM15.5827 14.6806C15.7632 14.4554 15.6275 14.9433 15.5827 14.6806V14.6806ZM14.5536 35.1058C14.3053 34.8878 14.5839 35.2414 14.5536 35.1058V35.1058ZM16.6884 36.1811C17.869 36.49 17.869 36.0007 16.7937 35.8578C16.2149 35.3165 14.3963 34.7449 16.0273 35.7899C16.1327 36.0613 16.4791 36.0526 16.6811 36.1811H16.6884ZM12.4708 33.3853C13.1247 33.8746 14.9289 34.768 13.396 33.5657C13.9142 32.9725 12.4116 32.6491 12.9067 32.2508C11.6438 31.4685 11.9065 31.5435 12.8013 31.5666C11.267 30.8825 13.0193 30.9344 12.937 30.5822C12.3438 30.4696 10.0127 29.5444 11.3883 30.6573C9.98965 29.95 11.0505 30.9286 10.6291 30.8233C9.20012 30.4321 11.8992 31.913 10.4039 31.545C11.2237 32.1916 12.6137 33.2063 10.7503 32.2291C10.502 32.5828 12.0811 33.1168 12.4723 33.3867L12.4708 33.3853ZM14.7037 34.6699C17.4173 35.5417 13.3729 33.5946 14.7037 34.6699V34.6699ZM26.1295 41.5937C26.167 41.0525 25.7614 42.0527 26.1295 41.5937V41.5937ZM27.3102 42.0903C27.9337 41.4812 27.3333 43.053 28.3479 41.9402C28.3552 41.1434 28.3176 40.67 27.1831 41.6399C26.867 41.8131 26.7314 42.5493 27.3116 42.0917L27.3102 42.0903ZM8.65164 30.3701C8.464 29.6181 7.30641 29.6181 8.65164 30.3701V30.3701ZM9.90738 31.1971C9.44116 30.4235 8.24605 30.4985 9.90738 31.1971V31.1971ZM17.0492 35.5056C17.7478 36.1219 20.252 35.9574 17.8993 35.5806C17.5457 35.0625 15.6823 35.1895 17.0492 35.5056ZM26.8598 41.5634C27.9351 40.6613 25.822 41.9618 26.8598 41.5634V41.5634ZM29.0913 43.0905C29.0985 42.8047 28.6323 43.219 29.0913 43.0905V43.0905ZM29.0913 42.6922C30.2792 41.4292 27.9409 42.7672 29.0913 42.6922V42.6922ZM5.57003 27.7922C4.55534 26.3488 4.93783 25.695 3.96067 24.5215C3.78024 23.6122 2.29212 21.5669 3.19423 23.7392C4.02129 25.0021 4.26955 26.9637 5.57003 27.7907V27.7922ZM28.7232 42.2851C30.9114 40.8793 27.8283 41.676 28.7232 42.2851V42.2851ZM30.3932 42.9404C31.4902 42.008 29.7018 42.7456 30.3932 42.9404V42.9404ZM8.28358 28.7766C8.59968 28.3104 7.47962 28.7159 8.28358 28.7766V28.7766ZM30.0396 42.4959C31.099 41.8117 29.7985 41.9171 29.8519 42.5565L30.0396 42.4959ZM15.665 33.43C15.6275 32.971 15.1006 33.4675 15.665 33.43V33.43ZM16.5527 33.941C16.2669 33.3694 16.1168 34.0319 16.5527 33.941V33.941ZM31.7457 42.9621C33.0995 41.9777 30.9186 42.7672 31.4599 43.1425L31.7457 42.9621ZM31.2275 42.7066C32.3331 41.7814 30.054 43.1194 31.2275 42.7066V42.7066ZM33.8804 44.4733C34.6252 43.9768 32.9783 44.316 33.8804 44.4733V44.4733ZM8.96774 28.4388C9.96078 28.664 12.9442 30.8897 11.1848 28.5961C10.2827 28.3248 10.8239 26.1222 9.89871 26.5134C10.515 27.5439 10.4097 27.987 9.11641 27.3332C7.48539 26.5437 8.19986 27.7316 8.51452 28.0549C8.08584 28.153 9.09331 28.4302 8.96629 28.4388H8.96774ZM4.43409 24.8607C4.6073 24.1246 2.7872 20.8091 3.56951 23.1994C3.8553 23.6959 3.82499 24.65 4.43409 24.8607ZM12.7494 29.9948C12.2384 29.5661 12.7263 29.9269 12.7494 29.9948V29.9948ZM14.0123 30.2878C14.0123 29.5055 12.6209 29.9717 14.0123 30.2878V30.2878ZM24.9502 37.1813C24.7395 36.6473 24.1232 37.1669 24.9502 37.1813V37.1813ZM25.4756 37.5653C25.4006 37.2651 25.1754 37.6172 25.4756 37.5653V37.5653ZM29.813 40.2933C30.2258 39.9844 29.2948 40.2557 29.813 40.2933V40.2933ZM6.69731 25.4395C7.89242 24.9733 5.41992 25.109 6.69731 25.4395V25.4395ZM23.9875 36.3312C23.9731 35.5575 23.2283 36.5261 23.9875 36.3312V36.3312ZM6.22388 24.3411C6.99031 24.0784 5.51663 24.1679 6.22388 24.3411V24.3411ZM8.44812 25.4164C8.43369 25.1609 8.21574 25.5145 8.44812 25.4164V25.4164ZM35.5648 42.0455C36.5492 41.8507 38.798 42.5493 39.1588 41.7828C37.9637 41.7597 35.0163 40.9413 34.8807 41.9777L35.1434 42.0224L35.5648 42.0455ZM9.15538 25.5968C9.16981 24.8145 8.54627 25.5665 9.15538 25.5968V25.5968ZM3.30682 21.5366C3.04412 20.0485 2.29934 21.3114 3.30682 21.5366V21.5366ZM4.70545 21.8902C4.71988 21.4096 3.42806 21.4543 4.70545 21.8902V21.8902ZM5.50219 22.2814C5.26981 22.0937 5.32177 22.5138 5.50219 22.2814V22.2814ZM10.5078 25.4914C10.7489 25.2807 9.95212 25.3341 10.5078 25.4914V25.4914ZM4.96814 21.4024C4.83247 20.2751 3.35156 21.2292 4.96814 21.4024V21.4024ZM2.1117 19.5447C2.07417 19.0266 1.83313 19.7396 2.1117 19.5447V19.5447ZM2.53172 19.2214C2.46389 18.6051 2.17088 19.2965 2.53172 19.2214V19.2214ZM4.88587 20.6273C5.87891 20.2361 3.07443 19.8146 4.68235 20.5522L4.88587 20.6273ZM36.3168 40.0378C36.9562 39.459 35.5129 39.8574 36.3168 40.0378V40.0378ZM40.1201 42.008C40.3684 41.256 39.4735 42.1061 40.1201 42.008V42.008ZM5.12547 19.3946C5.23084 18.6657 4.33594 19.5375 5.12547 19.3946V19.3946ZM1.78117 17.1545C1.60075 16.1239 1.63106 14.3197 3.34435 14.9288C1.05082 15.3878 4.93062 17.778 4.44131 15.8916C5.40404 15.9363 6.3278 15.32 5.81685 16.2596C7.71922 16.0489 9.03413 14.4034 10.8687 14.6286C12.2976 14.441 13.8608 14.2981 15.4023 13.7265C16.6653 13.6283 17.8835 12.2687 17.1921 11.4633C15.4629 11.3132 13.6587 11.5311 11.7491 11.9064C9.63602 12.3495 7.71922 13.1838 5.58446 13.5446C3.50167 13.8232 5.99727 14.3111 5.40404 14.4236C4.32151 14.7989 6.69731 15.0558 5.26115 15.4455C4.38213 15.2796 3.45693 14.9721 3.83221 14.0397C1.84035 14.2952 0.0880896 15.1295 1.66714 17.1516L1.78117 17.1545ZM6.58472 14.7109C7.05093 12.9889 9.08754 16.1239 7.35116 14.936C7.14042 14.7859 6.80267 14.6575 6.58472 14.7109ZM6.67421 13.8766C7.34394 13.3801 7.02784 14.1552 6.67421 13.8766V13.8766ZM7.53158 13.8925C7.5922 13.103 9.48591 14.3139 7.84046 14.1783L7.53158 13.8925ZM8.69638 13.4176C9.12507 12.9211 8.82484 13.8694 8.69638 13.4176V13.4176ZM8.99805 13.2228C9.71252 12.3654 13.0352 12.6743 10.5988 13.1405C9.95212 12.6512 9.44838 13.4263 8.99805 13.2228ZM13.3354 12.553C13.2228 10.2148 15.486 13.3873 13.3354 12.553V12.553ZM14.5608 12.5458C15.0126 11.3651 16.3044 12.0724 14.7716 12.3048C14.8019 12.4332 14.7268 12.9139 14.5608 12.5458ZM4.63761 18.7927C5.98284 17.9657 3.21733 18.0783 4.63761 18.7927V18.7927ZM5.62921 19.0713C6.10264 18.5676 4.6073 18.8606 5.62921 19.0713V19.0713ZM2.70493 16.9885C3.47136 16.4025 1.80282 16.7634 2.70493 16.9885V16.9885ZM42.3602 41.7973C42.3833 41.1131 41.7742 42.1061 42.3602 41.7973V41.7973ZM38.3318 39.0462C38.4444 38.2567 37.8136 39.114 38.3318 39.0462V39.0462ZM43.4659 42.06C44.5412 42.06 46.7135 41.7294 44.3824 41.7294C44.0143 41.79 42.2477 41.7742 43.4659 42.06ZM6.50101 18.5834C7.37281 18.5228 7.86211 17.6294 6.33502 17.6813C3.96644 17.4331 8.41781 18.4853 6.0348 18.1851C5.71148 18.3958 6.48658 18.6441 6.50101 18.5834ZM7.26888 18.9732C7.17795 18.4088 6.99753 19.2662 7.26888 18.9732V18.9732ZM8.17099 16.5526C8.55493 16.0864 7.65282 16.4242 8.17099 16.5526V16.5526ZM5.28424 11.7274C6.8402 11.2006 8.96052 10.6074 9.68943 11.9829C8.94464 11.088 9.3892 10.209 10.095 11.5167C11.0881 12.8475 11.5831 10.9148 10.9365 10.4717C11.6726 11.3882 12.5083 11.8169 11.433 10.5236C12.6065 9.11779 9.08032 10.7113 8.27492 10.6968C7.89098 10.87 4.2912 11.6134 5.29002 11.7274H5.28424ZM6.19357 9.98959C7.08125 9.31986 9.25353 10.3807 7.85489 9.31986C7.72643 9.20728 4.80216 10.1238 6.19357 9.98959ZM9.41807 10.1181C10.4559 10.1484 8.97495 8.7353 10.2076 9.37327C10.0041 8.7122 8.77144 8.58374 8.16233 8.32105C7.82458 8.93015 8.86093 10.1253 9.41807 10.1181ZM6.76515 7.19377C7.11877 6.71313 6.13295 7.44203 6.76515 7.19377V7.19377ZM8.08006 7.50987C9.74139 7.29192 7.65138 6.7954 7.74231 7.49544L8.08006 7.50987ZM5.62199 5.58441C4.44853 4.0501 7.82458 5.8471 6.63669 4.23918C5.62921 3.44244 4.66648 5.14129 5.62199 5.58441V5.58441ZM20.6793 13.6962C21.2206 12.7421 18.4536 12.4101 20.3184 13.3584C20.4917 13.4191 20.4469 13.764 20.6793 13.6962Z" fill="#989898"/>
</svg>
