<svg width="47" height="47" viewBox="0 0 47 47" fill="none" xmlns="http://www.w3.org/2000/svg">
<path d="M45.6768 21.8099L25.5107 1.64484C24.35 0.48346 22.4664 0.48346 21.3043 1.64484L17.1167 5.83243L22.4289 11.1446C23.6633 10.7275 25.0789 11.0073 26.063 11.9913C27.0517 12.9817 27.3295 14.4093 26.9023 15.6477L32.0218 20.7674C33.2604 20.3407 34.6895 20.6167 35.6787 21.6076C37.0613 22.9897 37.0613 25.2296 35.6787 26.6125C34.2958 27.9956 32.0559 27.9956 30.6722 26.6125C29.6322 25.5715 29.3753 24.0442 29.9018 22.763L25.1275 17.9887L25.1269 30.5528C25.473 30.7239 25.7891 30.9499 26.063 31.2221C27.4455 32.6042 27.4455 34.8443 26.063 36.2283C24.68 37.6107 22.439 37.6107 21.0581 36.2283C19.6755 34.8443 19.6755 32.6043 21.0581 31.2223C21.3894 30.8908 21.7831 30.6283 22.2165 30.4499V17.7688C21.7825 17.5916 21.3885 17.3289 21.0581 16.9964C20.0105 15.9503 19.7587 14.4133 20.2954 13.1271L15.0588 7.88996L1.2313 21.7166C0.0693839 22.8791 0.0693839 24.7628 1.2313 25.9244L21.3978 46.0898C22.5588 47.2514 24.442 47.2514 25.6045 46.0898L45.6766 26.018C46.8382 24.8561 46.8382 22.9713 45.6766 21.8099" fill="#B8B8B8"/>
</svg>
