<svg width="177" height="47" viewBox="0 0 177 47" fill="none" xmlns="http://www.w3.org/2000/svg">
<path fill-rule="evenodd" clip-rule="evenodd" d="M163.956 19.7883C163.797 19.8174 163.638 20.1385 163.638 20.3135C163.607 21.4815 163.575 24.5761 163.575 26.6779C163.575 26.7365 163.67 26.8532 163.765 26.8532C164.241 26.8823 165.384 26.9114 166.368 26.9114C167.733 26.9114 168.526 26.7365 168.971 26.5615C170.113 26.0357 170.653 24.8972 170.653 23.6415C170.653 20.8101 168.494 19.7298 165.289 19.7298C165.066 19.7007 164.432 19.7007 163.956 19.7883V19.7883ZM172.145 32.838C172.145 29.9478 169.828 28.342 165.638 28.342C165.448 28.342 164.115 28.3129 163.797 28.3711C163.702 28.4005 163.575 28.459 163.575 28.5466C163.575 30.6191 163.543 33.9184 163.638 35.2028C163.702 35.7574 164.146 36.5457 164.686 36.7792C165.257 37.0712 166.558 37.1294 167.447 37.1294C169.954 37.1294 172.145 35.845 172.145 32.838V32.838ZM157.481 18.1828C157.799 18.1828 158.751 18.2701 161.195 18.2701C163.512 18.2701 165.352 18.2119 167.606 18.2119C170.367 18.2119 174.175 19.1167 174.175 22.912C174.175 24.7804 172.747 26.2695 170.875 26.9993C170.78 27.0285 170.78 27.0867 170.875 27.1158C173.541 27.7292 175.89 29.2471 175.89 32.1079C175.89 34.9108 173.985 36.6916 171.224 37.801C169.542 38.4723 167.447 38.7058 165.321 38.7058C163.702 38.7058 159.354 38.5308 156.942 38.5894C156.688 38.5014 157.164 37.4505 157.386 37.2755C157.957 37.2461 158.401 37.217 159.005 37.0418C159.862 36.8377 159.957 36.6039 160.084 35.4071C160.147 34.3853 160.147 30.7649 160.147 28.1961C160.147 24.6637 160.179 22.2698 160.147 21.1021C160.116 20.1974 159.767 19.9051 159.068 19.7298C158.528 19.6425 157.64 19.5254 156.91 19.4381C156.751 19.292 157.291 18.2992 157.481 18.1828ZM139.168 36.3413C139.93 36.8956 141.422 37.1291 142.755 37.1291C144.469 37.1291 146.182 36.8377 147.833 35.465C149.515 34.0642 150.689 31.9038 150.689 28.459C150.689 25.1597 149.325 22.4739 146.531 20.8978C144.945 19.9924 142.913 19.6134 140.565 19.6134C139.866 19.6134 139.2 19.6425 138.788 19.8174C138.692 19.876 138.47 20.1385 138.47 20.2844C138.406 20.8684 138.406 25.3641 138.406 27.9918C138.406 30.7067 138.406 34.5021 138.47 34.9399C138.47 35.378 138.692 36.0494 139.168 36.3413H139.168ZM131.963 18.1825C132.567 18.1825 134.883 18.2701 135.994 18.2701C137.994 18.2701 139.422 18.1828 143.199 18.1828C146.373 18.1828 149.039 18.9709 150.943 20.4596C153.26 22.2989 154.466 24.8389 154.466 27.9332C154.466 32.3417 152.276 34.8817 150.086 36.3413C147.897 37.8301 145.04 38.7058 140.977 38.7058C138.819 38.7058 135.106 38.6476 132.027 38.6182H131.995C131.837 38.3556 132.249 37.3338 132.503 37.3047C133.328 37.217 133.551 37.1876 133.963 37.0421C134.629 36.8083 134.757 36.4872 134.852 35.4071C134.947 33.3926 134.915 30.9696 134.915 28.2252C134.915 26.2695 134.947 22.4448 134.883 21.2186C134.788 20.1971 134.312 19.9342 133.36 19.7589C132.884 19.6716 132.249 19.5545 131.361 19.4672C131.233 19.2625 131.805 18.3578 131.963 18.1828V18.1825Z" fill="#B8B8B8"/>
<path fill-rule="evenodd" clip-rule="evenodd" d="M93.5601 37.4795C92.7667 37.3919 92.1954 37.2754 91.4973 36.9834C91.402 36.9249 91.2431 36.6332 91.2431 36.5162C91.1798 35.4943 91.1798 32.575 91.1798 30.6193C91.1798 29.0426 90.8944 27.6705 90.1642 26.7072C89.3071 25.5975 88.0697 24.9556 86.4824 24.9556C85.0861 24.9556 83.2134 25.8312 81.6581 27.0574C81.6265 27.0865 81.3727 27.2912 81.4043 26.9698C81.4043 26.6487 81.4679 26.0065 81.4996 25.5683C81.5316 25.1596 81.2774 24.9556 81.2774 24.9556C80.2618 25.4225 77.4054 26.0356 76.3578 26.1229C75.5964 26.2694 75.4058 26.9407 76.1996 27.1742H76.2313C77.0877 27.4076 77.6593 27.6705 78.1033 27.9334C78.4207 28.1669 78.3891 28.488 78.3891 28.7509C78.4207 30.9401 78.4207 34.2976 78.3258 36.1369C78.2942 36.8667 78.072 37.1293 77.5004 37.246L77.564 37.2169C77.1196 37.3045 76.7706 37.3919 76.2309 37.4504C76.0404 37.6256 76.0404 38.5598 76.2309 38.7642C76.58 38.7642 78.4207 38.6766 79.9447 38.6766C82.0392 38.6766 83.1185 38.7642 83.6577 38.7642C83.8799 38.5307 83.9435 37.6547 83.8166 37.4504C83.2134 37.4213 82.769 37.3631 82.3566 37.246C81.7854 37.129 81.6265 36.8667 81.5945 36.2536C81.5316 34.706 81.5316 31.4364 81.5316 29.2178C81.5316 28.6047 81.7218 28.3127 81.9119 28.1375C82.6421 27.5538 83.8166 27.1451 84.8639 27.1451C85.8795 27.1451 86.5457 27.4371 87.0537 27.8167C87.7519 28.3418 87.974 29.1011 88.0693 29.6557C88.2279 30.911 88.1646 33.3925 88.1646 35.5529C88.1646 36.7205 88.0693 37.0125 87.5937 37.1584C87.3711 37.246 86.7999 37.3631 86.1333 37.421C85.9112 37.6256 85.9748 38.5307 86.1333 38.7351C87.0537 38.7351 88.1329 38.6475 89.7198 38.6475C91.6875 38.6475 92.9572 38.7351 93.4652 38.7351C93.6234 38.5598 93.6871 37.7133 93.5601 37.4795V37.4795ZM102.352 26.3279C100.67 26.3279 99.6222 27.5247 99.6222 29.3928C99.6222 31.2906 100.543 33.4801 103.145 33.4801C103.589 33.4801 104.415 33.3048 104.795 32.8961C105.399 32.371 105.811 31.3197 105.811 30.2102C105.811 27.7873 104.51 26.3276 102.352 26.3276V26.3279ZM102.129 39.2311C101.495 39.2311 101.05 39.4064 100.765 39.5526C99.4317 40.3403 98.8288 41.0995 98.8288 42.005C98.8288 42.8512 99.1779 43.5225 99.9397 44.1065C100.86 44.8363 102.129 45.1869 103.748 45.1869C106.985 45.1869 108.414 43.581 108.414 42.005C108.414 40.8952 107.811 40.1653 106.573 39.7569C105.684 39.4064 104.066 39.2311 102.129 39.2311V39.2311ZM102.352 46.8218C100.416 46.8218 99.019 46.4422 97.8132 45.5956C96.6387 44.7781 96.131 43.5519 96.131 42.7054C96.131 42.4719 96.1947 41.8294 96.7659 41.2457C97.1147 40.8952 97.8768 40.2239 99.6859 39.0853C99.7492 39.0562 99.7808 39.0271 99.7808 38.9683C99.7808 38.91 99.7172 38.8515 99.6539 38.8227C98.1623 38.2973 97.7179 37.4504 97.5907 36.9834V36.9249C97.5594 36.7497 97.4957 36.5747 97.7815 36.3994C98.0037 36.2536 98.3212 36.0783 98.6699 35.8743C99.2095 35.582 99.7808 35.2609 100.13 34.998C100.194 34.9398 100.194 34.8816 100.194 34.823C100.194 34.7645 100.13 34.706 100.066 34.6772C97.8452 34.0056 96.7343 32.4874 96.7343 30.2102C96.7343 28.7215 97.4641 27.3785 98.7652 26.532C99.6539 25.8898 101.876 25.1014 103.336 25.1014H103.431C104.923 25.1305 105.748 25.4225 106.922 25.8021C107.557 26.0065 108.16 26.0938 108.985 26.0938C110.223 26.0938 110.762 25.7436 111.206 25.3352C111.238 25.3934 111.302 25.5396 111.334 25.9189C111.365 26.2985 111.238 26.8531 110.921 27.2618C110.667 27.5829 110.096 27.8167 109.525 27.8167H109.366C108.795 27.7582 108.54 27.6996 108.54 27.6996L108.414 27.7582C108.382 27.8167 108.414 27.8749 108.445 27.9625L108.477 28.0211C108.541 28.2836 108.668 29.0717 108.668 29.2764C108.668 31.6702 107.62 32.7209 106.509 33.5092C105.43 34.239 104.193 34.706 102.796 34.823C102.764 34.823 102.638 34.823 102.352 34.8521C102.193 34.8521 101.971 34.8816 101.939 34.8816H101.907C101.654 34.9398 101.019 35.2318 101.019 35.7278C101.019 36.1657 101.304 36.6914 102.669 36.7791C102.955 36.8082 103.24 36.8082 103.558 36.8376C105.367 36.954 107.62 37.1002 108.668 37.4213C110.128 37.9173 111.048 39.1144 111.048 40.545C111.048 42.7057 109.366 44.7199 106.573 45.9749C105.208 46.5298 103.843 46.8218 102.352 46.8218V46.8218ZM120.442 26.4738C119.776 26.4738 119.173 26.6193 118.729 26.9113C117.491 27.612 116.856 29.0135 116.856 31.0568C116.856 34.8816 118.951 37.5674 121.934 37.5674C122.823 37.5674 123.521 37.3336 124.124 36.8667C125.044 36.1657 125.521 34.7645 125.521 32.8085C125.521 29.0135 123.458 26.4734 120.443 26.4734L120.442 26.4738ZM121.014 38.9686C115.618 38.9686 113.682 35.3194 113.682 31.9037C113.682 29.5098 114.73 27.6705 116.824 26.3567C118.316 25.5101 120.094 25.0432 121.681 25.0432C125.806 25.0432 128.695 27.7582 128.695 31.6702C128.695 34.3267 127.552 36.4285 125.362 37.7133C124.315 38.3555 122.506 38.9686 121.014 38.9686H121.014V38.9686ZM64.4562 26.4734C63.7896 26.4734 63.1867 26.6193 62.742 26.9113C61.5046 27.612 60.8697 29.0135 60.8697 31.0568C60.8697 34.8816 62.9642 37.5674 65.9478 37.5674C66.8365 37.5674 67.5347 37.3336 68.1379 36.8667C69.0579 36.1657 69.5343 34.7645 69.5343 32.8085C69.5343 29.0135 67.503 26.4734 64.4562 26.4734ZM65.0274 38.9686C59.6319 38.9686 57.6959 35.3194 57.6959 31.9037C57.6959 29.5098 58.7431 27.6705 60.8377 26.3567C62.3296 25.5101 64.1071 25.0432 65.694 25.0432C69.8201 25.0432 72.7081 27.7582 72.7081 31.6702C72.7081 34.3267 71.5655 36.4285 69.3754 37.7133C68.3598 38.3555 66.5507 38.9686 65.0274 38.9686ZM28.7504 38.6766C28.6868 38.5893 28.6232 38.3264 28.6552 38.0053C28.6552 37.7715 28.7188 37.6256 28.7504 37.5674C29.417 37.4795 29.7661 37.3919 30.1468 37.3045C30.7817 37.1584 31.0355 36.8376 31.0671 36.1078C31.1628 34.3561 31.1628 31.0277 31.1308 28.7215V28.6629C31.1308 28.4004 31.1308 28.079 30.7817 27.8455C30.2737 27.5538 29.6708 27.2912 28.8773 27.0862C28.5919 26.9992 28.4014 26.8531 28.433 26.6781C28.433 26.5029 28.6235 26.2985 29.0362 26.24C30.0835 26.1523 32.8126 25.5396 33.8918 25.1014C33.9555 25.1596 34.0507 25.3352 34.0507 25.5687L34.0191 25.8895C33.9871 26.2109 33.9555 26.5905 33.9555 26.9698C33.9555 27.0865 34.0827 27.1742 34.2093 27.1742C34.2729 27.1742 34.3365 27.1451 34.3998 27.1156C36.4311 25.656 38.2718 25.1305 39.2238 25.1305C40.7794 25.1305 41.9855 25.8021 42.9059 27.2033C42.9692 27.2912 43.0328 27.3203 43.1281 27.3203C43.1913 27.3203 43.2863 27.2912 43.3183 27.2327C45.191 25.9189 47.0636 25.1305 48.3011 25.1305C51.2527 25.1305 52.9985 27.1451 52.9985 30.5608C52.9985 31.5241 52.9985 32.7794 52.9669 33.9183C52.9669 34.9398 52.9352 35.874 52.9352 36.5456C52.9352 36.6911 53.157 37.1584 53.5061 37.246C53.9505 37.4504 54.5537 37.538 55.3472 37.6547H55.3788C55.4425 37.8591 55.3155 38.618 55.1886 38.7642C54.9981 38.7642 54.7123 38.7642 54.3952 38.7351C53.5918 38.6965 52.7874 38.677 51.9829 38.6766C50.0152 38.6766 48.9996 38.7057 48.0153 38.7642C47.9524 38.5307 47.9204 37.83 48.0153 37.6547C48.5869 37.5674 48.8724 37.4795 49.2218 37.3922C49.8567 37.2169 50.0153 36.954 50.0472 36.1951C50.0472 35.6405 50.1738 30.911 49.9833 29.7724C49.7931 28.6047 48.8407 27.2327 46.7459 27.2327C45.9524 27.2327 44.715 27.5247 43.5088 28.371C43.4455 28.4295 43.3815 28.5753 43.3815 28.6629V28.6924C43.5088 29.3052 43.5088 30.0062 43.5088 31.0862V32.9837C43.5088 34.2976 43.4768 35.5238 43.5088 36.4577C43.5088 37.1002 43.9215 37.246 44.2706 37.3631C44.4611 37.3919 44.5877 37.4213 44.7466 37.4504C45.0321 37.5089 45.3179 37.5674 45.7622 37.6547C45.8258 37.7718 45.8258 38.1511 45.7306 38.4722C45.6986 38.6475 45.635 38.7348 45.6033 38.7642C44.5244 38.7351 43.4135 38.7057 41.795 38.7057C41.319 38.7057 40.4936 38.7351 39.7954 38.7351C39.2238 38.7351 38.6845 38.7642 38.3674 38.7642C38.3354 38.7057 38.2718 38.5016 38.2718 38.1802C38.2718 37.9176 38.3354 37.7133 38.399 37.6547C38.5576 37.6256 38.6845 37.5965 38.8434 37.5965C39.2238 37.538 39.5416 37.4795 39.8587 37.4213C40.3986 37.2754 40.5888 37.0125 40.6205 36.3703C40.7157 34.9107 40.811 30.736 40.5888 29.6848C40.2081 27.9916 39.1608 27.1451 37.4783 27.1451C36.4947 27.1451 35.2566 27.5829 34.2413 28.284C34.0824 28.4004 33.9555 28.6921 33.9555 28.9549V30.6775C33.9555 32.7794 33.9555 35.407 33.9871 36.5456C34.0191 36.8955 34.1457 37.3045 34.8758 37.4504C35.0347 37.4795 35.2885 37.538 35.606 37.5674L36.1769 37.6547C36.2409 37.83 36.2089 38.5307 36.082 38.7642C35.7645 38.7642 35.3838 38.7351 34.9391 38.7351C34.2729 38.7057 33.4158 38.6766 32.4638 38.6766C31.353 38.6766 30.5595 38.7057 29.9246 38.7351C29.4803 38.6766 29.1312 38.6766 28.7504 38.6766V38.6766Z" fill="#989898"/>
<path fill-rule="evenodd" clip-rule="evenodd" d="M12.0556 45.6833L10.7545 45.2742C10.7545 45.2742 10.9134 39.173 8.5327 38.7351C6.94615 37.0417 8.78721 -33.0818 14.4999 38.5013C14.4999 38.5013 12.5319 39.4061 12.1828 40.9537C11.8017 42.4719 12.0556 45.6833 12.0556 45.6833V45.6833Z" fill="white"/>
<path fill-rule="evenodd" clip-rule="evenodd" d="M12.0556 45.6833L10.7545 45.2742C10.7545 45.2742 10.9134 39.173 8.5327 38.7351C6.94615 37.0417 8.78721 -33.0818 14.4999 38.5013C14.4999 38.5013 12.5319 39.4061 12.1828 40.9537C11.8017 42.4719 12.0556 45.6833 12.0556 45.6833V45.6833Z" fill="#A6A385"/>
<path fill-rule="evenodd" clip-rule="evenodd" d="M12.7546 39.786C12.7546 39.786 24.149 32.896 21.4825 18.5616C18.912 8.13989 12.8499 4.72419 12.1833 3.41037C11.4535 2.47617 10.755 0.841553 10.755 0.841553L11.2313 29.8305C11.2313 29.86 10.2474 38.7056 12.755 39.7863" fill="white"/>
<path fill-rule="evenodd" clip-rule="evenodd" d="M12.7546 39.786C12.7546 39.786 24.149 32.896 21.4825 18.5616C18.912 8.13989 12.8499 4.72419 12.1833 3.41037C11.4535 2.47617 10.755 0.841553 10.755 0.841553L11.2313 29.8305C11.2313 29.86 10.2474 38.7056 12.755 39.7863" fill="#B8B8B8"/>
<path fill-rule="evenodd" clip-rule="evenodd" d="M10.0885 40.1645C10.0885 40.1645 -0.607708 33.4499 0.0271856 21.6267C0.630094 9.80318 8.18382 3.99361 9.6438 2.94268C10.5961 2.00848 10.6278 1.65796 10.6914 0.723755C11.3579 2.03758 11.231 20.3714 11.326 22.5315C11.6114 30.8516 10.8183 38.5885 10.0885 40.1645Z" fill="white"/>
<path fill-rule="evenodd" clip-rule="evenodd" d="M10.0885 40.1645C10.0885 40.1645 -0.607708 33.4499 0.0271856 21.6267C0.630094 9.80318 8.18382 3.99361 9.6438 2.94268C10.5961 2.00848 10.6278 1.65796 10.6914 0.723755C11.3579 2.03758 11.231 20.3714 11.326 22.5315C11.6114 30.8516 10.8183 38.5885 10.0885 40.1645Z" fill="#989898"/>
</svg>
