<svg width="22" height="46" viewBox="0 0 22 46" fill="none" xmlns="http://www.w3.org/2000/svg">
<path fill-rule="evenodd" clip-rule="evenodd" d="M12.0556 45.023L10.7545 44.6139C10.7545 44.6139 10.9134 38.5127 8.5327 38.0748C6.94615 36.3814 8.78721 -33.7421 14.4999 37.8411C14.4999 37.8411 12.5319 38.7458 12.1828 40.2935C11.8017 41.8116 12.0556 45.023 12.0556 45.023V45.023Z" fill="white"/>
<path fill-rule="evenodd" clip-rule="evenodd" d="M12.0556 45.023L10.7545 44.6139C10.7545 44.6139 10.9134 38.5127 8.5327 38.0748C6.94615 36.3814 8.78721 -33.7421 14.4999 37.8411C14.4999 37.8411 12.5319 38.7458 12.1828 40.2935C11.8017 41.8116 12.0556 45.023 12.0556 45.023V45.023Z" fill="#A6A385"/>
<path fill-rule="evenodd" clip-rule="evenodd" d="M12.7546 39.1258C12.7546 39.1258 24.149 32.2359 21.4825 17.9015C18.912 7.47974 12.8499 4.06404 12.1833 2.75021C11.4535 1.81601 10.755 0.181396 10.755 0.181396L11.2313 29.1704C11.2313 29.1998 10.2474 38.0455 12.755 39.1261" fill="white"/>
<path fill-rule="evenodd" clip-rule="evenodd" d="M12.7546 39.1258C12.7546 39.1258 24.149 32.2359 21.4825 17.9015C18.912 7.47974 12.8499 4.06404 12.1833 2.75021C11.4535 1.81601 10.755 0.181396 10.755 0.181396L11.2313 29.1704C11.2313 29.1998 10.2474 38.0455 12.755 39.1261" fill="#499D4A"/>
<path fill-rule="evenodd" clip-rule="evenodd" d="M10.0885 39.5043C10.0885 39.5043 -0.607708 32.7896 0.0271856 20.9664C0.630094 9.1429 8.18382 3.33334 9.6438 2.2824C10.5961 1.3482 10.6278 0.997677 10.6914 0.0634766C11.3579 1.3773 11.231 19.7111 11.326 21.8712C11.6114 30.1914 10.8183 37.9282 10.0885 39.5043Z" fill="white"/>
<path fill-rule="evenodd" clip-rule="evenodd" d="M10.0885 39.5043C10.0885 39.5043 -0.607708 32.7896 0.0271856 20.9664C0.630094 9.1429 8.18382 3.33334 9.6438 2.2824C10.5961 1.3482 10.6278 0.997677 10.6914 0.0634766C11.3579 1.3773 11.231 19.7111 11.326 21.8712C11.6114 30.1914 10.8183 37.9282 10.0885 39.5043Z" fill="#58AA50"/>
</svg>
