<svg width="59" height="40" viewBox="0 0 59 40" fill="none" xmlns="http://www.w3.org/2000/svg">
<path d="M40.0134 4.49681C39.7319 4.49681 39.5443 4.5347 39.3548 4.58161V4.61048H39.3837C39.5154 4.85405 39.7319 5.04349 39.8997 5.26902C40.0314 5.52342 40.1433 5.78503 40.2659 6.03942L40.3038 6.00153C40.5294 5.84096 40.643 5.58837 40.643 5.20227C40.5492 5.0886 40.5294 4.96772 40.4464 4.86307C40.3525 4.7025 40.1451 4.6195 40.0134 4.49681ZM14.4259 36.2385H12.1995C12.1321 32.6947 11.916 29.1553 11.5518 25.6296H11.5337L8.14181 36.2385H6.44043L3.07556 25.6296H3.0467C2.7852 29.1605 2.62877 32.6983 2.5776 36.2385H0.547852C0.657758 31.7895 0.987128 27.3488 1.53476 22.9323H4.29702L7.51034 32.7058H7.52838L10.7706 22.9323H13.4011C13.9839 27.7821 14.3321 32.2168 14.4349 36.2385H14.4259ZM24.0857 26.4199C23.1836 31.3436 21.9802 34.925 20.5061 37.1514C19.3406 38.8708 18.0722 39.735 16.6902 39.735C16.3239 39.735 15.8729 39.6214 15.328 39.3958V38.2123C15.6005 38.2502 15.9108 38.2772 16.259 38.2772C16.9067 38.2772 17.4245 38.0896 17.8196 37.7414C18.2887 37.3084 18.5251 36.8212 18.5251 36.2854C18.5251 35.9101 18.3465 35.1577 17.9712 34.012L15.5373 26.4199H17.7276L19.4759 32.096C19.871 33.3932 20.0406 34.2863 19.9649 34.8023C20.9319 32.2457 21.5995 29.4456 21.9766 26.4199H24.0857ZM53.7417 36.2385H47.4089V22.9323H49.5414V34.6038H53.7417V36.2385ZM45.7544 36.5596L43.3115 35.3562C43.528 35.1776 43.7337 34.9809 43.9231 34.7554C44.9659 33.543 45.4837 31.7297 45.4837 29.3427C45.4837 24.935 43.7553 22.7375 40.2966 22.7375C38.6043 22.7375 37.28 23.2914 36.3309 24.41C35.2971 25.6314 34.7703 27.4357 34.7703 29.8136C34.7703 32.1537 35.2304 33.8641 36.1523 34.9629C36.9985 35.9408 38.2669 36.4387 39.9683 36.4387C40.5979 36.4387 41.1807 36.3629 41.7075 36.2042L44.8938 38.0643L45.767 36.5614L45.7544 36.5596ZM37.8339 33.57C37.289 32.7058 37.0256 31.3147 37.0256 29.3969C37.0256 26.0428 38.0413 24.3703 40.0801 24.3703C41.1428 24.3703 41.9312 24.7744 42.4292 25.5737C42.9651 26.447 43.2375 27.82 43.2375 29.718C43.2375 33.0919 42.2127 34.7933 40.183 34.7933C39.1112 34.7933 38.3318 34.3891 37.8248 33.5899L37.8339 33.57ZM33.8483 32.556C33.8483 33.6837 33.4352 34.6147 32.598 35.3273C31.7717 36.0508 30.6711 36.4171 29.271 36.4171C27.9648 36.4171 26.7145 36.0039 25.484 35.1758L26.0577 34.0301C27.1096 34.5569 28.0586 34.8203 28.9246 34.8203C29.7239 34.8203 30.3536 34.6417 30.8046 34.2935C31.2557 33.9363 31.5281 33.4383 31.5281 32.8086C31.5281 32.0184 30.9742 31.3418 29.9675 30.7789C29.0365 30.2629 27.1673 29.2002 27.1673 29.2002C26.1515 28.4587 25.6536 27.6684 25.6536 26.3622C25.6536 25.2814 26.0288 24.4172 26.7812 23.7587C27.5426 23.0821 28.5097 22.7537 29.7131 22.7537C30.9103 22.7433 32.084 23.0866 33.087 23.7406L32.5709 24.8863C31.7648 24.5313 30.8952 24.3429 30.0144 24.3324C29.3288 24.3324 28.8019 24.502 28.4357 24.8304C28.0694 25.1587 27.8439 25.5719 27.8439 26.0897C27.8439 26.88 28.4086 27.5565 29.4406 28.1375C30.3896 28.6535 32.2967 29.7451 32.2967 29.7451C33.3395 30.4776 33.8574 31.2678 33.8574 32.5542L33.8483 32.556ZM56.4119 18.4705C55.1237 18.4416 54.1278 18.5733 53.2924 18.9306C53.0579 19.0244 52.6718 19.0244 52.6339 19.3257C52.7656 19.4574 52.7836 19.6649 52.8973 19.8417C53.094 20.1611 53.4241 20.5941 53.7344 20.8196C54.0736 21.083 54.411 21.3464 54.7592 21.572C55.3889 21.9581 56.0944 22.1836 56.7132 22.5679C57.0614 22.7934 57.4187 23.0839 57.7651 23.3202C57.9437 23.4429 58.0556 23.6594 58.2811 23.7334V23.6865C58.1674 23.5458 58.1404 23.3383 58.0267 23.1705C57.8661 23.0099 57.7073 22.8692 57.5468 22.7104C57.0762 22.0857 56.5121 21.5374 55.8743 21.0848C55.3582 20.7366 54.2306 20.2477 54.0231 19.6559L53.9943 19.618C54.3425 19.5891 54.7556 19.4574 55.093 19.3636C55.6379 19.2229 56.1449 19.2499 56.7096 19.1092C56.9687 19.042 57.2256 18.9667 57.48 18.8837V18.7429C57.1895 18.4525 56.973 18.0573 56.6717 17.7849C55.8414 17.0584 54.9552 16.3984 54.0213 15.8111C53.5143 15.4827 52.8756 15.2752 52.3398 15.0028C52.1522 14.909 51.8238 14.8621 51.7191 14.7015C51.4287 14.3442 51.2591 13.8842 51.0516 13.4602C50.5796 12.5429 50.1409 11.6089 49.7363 10.66C49.4458 10.0304 49.2762 9.40971 48.919 8.82694C47.2645 6.09175 45.4603 4.43908 42.698 2.81348C42.1063 2.47428 41.3918 2.33356 40.6394 2.15494C40.2353 2.1369 39.8402 2.10803 39.436 2.08999C39.1726 1.97632 38.92 1.67682 38.6945 1.52526C37.7743 0.942502 35.4054 -0.307823 34.7378 1.34665C34.3048 2.39851 35.3765 3.4233 35.7536 3.95014C36.026 4.32541 36.3742 4.74038 36.5709 5.15355C36.6846 5.43501 36.7116 5.72729 36.8253 6.01777C37.0797 6.72322 37.3233 7.51167 37.6625 8.17021C37.8411 8.5094 38.0287 8.86483 38.2542 9.16614C38.3859 9.34475 38.6115 9.42053 38.6584 9.71101C38.4329 10.0394 38.4148 10.5193 38.2921 10.9144C37.7094 12.7367 37.9349 14.9829 38.7522 16.3271C39.0156 16.7312 39.6254 17.6153 40.4446 17.2761C41.1681 16.9856 41.0093 16.0727 41.215 15.2644C41.2619 15.0677 41.233 14.9451 41.3286 14.8133V14.8512C41.5632 15.3023 41.7887 15.7353 41.9962 16.1864C42.4851 16.9766 43.3584 17.7939 44.0819 18.3388C44.468 18.6293 44.7675 19.129 45.2474 19.3059V19.2589H45.2095C45.1067 19.1182 44.975 19.0515 44.8433 18.9396C44.5386 18.6378 44.2558 18.3146 43.9971 17.9725C43.3295 17.0704 42.7287 16.0745 42.2019 15.0497C41.9481 14.5434 41.7163 14.0263 41.5072 13.4999C41.4134 13.3122 41.4134 13.0199 41.2529 12.9261C41.0093 13.2743 40.6521 13.5738 40.4825 14.0159C40.1721 14.7015 40.1433 15.5567 40.0224 16.4408C39.9664 16.4588 39.9935 16.4408 39.9664 16.4786C39.4504 16.3469 39.2718 15.8201 39.0824 15.369C38.5934 14.2234 38.5177 12.3903 38.9326 11.075C39.0463 10.7358 39.5244 9.67493 39.3368 9.35558C39.2339 9.04525 38.9146 8.86663 38.745 8.62306C38.5285 8.32176 38.312 7.93746 38.1622 7.59827C37.7761 6.69616 37.5885 5.70023 37.1663 4.79812C36.9787 4.38495 36.6395 3.95194 36.367 3.56764C36.0567 3.13463 35.7193 2.82611 35.483 2.31732C35.3982 2.1387 35.2863 1.84822 35.418 1.65878C35.4469 1.52707 35.5118 1.48016 35.6435 1.44227C35.851 1.26365 36.4518 1.48918 36.6593 1.59202C37.2511 1.82657 37.7491 2.0521 38.247 2.39129C38.4726 2.55187 38.7161 2.85137 39.0084 2.93616H39.3476C39.8636 3.04983 40.4373 2.96503 40.9173 3.11478C41.7725 3.38722 42.5429 3.78234 43.2375 4.21355C45.3618 5.57718 47.0892 7.47642 48.246 9.72003C48.4427 10.0863 48.5275 10.4255 48.7061 10.8098C49.0345 11.6091 49.4584 12.4065 49.7958 13.1679C50.1332 13.9293 50.4544 14.6997 50.9415 15.3294C51.1851 15.6685 52.1449 15.8454 52.5852 16.015C52.9045 16.1647 53.4025 16.2964 53.6839 16.466C54.2378 16.8052 54.7827 17.1895 55.3005 17.5648C55.5639 17.7434 56.3632 18.1475 56.4101 18.4669L56.4119 18.4705Z" fill="#216497"/>
<path fill-rule="evenodd" clip-rule="evenodd" d="M47.4727 36.0232H53.8055V34.3886H49.6053V22.7171H47.4727V36.0232ZM43.3753 35.1409L45.8183 36.3443L45.8309 36.3462L44.9577 37.8491L41.7714 35.9889C41.2446 36.1477 40.6618 36.2235 40.0321 36.2235C38.3308 36.2235 37.0624 35.7255 36.2162 34.7476C35.2943 33.6488 34.8342 31.9384 34.8342 29.5984C34.8342 27.2204 35.361 25.4162 36.3948 24.1947C37.3438 23.0761 38.6681 22.5222 40.3605 22.5222C43.8192 22.5222 45.5476 24.7198 45.5476 29.1275C45.5476 31.5145 45.0298 33.3277 43.987 34.5401C43.7975 34.7657 43.5919 34.9623 43.3753 35.1409ZM37.0894 29.1816C37.0894 31.0995 37.3529 32.4905 37.8977 33.3547L37.8887 33.3746C38.3957 34.1739 39.1751 34.578 40.2468 34.578C42.2766 34.578 43.3014 32.8766 43.3014 29.5027C43.3014 27.6047 43.0289 26.2317 42.4931 25.3585C41.9951 24.5592 41.2067 24.155 40.144 24.155C38.1052 24.155 37.0894 25.8275 37.0894 29.1816ZM32.6619 35.1121C33.499 34.3994 33.9122 33.4684 33.9122 32.3408L33.9212 32.339C33.9212 31.0526 33.4034 30.2623 32.3606 29.5298C32.3606 29.5298 30.4535 28.4383 29.5045 27.9222C28.4725 27.3413 27.9078 26.6647 27.9078 25.8745C27.9078 25.3566 28.1333 24.9435 28.4996 24.6151C28.8658 24.2867 29.3926 24.1171 30.0783 24.1171C30.9591 24.1276 31.8287 24.316 32.6348 24.671L33.1508 23.5254C32.1479 22.8714 30.9742 22.5281 29.7769 22.5385C28.5735 22.5385 27.6065 22.8668 26.8451 23.5434C26.0927 24.2019 25.7174 25.0662 25.7174 26.1469C25.7174 27.4532 26.2154 28.2434 27.2312 28.9849C27.2312 28.9849 29.1004 30.0476 30.0313 30.5636C31.0381 31.1265 31.592 31.8031 31.592 32.5934C31.592 33.223 31.3196 33.721 30.8685 34.0782C30.4174 34.4265 29.7878 34.6051 28.9885 34.6051C28.1225 34.6051 27.1735 34.3417 26.1216 33.8148L25.5479 34.9605C26.7783 35.7886 28.0287 36.2018 29.3349 36.2018C30.735 36.2018 31.8356 35.8356 32.6619 35.1121Z" fill="#FFBA35"/>
</svg>
