<svg width="58" height="40" viewBox="0 0 58 40" fill="none" xmlns="http://www.w3.org/2000/svg">
<path d="M39.4672 4.65435C39.1858 4.65435 38.9981 4.69223 38.8087 4.73914V4.76801H38.8375C38.9692 5.01158 39.1858 5.20102 39.3535 5.42655C39.4853 5.68095 39.5971 5.94256 39.7198 6.19696L39.7577 6.15907C39.9832 5.99849 40.0969 5.7459 40.0969 5.3598C40.0031 5.24613 39.9832 5.12525 39.9002 5.0206C39.8064 4.86003 39.5989 4.77703 39.4672 4.65435ZM13.8798 36.396H11.6534C11.5859 32.8522 11.3698 29.3128 11.0056 25.7872H10.9876L7.59567 36.396H5.89429L2.52942 25.7872H2.50055C2.23906 29.318 2.08263 32.8558 2.03146 36.396H0.00170898C0.111615 31.9471 0.440985 27.5063 0.988617 23.0899H3.75088L6.96419 32.8633H6.98224L10.2244 23.0899H12.855C13.4377 27.9396 13.7859 32.3744 13.8888 36.396H13.8798ZM23.5396 26.5774C22.6375 31.5011 21.434 35.0825 19.96 37.3089C18.7945 39.0283 17.5261 39.8926 16.1441 39.8926C15.7778 39.8926 15.3268 39.7789 14.7819 39.5534V38.3698C15.0543 38.4077 15.3646 38.4348 15.7129 38.4348C16.3606 38.4348 16.8784 38.2471 17.2735 37.8989C17.7426 37.4659 17.979 36.9788 17.979 36.4429C17.979 36.0676 17.8003 35.3153 17.4251 34.1696L14.9912 26.5774H17.1815L18.9298 32.2535C19.3249 33.5507 19.4945 34.4438 19.4187 34.9598C20.3858 32.4032 21.0533 29.6031 21.4304 26.5774H23.5396ZM53.1955 36.396H46.8627V23.0899H48.9953V34.7614H53.1955V36.396ZM45.2082 36.7171L42.7653 35.5137C42.9818 35.3351 43.1875 35.1384 43.377 34.9129C44.4198 33.7005 44.9376 31.8872 44.9376 29.5003C44.9376 25.0926 43.2092 22.895 39.7505 22.895C38.0581 22.895 36.7338 23.4489 35.7848 24.5675C34.751 25.789 34.2242 27.5932 34.2242 29.9712C34.2242 32.3112 34.6842 34.0216 35.6062 35.1204C36.4524 36.0983 37.7207 36.5963 39.4221 36.5963C40.0518 36.5963 40.6345 36.5205 41.1614 36.3617L44.3476 38.2219L45.2209 36.7189L45.2082 36.7171ZM37.2877 33.7275C36.7428 32.8633 36.4794 31.4723 36.4794 29.5544C36.4794 26.2003 37.4952 24.5278 39.534 24.5278C40.5967 24.5278 41.3851 24.932 41.8831 25.7312C42.4189 26.6045 42.6914 27.9775 42.6914 29.8755C42.6914 33.2494 41.6666 34.9508 39.6368 34.9508C38.5651 34.9508 37.7857 34.5467 37.2787 33.7474L37.2877 33.7275ZM33.3022 32.7136C33.3022 33.8412 32.889 34.7722 32.0519 35.4849C31.2255 36.2083 30.125 36.5746 28.7249 36.5746C27.4186 36.5746 26.1683 36.1614 24.9378 35.3333L25.5116 34.1876C26.5634 34.7145 27.5125 34.9779 28.3785 34.9779C29.1777 34.9779 29.8074 34.7993 30.2585 34.451C30.7095 34.0938 30.982 33.5958 30.982 32.9662C30.982 32.1759 30.4281 31.4993 29.4213 30.9364C28.4903 30.4204 26.6212 29.3577 26.6212 29.3577C25.6054 28.6162 25.1074 27.8259 25.1074 26.5197C25.1074 25.439 25.4827 24.5747 26.2351 23.9162C26.9964 23.2396 27.9635 22.9112 29.1669 22.9112C30.3642 22.9009 31.5379 23.2442 32.5408 23.8982L32.0248 25.0438C31.2186 24.6888 30.349 24.5004 29.4682 24.4899C28.7826 24.4899 28.2558 24.6595 27.8895 24.9879C27.5233 25.3163 27.2978 25.7294 27.2978 26.2473C27.2978 27.0375 27.8625 27.7141 28.8945 28.295C29.8435 28.811 31.7506 29.9026 31.7506 29.9026C32.7934 30.6351 33.3112 31.4254 33.3112 32.7118L33.3022 32.7136ZM55.8658 18.628C54.5776 18.5992 53.5816 18.7309 52.7463 19.0881C52.5117 19.1819 52.1256 19.1819 52.0877 19.4832C52.2194 19.6149 52.2375 19.8224 52.3512 19.9992C52.5478 20.3186 52.878 20.7516 53.1883 20.9771C53.5275 21.2405 53.8649 21.504 54.2131 21.7295C54.8428 22.1156 55.5482 22.3411 56.1671 22.7254C56.5153 22.9509 56.8725 23.2414 57.2189 23.4778C57.3976 23.6005 57.5094 23.817 57.7349 23.8909V23.844C57.6213 23.7033 57.5942 23.4958 57.4805 23.328C57.32 23.1674 57.1612 23.0267 57.0006 22.8679C56.5301 22.2432 55.9659 21.6949 55.3281 21.2423C54.8121 20.8941 53.6845 20.4052 53.477 19.8134L53.4481 19.7755C53.7963 19.7466 54.2095 19.6149 54.5469 19.5211C55.0918 19.3804 55.5987 19.4075 56.1635 19.2667C56.4225 19.1995 56.6794 19.1243 56.9339 19.0412V18.9005C56.6434 18.61 56.4269 18.2149 56.1256 17.9424C55.2953 17.2159 54.4091 16.5559 53.4752 15.9686C52.9682 15.6402 52.3295 15.4328 51.7936 15.1603C51.606 15.0665 51.2776 15.0196 51.173 14.859C50.8825 14.5018 50.7129 14.0417 50.5054 13.6177C50.0335 12.7004 49.5948 11.7665 49.1902 10.8176C48.8997 10.1879 48.7301 9.56724 48.3728 8.98448C46.7184 6.24928 44.9142 4.59661 42.1519 2.97101C41.5601 2.63182 40.8456 2.49109 40.0933 2.31247C39.6891 2.29443 39.294 2.26556 38.8899 2.24752C38.6264 2.13385 38.3739 1.83435 38.1483 1.6828C37.2282 1.10003 34.8592 -0.150291 34.1917 1.50418C33.7587 2.55604 34.8304 3.58084 35.2075 4.10767C35.4799 4.48295 35.8281 4.89792 36.0248 5.31108C36.1384 5.59254 36.1655 5.88483 36.2792 6.1753C36.5336 6.88075 36.7771 7.6692 37.1163 8.32774C37.2949 8.66693 37.4826 9.02236 37.7081 9.32367C37.8398 9.50229 38.0653 9.57806 38.1122 9.86854C37.8867 10.1969 37.8687 10.6768 37.746 11.072C37.1632 12.8942 37.3888 15.1405 38.2061 16.4846C38.4695 16.8888 39.0793 17.7728 39.8984 17.4336C40.6219 17.1432 40.4631 16.2302 40.6688 15.4219C40.7157 15.2253 40.6869 15.1026 40.7825 14.9709V15.0088C41.017 15.4598 41.2426 15.8928 41.4501 16.3439C41.939 17.1341 42.8122 17.9514 43.5357 18.4963C43.9218 18.7868 44.2213 19.2866 44.7013 19.4634V19.4165H44.6634C44.5605 19.2757 44.4288 19.209 44.2971 19.0971C43.9924 18.7953 43.7096 18.4721 43.4509 18.1301C42.7834 17.228 42.1826 16.232 41.6557 15.2072C41.4019 14.7009 41.1702 14.1838 40.9611 13.6574C40.8673 13.4698 40.8673 13.1775 40.7067 13.0837C40.4631 13.4319 40.1059 13.7314 39.9363 14.1734C39.626 14.859 39.5971 15.7142 39.4762 16.5983C39.4203 16.6163 39.4474 16.5983 39.4203 16.6362C38.9043 16.5045 38.7257 15.9776 38.5362 15.5266C38.0473 14.3809 37.9715 12.5478 38.3865 11.2325C38.5002 10.8933 38.9783 9.83246 38.7906 9.51311C38.6878 9.20278 38.3684 9.02417 38.1988 8.7806C37.9823 8.47929 37.7658 8.09499 37.6161 7.7558C37.23 6.85369 37.0423 5.85776 36.6202 4.95565C36.4325 4.54249 36.0933 4.10947 35.8209 3.72517C35.5106 3.29216 35.1732 2.98364 34.9368 2.47485C34.852 2.29623 34.7402 2.00575 34.8719 1.81631C34.9007 1.6846 34.9657 1.63769 35.0974 1.5998C35.3049 1.42118 35.9057 1.64671 36.1132 1.74955C36.705 1.9841 37.2029 2.20963 37.7009 2.54882C37.9264 2.7094 38.17 3.0089 38.4623 3.0937H38.8015C39.3175 3.20736 39.8912 3.12256 40.3711 3.27231C41.2263 3.54475 41.9967 3.93988 42.6914 4.37108C44.8156 5.73471 46.5431 7.63395 47.6999 9.87756C47.8965 10.2438 47.9813 10.583 48.1599 10.9673C48.4883 11.7666 48.9123 12.564 49.2497 13.3254C49.5871 14.0868 49.9082 14.8572 50.3954 15.4869C50.6389 15.8261 51.5988 16.0029 52.039 16.1725C52.3584 16.3222 52.8563 16.4539 53.1378 16.6235C53.6917 16.9627 54.2366 17.347 54.7544 17.7223C55.0178 17.9009 55.8171 18.3051 55.864 18.6244L55.8658 18.628Z" fill="#B8B8B8"/>
</svg>
