<svg width="48" height="44" viewBox="0 0 48 44" fill="none" xmlns="http://www.w3.org/2000/svg">
<path d="M23.749 0.229126C12.0519 0.229126 12.7823 5.0033 12.7823 5.0033L12.7953 9.94949H23.9576V11.4345H8.36176C8.36176 11.4345 0.87677 10.6355 0.87677 21.7436C0.87677 32.852 7.40985 32.458 7.40985 32.458H11.3088V27.3033C11.3088 27.3033 11.0986 21.1545 17.7376 21.1545H28.8086C28.8086 21.1545 35.0287 21.2491 35.0287 15.4966V5.98531C35.0287 5.98531 35.9734 0.229126 23.749 0.229126ZM17.5941 3.55534C17.8579 3.55512 18.1191 3.60385 18.3629 3.69875C18.6066 3.79365 18.8281 3.93286 19.0146 4.1084C19.2011 4.28395 19.349 4.49239 19.4499 4.72179C19.5507 4.95119 19.6025 5.19706 19.6022 5.44531C19.6025 5.69357 19.5507 5.93944 19.4499 6.16884C19.349 6.39824 19.2011 6.60668 19.0146 6.78223C18.8281 6.95777 18.6066 7.09698 18.3629 7.19188C18.1191 7.28678 17.8579 7.33551 17.5941 7.33529C17.3304 7.33551 17.0691 7.28678 16.8254 7.19188C16.5816 7.09698 16.3602 6.95777 16.1737 6.78223C15.9871 6.60668 15.8392 6.39824 15.7384 6.16884C15.6376 5.93944 15.5858 5.69357 15.586 5.44531C15.5858 5.19706 15.6376 4.95119 15.7384 4.72179C15.8392 4.49239 15.9871 4.28395 16.1737 4.1084C16.3602 3.93286 16.5816 3.79365 16.8254 3.69875C17.0691 3.60385 17.3304 3.55512 17.5941 3.55534Z" fill="url(#paint0_linear)"/>
<path d="M24.0812 43.3699C35.7783 43.3699 35.048 38.5957 35.048 38.5957L35.035 33.6497H23.8725V32.1647H39.4683C39.4683 32.1647 46.9533 32.9637 46.9533 21.8553C46.9533 10.7471 40.4202 11.141 40.4202 11.141H36.5213V16.2956C36.5213 16.2956 36.7315 22.4443 30.0925 22.4443H19.0215C19.0215 22.4443 12.8014 22.3498 12.8014 28.1024V37.6139C12.8014 37.6139 11.8569 43.3699 24.081 43.3699H24.0812ZM30.2361 40.044C29.9724 40.0442 29.7111 39.9955 29.4674 39.9006C29.2236 39.8057 29.0022 39.6665 28.8157 39.4909C28.6291 39.3154 28.4812 39.107 28.3804 38.8776C28.2796 38.6482 28.2278 38.4023 28.228 38.154C28.2278 37.9058 28.2795 37.6599 28.3803 37.4305C28.4812 37.201 28.6291 36.9926 28.8156 36.817C29.0021 36.6414 29.2236 36.5022 29.4673 36.4073C29.7111 36.3124 29.9723 36.2637 30.2361 36.2639C30.4999 36.2637 30.7611 36.3124 31.0049 36.4073C31.2486 36.5022 31.4701 36.6414 31.6566 36.817C31.8431 36.9925 31.991 37.2009 32.0918 37.4303C32.1927 37.6597 32.2445 37.9056 32.2442 38.1539C32.2445 38.4021 32.1927 38.648 32.0918 38.8774C31.991 39.1068 31.8431 39.3152 31.6566 39.4908C31.4701 39.6663 31.2486 39.8055 31.0049 39.9004C30.7611 39.9953 30.4999 40.0441 30.2361 40.0438V40.044Z" fill="url(#paint1_linear)"/>
<defs>
<linearGradient id="paint0_linear" x1="5.30471" y1="4.10937" x2="26.7692" y2="26.6879" gradientUnits="userSpaceOnUse">
<stop stop-color="#387EB8"/>
<stop offset="1" stop-color="#366994"/>
</linearGradient>
<linearGradient id="paint1_linear" x1="19.3203" y1="17.772" x2="42.4353" y2="40.9891" gradientUnits="userSpaceOnUse">
<stop stop-color="#FFE052"/>
<stop offset="1" stop-color="#FFC331"/>
</linearGradient>
</defs>
</svg>
