<svg width="48" height="44" viewBox="0 0 48 44" fill="none" xmlns="http://www.w3.org/2000/svg">
<path d="M23.8824 0.229126C12.1853 0.229126 12.9156 5.0033 12.9156 5.0033L12.9286 9.94949H24.091V11.4345H8.49512C8.49512 11.4345 1.01013 10.6355 1.01013 21.7436C1.01013 32.852 7.54321 32.458 7.54321 32.458H11.4421V27.3033C11.4421 27.3033 11.2319 21.1545 17.8709 21.1545H28.942C28.942 21.1545 35.162 21.2491 35.162 15.4966V5.98531C35.162 5.98531 36.1067 0.229126 23.8824 0.229126ZM17.7275 3.55534C17.9913 3.55512 18.2525 3.60385 18.4962 3.69875C18.74 3.79365 18.9614 3.93286 19.148 4.1084C19.3345 4.28395 19.4824 4.49239 19.5832 4.72179C19.684 4.95119 19.7358 5.19706 19.7356 5.44531C19.7358 5.69357 19.684 5.93944 19.5832 6.16884C19.4824 6.39824 19.3345 6.60668 19.148 6.78223C18.9614 6.95777 18.74 7.09698 18.4962 7.19188C18.2525 7.28678 17.9913 7.33551 17.7275 7.33529C17.4637 7.33551 17.2025 7.28678 16.9587 7.19188C16.715 7.09698 16.4935 6.95777 16.307 6.78223C16.1205 6.60668 15.9726 6.39824 15.8718 6.16884C15.7709 5.93944 15.7192 5.69357 15.7194 5.44531C15.7192 5.19706 15.7709 4.95119 15.8718 4.72179C15.9726 4.49239 16.1205 4.28395 16.307 4.1084C16.4935 3.93286 16.715 3.79365 16.9587 3.69875C17.2025 3.60385 17.4637 3.55512 17.7275 3.55534V3.55534Z" fill="#989898"/>
<path d="M24.2146 43.3699C35.9117 43.3699 35.1813 38.5957 35.1813 38.5957L35.1683 33.6497H24.0058V32.1647H39.6017C39.6017 32.1647 47.0867 32.9637 47.0867 21.8553C47.0867 10.7471 40.5536 11.141 40.5536 11.141H36.6547V16.2956C36.6547 16.2956 36.8649 22.4443 30.2259 22.4443H19.1548C19.1548 22.4443 12.9348 22.3498 12.9348 28.1024V37.6139C12.9348 37.6139 11.9903 43.3699 24.2144 43.3699H24.2146ZM30.3695 40.044C30.1057 40.0442 29.8445 39.9955 29.6007 39.9006C29.357 39.8057 29.1355 39.6665 28.949 39.4909C28.7625 39.3154 28.6146 39.107 28.5138 38.8776C28.4129 38.6482 28.3612 38.4023 28.3614 38.154C28.3611 37.9058 28.4129 37.6599 28.5137 37.4305C28.6145 37.201 28.7624 36.9926 28.949 36.817C29.1355 36.6414 29.3569 36.5022 29.6007 36.4073C29.8445 36.3124 30.1057 36.2637 30.3695 36.2639C30.6333 36.2637 30.8945 36.3124 31.1382 36.4073C31.382 36.5022 31.6034 36.6414 31.79 36.817C31.9765 36.9925 32.1244 37.2009 32.2252 37.4303C32.326 37.6597 32.3778 37.9056 32.3776 38.1539C32.3778 38.4021 32.326 38.648 32.2252 38.8774C32.1244 39.1068 31.9765 39.3152 31.79 39.4908C31.6034 39.6663 31.382 39.8055 31.1382 39.9004C30.8945 39.9953 30.6333 40.0441 30.3695 40.0438V40.044Z" fill="#B8B8B8"/>
</svg>
